G04 #@! TF.GenerationSoftware,KiCad,Pcbnew,(5.0.2)-1*
G04 #@! TF.CreationDate,2019-04-22T11:09:00+04:00*
G04 #@! TF.ProjectId,SD_CARD_and_SPI_FLASH_v2.2,53445f43-4152-4445-9f61-6e645f535049,rev?*
G04 #@! TF.SameCoordinates,Original*
G04 #@! TF.FileFunction,Legend,Top*
G04 #@! TF.FilePolarity,Positive*
%FSLAX46Y46*%
G04 Gerber Fmt 4.6, Leading zero omitted, Abs format (unit mm)*
G04 Created by KiCad (PCBNEW (5.0.2)-1) date 22/04/2019 11:09:00*
%MOMM*%
%LPD*%
G01*
G04 APERTURE LIST*
%ADD10C,0.200000*%
%ADD11C,0.406400*%
%ADD12C,0.228600*%
%ADD13C,0.127000*%
%ADD14C,0.203200*%
%ADD15C,0.050800*%
%ADD16C,0.152400*%
%ADD17C,0.100000*%
%ADD18C,0.220000*%
G04 APERTURE END LIST*
D10*
X157734000Y-91948000D02*
X157734000Y-94388000D01*
D11*
X147287000Y-104175600D02*
G75*
G03X147287000Y-104175600I-457900J0D01*
G01*
D12*
X127664195Y-115989200D02*
X127721647Y-115816843D01*
X127721647Y-115529581D01*
X127664195Y-115414676D01*
X127606742Y-115357224D01*
X127491838Y-115299771D01*
X127376933Y-115299771D01*
X127262028Y-115357224D01*
X127204576Y-115414676D01*
X127147123Y-115529581D01*
X127089671Y-115759390D01*
X127032219Y-115874295D01*
X126974766Y-115931748D01*
X126859861Y-115989200D01*
X126744957Y-115989200D01*
X126630052Y-115931748D01*
X126572600Y-115874295D01*
X126515147Y-115759390D01*
X126515147Y-115472129D01*
X126572600Y-115299771D01*
X127721647Y-114782700D02*
X126515147Y-114782700D01*
X126515147Y-114495438D01*
X126572600Y-114323081D01*
X126687504Y-114208176D01*
X126802409Y-114150724D01*
X127032219Y-114093271D01*
X127204576Y-114093271D01*
X127434385Y-114150724D01*
X127549290Y-114208176D01*
X127664195Y-114323081D01*
X127721647Y-114495438D01*
X127721647Y-114782700D01*
X127606742Y-111967533D02*
X127664195Y-112024986D01*
X127721647Y-112197343D01*
X127721647Y-112312248D01*
X127664195Y-112484605D01*
X127549290Y-112599510D01*
X127434385Y-112656962D01*
X127204576Y-112714414D01*
X127032219Y-112714414D01*
X126802409Y-112656962D01*
X126687504Y-112599510D01*
X126572600Y-112484605D01*
X126515147Y-112312248D01*
X126515147Y-112197343D01*
X126572600Y-112024986D01*
X126630052Y-111967533D01*
X127376933Y-111507914D02*
X127376933Y-110933390D01*
X127721647Y-111622819D02*
X126515147Y-111220652D01*
X127721647Y-110818486D01*
X127721647Y-109726890D02*
X127147123Y-110129057D01*
X127721647Y-110416319D02*
X126515147Y-110416319D01*
X126515147Y-109956700D01*
X126572600Y-109841795D01*
X126630052Y-109784343D01*
X126744957Y-109726890D01*
X126917314Y-109726890D01*
X127032219Y-109784343D01*
X127089671Y-109841795D01*
X127147123Y-109956700D01*
X127147123Y-110416319D01*
X127721647Y-109209819D02*
X126515147Y-109209819D01*
X126515147Y-108922557D01*
X126572600Y-108750200D01*
X126687504Y-108635295D01*
X126802409Y-108577843D01*
X127032219Y-108520390D01*
X127204576Y-108520390D01*
X127434385Y-108577843D01*
X127549290Y-108635295D01*
X127664195Y-108750200D01*
X127721647Y-108922557D01*
X127721647Y-109209819D01*
X126457695Y-107141533D02*
X128008909Y-108175676D01*
X127089671Y-106337200D02*
X127089671Y-106739367D01*
X127721647Y-106739367D02*
X126515147Y-106739367D01*
X126515147Y-106164843D01*
X127721647Y-105130700D02*
X127721647Y-105705224D01*
X126515147Y-105705224D01*
X127376933Y-104785986D02*
X127376933Y-104211462D01*
X127721647Y-104900890D02*
X126515147Y-104498724D01*
X127721647Y-104096557D01*
X127664195Y-103751843D02*
X127721647Y-103579486D01*
X127721647Y-103292224D01*
X127664195Y-103177319D01*
X127606742Y-103119867D01*
X127491838Y-103062414D01*
X127376933Y-103062414D01*
X127262028Y-103119867D01*
X127204576Y-103177319D01*
X127147123Y-103292224D01*
X127089671Y-103522033D01*
X127032219Y-103636938D01*
X126974766Y-103694390D01*
X126859861Y-103751843D01*
X126744957Y-103751843D01*
X126630052Y-103694390D01*
X126572600Y-103636938D01*
X126515147Y-103522033D01*
X126515147Y-103234771D01*
X126572600Y-103062414D01*
X127721647Y-102545343D02*
X126515147Y-102545343D01*
X127089671Y-102545343D02*
X127089671Y-101855914D01*
X127721647Y-101855914D02*
X126515147Y-101855914D01*
X129753647Y-114988319D02*
X129179123Y-115390486D01*
X129753647Y-115677748D02*
X128547147Y-115677748D01*
X128547147Y-115218129D01*
X128604600Y-115103224D01*
X128662052Y-115045771D01*
X128776957Y-114988319D01*
X128949314Y-114988319D01*
X129064219Y-115045771D01*
X129121671Y-115103224D01*
X129179123Y-115218129D01*
X129179123Y-115677748D01*
X129696195Y-114011629D02*
X129753647Y-114126533D01*
X129753647Y-114356343D01*
X129696195Y-114471248D01*
X129581290Y-114528700D01*
X129121671Y-114528700D01*
X129006766Y-114471248D01*
X128949314Y-114356343D01*
X128949314Y-114126533D01*
X129006766Y-114011629D01*
X129121671Y-113954176D01*
X129236576Y-113954176D01*
X129351480Y-114528700D01*
X129753647Y-112920033D02*
X129121671Y-112920033D01*
X129006766Y-112977486D01*
X128949314Y-113092390D01*
X128949314Y-113322200D01*
X129006766Y-113437105D01*
X129696195Y-112920033D02*
X129753647Y-113034938D01*
X129753647Y-113322200D01*
X129696195Y-113437105D01*
X129581290Y-113494557D01*
X129466385Y-113494557D01*
X129351480Y-113437105D01*
X129294028Y-113322200D01*
X129294028Y-113034938D01*
X129236576Y-112920033D01*
X129753647Y-111828438D02*
X128547147Y-111828438D01*
X129696195Y-111828438D02*
X129753647Y-111943343D01*
X129753647Y-112173152D01*
X129696195Y-112288057D01*
X129638742Y-112345510D01*
X129523838Y-112402962D01*
X129179123Y-112402962D01*
X129064219Y-112345510D01*
X129006766Y-112288057D01*
X128949314Y-112173152D01*
X128949314Y-111943343D01*
X129006766Y-111828438D01*
X129696195Y-110794295D02*
X129753647Y-110909200D01*
X129753647Y-111139010D01*
X129696195Y-111253914D01*
X129581290Y-111311367D01*
X129121671Y-111311367D01*
X129006766Y-111253914D01*
X128949314Y-111139010D01*
X128949314Y-110909200D01*
X129006766Y-110794295D01*
X129121671Y-110736843D01*
X129236576Y-110736843D01*
X129351480Y-111311367D01*
X129753647Y-110219771D02*
X128949314Y-110219771D01*
X129179123Y-110219771D02*
X129064219Y-110162319D01*
X129006766Y-110104867D01*
X128949314Y-109989962D01*
X128949314Y-109875057D01*
X128949314Y-108668557D02*
X129753647Y-108381295D01*
X128949314Y-108094033D01*
X128662052Y-107691867D02*
X128604600Y-107634414D01*
X128547147Y-107519510D01*
X128547147Y-107232248D01*
X128604600Y-107117343D01*
X128662052Y-107059890D01*
X128776957Y-107002438D01*
X128891861Y-107002438D01*
X129064219Y-107059890D01*
X129753647Y-107749319D01*
X129753647Y-107002438D01*
X129638742Y-106485367D02*
X129696195Y-106427914D01*
X129753647Y-106485367D01*
X129696195Y-106542819D01*
X129638742Y-106485367D01*
X129753647Y-106485367D01*
X128662052Y-105968295D02*
X128604600Y-105910843D01*
X128547147Y-105795938D01*
X128547147Y-105508676D01*
X128604600Y-105393771D01*
X128662052Y-105336319D01*
X128776957Y-105278867D01*
X128891861Y-105278867D01*
X129064219Y-105336319D01*
X129753647Y-106025748D01*
X129753647Y-105278867D01*
X130213266Y-103497843D02*
X130155814Y-103555295D01*
X129983457Y-103670200D01*
X129868552Y-103727652D01*
X129696195Y-103785105D01*
X129408933Y-103842557D01*
X129179123Y-103842557D01*
X128891861Y-103785105D01*
X128719504Y-103727652D01*
X128604600Y-103670200D01*
X128432242Y-103555295D01*
X128374790Y-103497843D01*
X128547147Y-103210581D02*
X128547147Y-102521152D01*
X129753647Y-102865867D02*
X128547147Y-102865867D01*
X128547147Y-102291343D02*
X128547147Y-101601914D01*
X129753647Y-101946629D02*
X128547147Y-101946629D01*
X129753647Y-100625224D02*
X129753647Y-101199748D01*
X128547147Y-101199748D01*
X128547147Y-98729295D02*
X128547147Y-99303819D01*
X129121671Y-99361271D01*
X129064219Y-99303819D01*
X129006766Y-99188914D01*
X129006766Y-98901652D01*
X129064219Y-98786748D01*
X129121671Y-98729295D01*
X129236576Y-98671843D01*
X129523838Y-98671843D01*
X129638742Y-98729295D01*
X129696195Y-98786748D01*
X129753647Y-98901652D01*
X129753647Y-99188914D01*
X129696195Y-99303819D01*
X129638742Y-99361271D01*
X128547147Y-98327129D02*
X129753647Y-97924962D01*
X128547147Y-97522795D01*
X130213266Y-97235533D02*
X130155814Y-97178081D01*
X129983457Y-97063176D01*
X129868552Y-97005724D01*
X129696195Y-96948271D01*
X129408933Y-96890819D01*
X129179123Y-96890819D01*
X128891861Y-96948271D01*
X128719504Y-97005724D01*
X128604600Y-97063176D01*
X128432242Y-97178081D01*
X128374790Y-97235533D01*
X167917147Y-119025105D02*
X167917147Y-118335676D01*
X169123647Y-118680390D02*
X167917147Y-118680390D01*
X167917147Y-117703700D02*
X167917147Y-117473890D01*
X167974600Y-117358986D01*
X168089504Y-117244081D01*
X168319314Y-117186629D01*
X168721480Y-117186629D01*
X168951290Y-117244081D01*
X169066195Y-117358986D01*
X169123647Y-117473890D01*
X169123647Y-117703700D01*
X169066195Y-117818605D01*
X168951290Y-117933510D01*
X168721480Y-117990962D01*
X168319314Y-117990962D01*
X168089504Y-117933510D01*
X167974600Y-117818605D01*
X167917147Y-117703700D01*
X169123647Y-116669557D02*
X167917147Y-116669557D01*
X167917147Y-116209938D01*
X167974600Y-116095033D01*
X168032052Y-116037581D01*
X168146957Y-115980129D01*
X168319314Y-115980129D01*
X168434219Y-116037581D01*
X168491671Y-116095033D01*
X168549123Y-116209938D01*
X168549123Y-116669557D01*
X130567052Y-115735200D02*
X130509600Y-115677748D01*
X130452147Y-115562843D01*
X130452147Y-115275581D01*
X130509600Y-115160676D01*
X130567052Y-115103224D01*
X130681957Y-115045771D01*
X130796861Y-115045771D01*
X130969219Y-115103224D01*
X131658647Y-115792652D01*
X131658647Y-115045771D01*
X130969219Y-114356343D02*
X130911766Y-114471248D01*
X130854314Y-114528700D01*
X130739409Y-114586152D01*
X130681957Y-114586152D01*
X130567052Y-114528700D01*
X130509600Y-114471248D01*
X130452147Y-114356343D01*
X130452147Y-114126533D01*
X130509600Y-114011629D01*
X130567052Y-113954176D01*
X130681957Y-113896724D01*
X130739409Y-113896724D01*
X130854314Y-113954176D01*
X130911766Y-114011629D01*
X130969219Y-114126533D01*
X130969219Y-114356343D01*
X131026671Y-114471248D01*
X131084123Y-114528700D01*
X131199028Y-114586152D01*
X131428838Y-114586152D01*
X131543742Y-114528700D01*
X131601195Y-114471248D01*
X131658647Y-114356343D01*
X131658647Y-114126533D01*
X131601195Y-114011629D01*
X131543742Y-113954176D01*
X131428838Y-113896724D01*
X131199028Y-113896724D01*
X131084123Y-113954176D01*
X131026671Y-114011629D01*
X130969219Y-114126533D01*
X130394695Y-112517867D02*
X131945909Y-113552010D01*
X130452147Y-111885890D02*
X130452147Y-111770986D01*
X130509600Y-111656081D01*
X130567052Y-111598629D01*
X130681957Y-111541176D01*
X130911766Y-111483724D01*
X131199028Y-111483724D01*
X131428838Y-111541176D01*
X131543742Y-111598629D01*
X131601195Y-111656081D01*
X131658647Y-111770986D01*
X131658647Y-111885890D01*
X131601195Y-112000795D01*
X131543742Y-112058248D01*
X131428838Y-112115700D01*
X131199028Y-112173152D01*
X130911766Y-112173152D01*
X130681957Y-112115700D01*
X130567052Y-112058248D01*
X130509600Y-112000795D01*
X130452147Y-111885890D01*
X131658647Y-110334676D02*
X131658647Y-111024105D01*
X131658647Y-110679390D02*
X130452147Y-110679390D01*
X130624504Y-110794295D01*
X130739409Y-110909200D01*
X130796861Y-111024105D01*
X130394695Y-108955819D02*
X131945909Y-109989962D01*
X130567052Y-108611105D02*
X130509600Y-108553652D01*
X130452147Y-108438748D01*
X130452147Y-108151486D01*
X130509600Y-108036581D01*
X130567052Y-107979129D01*
X130681957Y-107921676D01*
X130796861Y-107921676D01*
X130969219Y-107979129D01*
X131658647Y-108668557D01*
X131658647Y-107921676D01*
X130452147Y-107174795D02*
X130452147Y-107059890D01*
X130509600Y-106944986D01*
X130567052Y-106887533D01*
X130681957Y-106830081D01*
X130911766Y-106772629D01*
X131199028Y-106772629D01*
X131428838Y-106830081D01*
X131543742Y-106887533D01*
X131601195Y-106944986D01*
X131658647Y-107059890D01*
X131658647Y-107174795D01*
X131601195Y-107289700D01*
X131543742Y-107347152D01*
X131428838Y-107404605D01*
X131199028Y-107462057D01*
X130911766Y-107462057D01*
X130681957Y-107404605D01*
X130567052Y-107347152D01*
X130509600Y-107289700D01*
X130452147Y-107174795D01*
X131658647Y-105623581D02*
X131658647Y-106313010D01*
X131658647Y-105968295D02*
X130452147Y-105968295D01*
X130624504Y-106083200D01*
X130739409Y-106198105D01*
X130796861Y-106313010D01*
X131658647Y-105049057D02*
X131658647Y-104819248D01*
X131601195Y-104704343D01*
X131543742Y-104646890D01*
X131371385Y-104531986D01*
X131141576Y-104474533D01*
X130681957Y-104474533D01*
X130567052Y-104531986D01*
X130509600Y-104589438D01*
X130452147Y-104704343D01*
X130452147Y-104934152D01*
X130509600Y-105049057D01*
X130567052Y-105106510D01*
X130681957Y-105163962D01*
X130969219Y-105163962D01*
X131084123Y-105106510D01*
X131141576Y-105049057D01*
X131199028Y-104934152D01*
X131199028Y-104704343D01*
X131141576Y-104589438D01*
X131084123Y-104531986D01*
X130969219Y-104474533D01*
X158250890Y-91200010D02*
X158250890Y-90165867D01*
X159330571Y-90510581D02*
X159330571Y-90912748D01*
X159962547Y-90912748D02*
X158756047Y-90912748D01*
X158756047Y-90338224D01*
X158250890Y-90165867D02*
X158250890Y-89189176D01*
X159962547Y-89304081D02*
X159962547Y-89878605D01*
X158756047Y-89878605D01*
X158250890Y-89189176D02*
X158250890Y-88155033D01*
X159617833Y-88959367D02*
X159617833Y-88384843D01*
X159962547Y-89074271D02*
X158756047Y-88672105D01*
X159962547Y-88269938D01*
X158250890Y-88155033D02*
X158250890Y-87005986D01*
X159905095Y-87925224D02*
X159962547Y-87752867D01*
X159962547Y-87465605D01*
X159905095Y-87350700D01*
X159847642Y-87293248D01*
X159732738Y-87235795D01*
X159617833Y-87235795D01*
X159502928Y-87293248D01*
X159445476Y-87350700D01*
X159388023Y-87465605D01*
X159330571Y-87695414D01*
X159273119Y-87810319D01*
X159215666Y-87867771D01*
X159100761Y-87925224D01*
X158985857Y-87925224D01*
X158870952Y-87867771D01*
X158813500Y-87810319D01*
X158756047Y-87695414D01*
X158756047Y-87408152D01*
X158813500Y-87235795D01*
X158250890Y-87005986D02*
X158250890Y-85742033D01*
X159962547Y-86718724D02*
X158756047Y-86718724D01*
X159330571Y-86718724D02*
X159330571Y-86029295D01*
X159962547Y-86029295D02*
X158756047Y-86029295D01*
X155710890Y-91200010D02*
X155710890Y-90050962D01*
X157365095Y-90970200D02*
X157422547Y-90797843D01*
X157422547Y-90510581D01*
X157365095Y-90395676D01*
X157307642Y-90338224D01*
X157192738Y-90280771D01*
X157077833Y-90280771D01*
X156962928Y-90338224D01*
X156905476Y-90395676D01*
X156848023Y-90510581D01*
X156790571Y-90740390D01*
X156733119Y-90855295D01*
X156675666Y-90912748D01*
X156560761Y-90970200D01*
X156445857Y-90970200D01*
X156330952Y-90912748D01*
X156273500Y-90855295D01*
X156216047Y-90740390D01*
X156216047Y-90453129D01*
X156273500Y-90280771D01*
X155710890Y-90050962D02*
X155710890Y-88844462D01*
X157422547Y-89763700D02*
X156216047Y-89763700D01*
X156216047Y-89476438D01*
X156273500Y-89304081D01*
X156388404Y-89189176D01*
X156503309Y-89131724D01*
X156733119Y-89074271D01*
X156905476Y-89074271D01*
X157135285Y-89131724D01*
X157250190Y-89189176D01*
X157365095Y-89304081D01*
X157422547Y-89476438D01*
X157422547Y-89763700D01*
X151833928Y-85697100D02*
X151719023Y-85639647D01*
X151546666Y-85639647D01*
X151374309Y-85697100D01*
X151259404Y-85812004D01*
X151201951Y-85926909D01*
X151144499Y-86156719D01*
X151144499Y-86329076D01*
X151201951Y-86558885D01*
X151259404Y-86673790D01*
X151374309Y-86788695D01*
X151546666Y-86846147D01*
X151661570Y-86846147D01*
X151833928Y-86788695D01*
X151891380Y-86731242D01*
X151891380Y-86329076D01*
X151661570Y-86329076D01*
X152408451Y-86846147D02*
X152408451Y-85639647D01*
X153097880Y-86846147D01*
X153097880Y-85639647D01*
X153672404Y-86846147D02*
X153672404Y-85639647D01*
X153959666Y-85639647D01*
X154132023Y-85697100D01*
X154246928Y-85812004D01*
X154304380Y-85926909D01*
X154361832Y-86156719D01*
X154361832Y-86329076D01*
X154304380Y-86558885D01*
X154246928Y-86673790D01*
X154132023Y-86788695D01*
X153959666Y-86846147D01*
X153672404Y-86846147D01*
X154461195Y-90970200D02*
X154518647Y-90797843D01*
X154518647Y-90510581D01*
X154461195Y-90395676D01*
X154403742Y-90338224D01*
X154288838Y-90280771D01*
X154173933Y-90280771D01*
X154059028Y-90338224D01*
X154001576Y-90395676D01*
X153944123Y-90510581D01*
X153886671Y-90740390D01*
X153829219Y-90855295D01*
X153771766Y-90912748D01*
X153656861Y-90970200D01*
X153541957Y-90970200D01*
X153427052Y-90912748D01*
X153369600Y-90855295D01*
X153312147Y-90740390D01*
X153312147Y-90453129D01*
X153369600Y-90280771D01*
X154518647Y-89763700D02*
X153312147Y-89763700D01*
X144174195Y-91224200D02*
X144231647Y-91051843D01*
X144231647Y-90764581D01*
X144174195Y-90649676D01*
X144116742Y-90592224D01*
X144001838Y-90534771D01*
X143886933Y-90534771D01*
X143772028Y-90592224D01*
X143714576Y-90649676D01*
X143657123Y-90764581D01*
X143599671Y-90994390D01*
X143542219Y-91109295D01*
X143484766Y-91166748D01*
X143369861Y-91224200D01*
X143254957Y-91224200D01*
X143140052Y-91166748D01*
X143082600Y-91109295D01*
X143025147Y-90994390D01*
X143025147Y-90707129D01*
X143082600Y-90534771D01*
X143025147Y-89787890D02*
X143025147Y-89558081D01*
X143082600Y-89443176D01*
X143197504Y-89328271D01*
X143427314Y-89270819D01*
X143829480Y-89270819D01*
X144059290Y-89328271D01*
X144174195Y-89443176D01*
X144231647Y-89558081D01*
X144231647Y-89787890D01*
X144174195Y-89902795D01*
X144059290Y-90017700D01*
X143829480Y-90075152D01*
X143427314Y-90075152D01*
X143197504Y-90017700D01*
X143082600Y-89902795D01*
X143025147Y-89787890D01*
X146402742Y-90350319D02*
X146460195Y-90407771D01*
X146517647Y-90580129D01*
X146517647Y-90695033D01*
X146460195Y-90867390D01*
X146345290Y-90982295D01*
X146230385Y-91039748D01*
X146000576Y-91097200D01*
X145828219Y-91097200D01*
X145598409Y-91039748D01*
X145483504Y-90982295D01*
X145368600Y-90867390D01*
X145311147Y-90695033D01*
X145311147Y-90580129D01*
X145368600Y-90407771D01*
X145426052Y-90350319D01*
X146517647Y-89258724D02*
X146517647Y-89833248D01*
X145311147Y-89833248D01*
X146517647Y-88856557D02*
X145311147Y-88856557D01*
X146517647Y-88167129D02*
X145828219Y-88684200D01*
X145311147Y-88167129D02*
X146000576Y-88856557D01*
X146756951Y-86386528D02*
X147676190Y-86386528D01*
X147216570Y-86846147D02*
X147216570Y-85926909D01*
X148825237Y-85639647D02*
X148250713Y-85639647D01*
X148193261Y-86214171D01*
X148250713Y-86156719D01*
X148365618Y-86099266D01*
X148652880Y-86099266D01*
X148767785Y-86156719D01*
X148825237Y-86214171D01*
X148882690Y-86329076D01*
X148882690Y-86616338D01*
X148825237Y-86731242D01*
X148767785Y-86788695D01*
X148652880Y-86846147D01*
X148365618Y-86846147D01*
X148250713Y-86788695D01*
X148193261Y-86731242D01*
X149227404Y-85639647D02*
X149629570Y-86846147D01*
X150031737Y-85639647D01*
X139725990Y-91454010D02*
X139725990Y-90247510D01*
X141322742Y-90477319D02*
X141380195Y-90534771D01*
X141437647Y-90707129D01*
X141437647Y-90822033D01*
X141380195Y-90994390D01*
X141265290Y-91109295D01*
X141150385Y-91166748D01*
X140920576Y-91224200D01*
X140748219Y-91224200D01*
X140518409Y-91166748D01*
X140403504Y-91109295D01*
X140288600Y-90994390D01*
X140231147Y-90822033D01*
X140231147Y-90707129D01*
X140288600Y-90534771D01*
X140346052Y-90477319D01*
X139725990Y-90247510D02*
X139725990Y-89041010D01*
X141437647Y-89960248D02*
X140231147Y-89960248D01*
X140231147Y-89672986D01*
X140288600Y-89500629D01*
X140403504Y-89385724D01*
X140518409Y-89328271D01*
X140748219Y-89270819D01*
X140920576Y-89270819D01*
X141150385Y-89328271D01*
X141265290Y-89385724D01*
X141380195Y-89500629D01*
X141437647Y-89672986D01*
X141437647Y-89960248D01*
X139725990Y-89041010D02*
X139725990Y-88466486D01*
X141437647Y-88753748D02*
X140231147Y-88753748D01*
D13*
G04 #@! TO.C,U$1*
X164355100Y-112303600D02*
X166133100Y-114589600D01*
X164355100Y-107223600D02*
X164355100Y-112303600D01*
X166133100Y-123479600D02*
X166133100Y-114589600D01*
X164863100Y-123479600D02*
X166133100Y-123479600D01*
X139971100Y-123479600D02*
X164863100Y-123479600D01*
X139971100Y-107223600D02*
X139971100Y-123479600D01*
X139971100Y-107223600D02*
X164355100Y-107223600D01*
D14*
G04 #@! TO.C,IC1*
X139184100Y-98333600D02*
X132630100Y-98333600D01*
X139184100Y-94777600D02*
X139184100Y-98333600D01*
X132630100Y-94777600D02*
X139184100Y-94777600D01*
X132630100Y-98333600D02*
X132630100Y-94777600D01*
D15*
G04 #@! TO.C,IC2*
X147591100Y-101203800D02*
X157751100Y-101203800D01*
D16*
X147591100Y-100111600D02*
G75*
G03X147591100Y-99095600I0J508000D01*
G01*
X147591100Y-100111600D02*
X147591100Y-101178400D01*
X147591100Y-99095600D02*
X147591100Y-100111600D01*
X147591100Y-98028800D02*
X147591100Y-99095600D01*
X157751100Y-101178400D02*
X157751100Y-98028800D01*
X147972100Y-101559400D02*
X157370100Y-101559400D01*
X147972100Y-101559400D02*
G75*
G02X147591100Y-101178400I0J381000D01*
G01*
X157751100Y-98028800D02*
G75*
G03X157370100Y-97647800I-381000J0D01*
G01*
X147972100Y-97647800D02*
G75*
G03X147591100Y-98028800I0J-381000D01*
G01*
X157751100Y-101178400D02*
G75*
G02X157370100Y-101559400I-381000J0D01*
G01*
X157370100Y-97647800D02*
X147972100Y-97647800D01*
D17*
G04 #@! TO.C,SD*
G36*
X161561100Y-98508600D02*
X161561100Y-98158600D01*
X161211100Y-98158600D01*
X161211100Y-98508600D01*
X161561100Y-98508600D01*
G37*
G36*
X161211100Y-97808600D02*
X161211100Y-97483600D01*
X160786100Y-97483600D01*
X160786100Y-97808600D01*
X161211100Y-97808600D01*
G37*
G36*
X161211100Y-99183600D02*
X161211100Y-98858600D01*
X160786100Y-98858600D01*
X160786100Y-99183600D01*
X161211100Y-99183600D01*
G37*
G04 #@! TO.C,FLASH*
G36*
X161561100Y-95968600D02*
X161561100Y-95618600D01*
X161211100Y-95618600D01*
X161211100Y-95968600D01*
X161561100Y-95968600D01*
G37*
G36*
X161211100Y-95268600D02*
X161211100Y-94943600D01*
X160786100Y-94943600D01*
X160786100Y-95268600D01*
X161211100Y-95268600D01*
G37*
G36*
X161211100Y-96643600D02*
X161211100Y-96318600D01*
X160786100Y-96318600D01*
X160786100Y-96643600D01*
X161211100Y-96643600D01*
G37*
D13*
G04 #@! TO.C,SV1*
X160291100Y-91882000D02*
X160291100Y-94422000D01*
X139971100Y-91882000D02*
X160291100Y-91882000D01*
X139971100Y-94422000D02*
X139971100Y-91882000D01*
X160291100Y-94422000D02*
X139971100Y-94422000D01*
G04 #@! TO.C,U$1*
D18*
X143882809Y-117995095D02*
X144055166Y-118052547D01*
X144342428Y-118052547D01*
X144457333Y-117995095D01*
X144514785Y-117937642D01*
X144572238Y-117822738D01*
X144572238Y-117707833D01*
X144514785Y-117592928D01*
X144457333Y-117535476D01*
X144342428Y-117478023D01*
X144112619Y-117420571D01*
X143997714Y-117363119D01*
X143940261Y-117305666D01*
X143882809Y-117190761D01*
X143882809Y-117075857D01*
X143940261Y-116960952D01*
X143997714Y-116903500D01*
X144112619Y-116846047D01*
X144399880Y-116846047D01*
X144572238Y-116903500D01*
X145089309Y-118052547D02*
X145089309Y-116846047D01*
X145376571Y-116846047D01*
X145548928Y-116903500D01*
X145663833Y-117018404D01*
X145721285Y-117133309D01*
X145778738Y-117363119D01*
X145778738Y-117535476D01*
X145721285Y-117765285D01*
X145663833Y-117880190D01*
X145548928Y-117995095D01*
X145376571Y-118052547D01*
X145089309Y-118052547D01*
X147157595Y-117995095D02*
X147272500Y-118052547D01*
X147502309Y-118052547D01*
X147617214Y-117995095D01*
X147674666Y-117880190D01*
X147674666Y-117822738D01*
X147617214Y-117707833D01*
X147502309Y-117650380D01*
X147329952Y-117650380D01*
X147215047Y-117592928D01*
X147157595Y-117478023D01*
X147157595Y-117420571D01*
X147215047Y-117305666D01*
X147329952Y-117248214D01*
X147502309Y-117248214D01*
X147617214Y-117305666D01*
X148364095Y-118052547D02*
X148249190Y-117995095D01*
X148191738Y-117937642D01*
X148134285Y-117822738D01*
X148134285Y-117478023D01*
X148191738Y-117363119D01*
X148249190Y-117305666D01*
X148364095Y-117248214D01*
X148536452Y-117248214D01*
X148651357Y-117305666D01*
X148708809Y-117363119D01*
X148766261Y-117478023D01*
X148766261Y-117822738D01*
X148708809Y-117937642D01*
X148651357Y-117995095D01*
X148536452Y-118052547D01*
X148364095Y-118052547D01*
X149800404Y-117995095D02*
X149685500Y-118052547D01*
X149455690Y-118052547D01*
X149340785Y-117995095D01*
X149283333Y-117937642D01*
X149225880Y-117822738D01*
X149225880Y-117478023D01*
X149283333Y-117363119D01*
X149340785Y-117305666D01*
X149455690Y-117248214D01*
X149685500Y-117248214D01*
X149800404Y-117305666D01*
X150317476Y-118052547D02*
X150317476Y-116846047D01*
X150432380Y-117592928D02*
X150777095Y-118052547D01*
X150777095Y-117248214D02*
X150317476Y-117707833D01*
X151753785Y-117995095D02*
X151638880Y-118052547D01*
X151409071Y-118052547D01*
X151294166Y-117995095D01*
X151236714Y-117880190D01*
X151236714Y-117420571D01*
X151294166Y-117305666D01*
X151409071Y-117248214D01*
X151638880Y-117248214D01*
X151753785Y-117305666D01*
X151811238Y-117420571D01*
X151811238Y-117535476D01*
X151236714Y-117650380D01*
X152155952Y-117248214D02*
X152615571Y-117248214D01*
X152328309Y-116846047D02*
X152328309Y-117880190D01*
X152385761Y-117995095D01*
X152500666Y-118052547D01*
X152615571Y-118052547D01*
X153936976Y-118052547D02*
X153936976Y-116846047D01*
X154626404Y-118052547D02*
X154109333Y-117363119D01*
X154626404Y-116846047D02*
X153936976Y-117535476D01*
X155086023Y-117707833D02*
X155660547Y-117707833D01*
X154971119Y-118052547D02*
X155373285Y-116846047D01*
X155775452Y-118052547D01*
X156177619Y-117592928D02*
X157096857Y-117592928D01*
X158303357Y-118052547D02*
X157613928Y-118052547D01*
X157958642Y-118052547D02*
X157958642Y-116846047D01*
X157843738Y-117018404D01*
X157728833Y-117133309D01*
X157613928Y-117190761D01*
X159452404Y-118052547D02*
X158762976Y-118052547D01*
X159107690Y-118052547D02*
X159107690Y-116846047D01*
X158992785Y-117018404D01*
X158877880Y-117133309D01*
X158762976Y-117190761D01*
X160199285Y-116846047D02*
X160314190Y-116846047D01*
X160429095Y-116903500D01*
X160486547Y-116960952D01*
X160544000Y-117075857D01*
X160601452Y-117305666D01*
X160601452Y-117592928D01*
X160544000Y-117822738D01*
X160486547Y-117937642D01*
X160429095Y-117995095D01*
X160314190Y-118052547D01*
X160199285Y-118052547D01*
X160084380Y-117995095D01*
X160026928Y-117937642D01*
X159969476Y-117822738D01*
X159912023Y-117592928D01*
X159912023Y-117305666D01*
X159969476Y-117075857D01*
X160026928Y-116960952D01*
X160084380Y-116903500D01*
X160199285Y-116846047D01*
X149567790Y-122539195D02*
X149740147Y-122596647D01*
X150027409Y-122596647D01*
X150142314Y-122539195D01*
X150199766Y-122481742D01*
X150257219Y-122366838D01*
X150257219Y-122251933D01*
X150199766Y-122137028D01*
X150142314Y-122079576D01*
X150027409Y-122022123D01*
X149797600Y-121964671D01*
X149682695Y-121907219D01*
X149625242Y-121849766D01*
X149567790Y-121734861D01*
X149567790Y-121619957D01*
X149625242Y-121505052D01*
X149682695Y-121447600D01*
X149797600Y-121390147D01*
X150084861Y-121390147D01*
X150257219Y-121447600D01*
X150774290Y-122596647D02*
X150774290Y-121390147D01*
X151061552Y-121390147D01*
X151233909Y-121447600D01*
X151348814Y-121562504D01*
X151406266Y-121677409D01*
X151463719Y-121907219D01*
X151463719Y-122079576D01*
X151406266Y-122309385D01*
X151348814Y-122424290D01*
X151233909Y-122539195D01*
X151061552Y-122596647D01*
X150774290Y-122596647D01*
X152670219Y-122481742D02*
X152612766Y-122539195D01*
X152440409Y-122596647D01*
X152325504Y-122596647D01*
X152153147Y-122539195D01*
X152038242Y-122424290D01*
X151980790Y-122309385D01*
X151923338Y-122079576D01*
X151923338Y-121907219D01*
X151980790Y-121677409D01*
X152038242Y-121562504D01*
X152153147Y-121447600D01*
X152325504Y-121390147D01*
X152440409Y-121390147D01*
X152612766Y-121447600D01*
X152670219Y-121505052D01*
X153704361Y-122596647D02*
X153704361Y-121964671D01*
X153646909Y-121849766D01*
X153532004Y-121792314D01*
X153302195Y-121792314D01*
X153187290Y-121849766D01*
X153704361Y-122539195D02*
X153589457Y-122596647D01*
X153302195Y-122596647D01*
X153187290Y-122539195D01*
X153129838Y-122424290D01*
X153129838Y-122309385D01*
X153187290Y-122194480D01*
X153302195Y-122137028D01*
X153589457Y-122137028D01*
X153704361Y-122079576D01*
X154278885Y-122596647D02*
X154278885Y-121792314D01*
X154278885Y-122022123D02*
X154336338Y-121907219D01*
X154393790Y-121849766D01*
X154508695Y-121792314D01*
X154623600Y-121792314D01*
X155542838Y-122596647D02*
X155542838Y-121390147D01*
X155542838Y-122539195D02*
X155427933Y-122596647D01*
X155198123Y-122596647D01*
X155083219Y-122539195D01*
X155025766Y-122481742D01*
X154968314Y-122366838D01*
X154968314Y-122022123D01*
X155025766Y-121907219D01*
X155083219Y-121849766D01*
X155198123Y-121792314D01*
X155427933Y-121792314D01*
X155542838Y-121849766D01*
G04 #@! TO.C,C1*
X137512742Y-102166909D02*
X137570195Y-102224361D01*
X137627647Y-102396719D01*
X137627647Y-102511623D01*
X137570195Y-102683980D01*
X137455290Y-102798885D01*
X137340385Y-102856338D01*
X137110576Y-102913790D01*
X136938219Y-102913790D01*
X136708409Y-102856338D01*
X136593504Y-102798885D01*
X136478600Y-102683980D01*
X136421147Y-102511623D01*
X136421147Y-102396719D01*
X136478600Y-102224361D01*
X136536052Y-102166909D01*
X137627647Y-101017861D02*
X137627647Y-101707290D01*
X137627647Y-101362576D02*
X136421147Y-101362576D01*
X136593504Y-101477480D01*
X136708409Y-101592385D01*
X136765861Y-101707290D01*
G04 #@! TO.C,R7*
X141073690Y-102304547D02*
X140671523Y-101730023D01*
X140384261Y-102304547D02*
X140384261Y-101098047D01*
X140843880Y-101098047D01*
X140958785Y-101155500D01*
X141016238Y-101212952D01*
X141073690Y-101327857D01*
X141073690Y-101500214D01*
X141016238Y-101615119D01*
X140958785Y-101672571D01*
X140843880Y-101730023D01*
X140384261Y-101730023D01*
X141475857Y-101098047D02*
X142280190Y-101098047D01*
X141763119Y-102304547D01*
G04 #@! TO.C,IC1*
X139962190Y-97415047D02*
X139962190Y-96208547D01*
X141226142Y-97300142D02*
X141168690Y-97357595D01*
X140996333Y-97415047D01*
X140881428Y-97415047D01*
X140709071Y-97357595D01*
X140594166Y-97242690D01*
X140536714Y-97127785D01*
X140479261Y-96897976D01*
X140479261Y-96725619D01*
X140536714Y-96495809D01*
X140594166Y-96380904D01*
X140709071Y-96266000D01*
X140881428Y-96208547D01*
X140996333Y-96208547D01*
X141168690Y-96266000D01*
X141226142Y-96323452D01*
X142375190Y-97415047D02*
X141685761Y-97415047D01*
X142030476Y-97415047D02*
X142030476Y-96208547D01*
X141915571Y-96380904D01*
X141800666Y-96495809D01*
X141685761Y-96553261D01*
G04 #@! TO.C,C2*
D10*
X150463142Y-90426857D02*
X150510761Y-90474476D01*
X150558380Y-90617333D01*
X150558380Y-90712571D01*
X150510761Y-90855428D01*
X150415523Y-90950666D01*
X150320285Y-90998285D01*
X150129809Y-91045904D01*
X149986952Y-91045904D01*
X149796476Y-90998285D01*
X149701238Y-90950666D01*
X149606000Y-90855428D01*
X149558380Y-90712571D01*
X149558380Y-90617333D01*
X149606000Y-90474476D01*
X149653619Y-90426857D01*
X149653619Y-90045904D02*
X149606000Y-89998285D01*
X149558380Y-89903047D01*
X149558380Y-89664952D01*
X149606000Y-89569714D01*
X149653619Y-89522095D01*
X149748857Y-89474476D01*
X149844095Y-89474476D01*
X149986952Y-89522095D01*
X150558380Y-90093523D01*
X150558380Y-89474476D01*
G04 #@! TO.C,IC2*
D18*
X147152647Y-101205338D02*
X145946147Y-101205338D01*
X147037742Y-99941385D02*
X147095195Y-99998838D01*
X147152647Y-100171195D01*
X147152647Y-100286100D01*
X147095195Y-100458457D01*
X146980290Y-100573361D01*
X146865385Y-100630814D01*
X146635576Y-100688266D01*
X146463219Y-100688266D01*
X146233409Y-100630814D01*
X146118504Y-100573361D01*
X146003600Y-100458457D01*
X145946147Y-100286100D01*
X145946147Y-100171195D01*
X146003600Y-99998838D01*
X146061052Y-99941385D01*
X146061052Y-99481766D02*
X146003600Y-99424314D01*
X145946147Y-99309409D01*
X145946147Y-99022147D01*
X146003600Y-98907242D01*
X146061052Y-98849790D01*
X146175957Y-98792338D01*
X146290861Y-98792338D01*
X146463219Y-98849790D01*
X147152647Y-99539219D01*
X147152647Y-98792338D01*
G04 #@! TO.C,R1*
X154180142Y-88779047D02*
X153777976Y-88204523D01*
X153490714Y-88779047D02*
X153490714Y-87572547D01*
X153950333Y-87572547D01*
X154065238Y-87630000D01*
X154122690Y-87687452D01*
X154180142Y-87802357D01*
X154180142Y-87974714D01*
X154122690Y-88089619D01*
X154065238Y-88147071D01*
X153950333Y-88204523D01*
X153490714Y-88204523D01*
X155329190Y-88779047D02*
X154639761Y-88779047D01*
X154984476Y-88779047D02*
X154984476Y-87572547D01*
X154869571Y-87744904D01*
X154754666Y-87859809D01*
X154639761Y-87917261D01*
G04 #@! TO.C,C3*
X150370142Y-105174142D02*
X150312690Y-105231595D01*
X150140333Y-105289047D01*
X150025428Y-105289047D01*
X149853071Y-105231595D01*
X149738166Y-105116690D01*
X149680714Y-105001785D01*
X149623261Y-104771976D01*
X149623261Y-104599619D01*
X149680714Y-104369809D01*
X149738166Y-104254904D01*
X149853071Y-104140000D01*
X150025428Y-104082547D01*
X150140333Y-104082547D01*
X150312690Y-104140000D01*
X150370142Y-104197452D01*
X150772309Y-104082547D02*
X151519190Y-104082547D01*
X151117023Y-104542166D01*
X151289380Y-104542166D01*
X151404285Y-104599619D01*
X151461738Y-104657071D01*
X151519190Y-104771976D01*
X151519190Y-105059238D01*
X151461738Y-105174142D01*
X151404285Y-105231595D01*
X151289380Y-105289047D01*
X150944666Y-105289047D01*
X150829761Y-105231595D01*
X150772309Y-105174142D01*
G04 #@! TO.C,R5*
X166727690Y-100780547D02*
X166325523Y-100206023D01*
X166038261Y-100780547D02*
X166038261Y-99574047D01*
X166497880Y-99574047D01*
X166612785Y-99631500D01*
X166670238Y-99688952D01*
X166727690Y-99803857D01*
X166727690Y-99976214D01*
X166670238Y-100091119D01*
X166612785Y-100148571D01*
X166497880Y-100206023D01*
X166038261Y-100206023D01*
X167819285Y-99574047D02*
X167244761Y-99574047D01*
X167187309Y-100148571D01*
X167244761Y-100091119D01*
X167359666Y-100033666D01*
X167646928Y-100033666D01*
X167761833Y-100091119D01*
X167819285Y-100148571D01*
X167876738Y-100263476D01*
X167876738Y-100550738D01*
X167819285Y-100665642D01*
X167761833Y-100723095D01*
X167646928Y-100780547D01*
X167359666Y-100780547D01*
X167244761Y-100723095D01*
X167187309Y-100665642D01*
G04 #@! TO.C,SD*
X160562361Y-100695195D02*
X160734719Y-100752647D01*
X161021980Y-100752647D01*
X161136885Y-100695195D01*
X161194338Y-100637742D01*
X161251790Y-100522838D01*
X161251790Y-100407933D01*
X161194338Y-100293028D01*
X161136885Y-100235576D01*
X161021980Y-100178123D01*
X160792171Y-100120671D01*
X160677266Y-100063219D01*
X160619814Y-100005766D01*
X160562361Y-99890861D01*
X160562361Y-99775957D01*
X160619814Y-99661052D01*
X160677266Y-99603600D01*
X160792171Y-99546147D01*
X161079433Y-99546147D01*
X161251790Y-99603600D01*
X161768861Y-100752647D02*
X161768861Y-99546147D01*
X162056123Y-99546147D01*
X162228480Y-99603600D01*
X162343385Y-99718504D01*
X162400838Y-99833409D01*
X162458290Y-100063219D01*
X162458290Y-100235576D01*
X162400838Y-100465385D01*
X162343385Y-100580290D01*
X162228480Y-100695195D01*
X162056123Y-100752647D01*
X161768861Y-100752647D01*
G04 #@! TO.C,FLASH*
X161004619Y-94154571D02*
X160671285Y-94154571D01*
X160671285Y-94678380D02*
X160671285Y-93678380D01*
X161147476Y-93678380D01*
X162004619Y-94678380D02*
X161528428Y-94678380D01*
X161528428Y-93678380D01*
X162290333Y-94392666D02*
X162766523Y-94392666D01*
X162195095Y-94678380D02*
X162528428Y-93678380D01*
X162861761Y-94678380D01*
X163147476Y-94630761D02*
X163290333Y-94678380D01*
X163528428Y-94678380D01*
X163623666Y-94630761D01*
X163671285Y-94583142D01*
X163718904Y-94487904D01*
X163718904Y-94392666D01*
X163671285Y-94297428D01*
X163623666Y-94249809D01*
X163528428Y-94202190D01*
X163337952Y-94154571D01*
X163242714Y-94106952D01*
X163195095Y-94059333D01*
X163147476Y-93964095D01*
X163147476Y-93868857D01*
X163195095Y-93773619D01*
X163242714Y-93726000D01*
X163337952Y-93678380D01*
X163576047Y-93678380D01*
X163718904Y-93726000D01*
X164147476Y-94678380D02*
X164147476Y-93678380D01*
X164147476Y-94154571D02*
X164718904Y-94154571D01*
X164718904Y-94678380D02*
X164718904Y-93678380D01*
G04 #@! TO.C,R6*
X166727690Y-94720147D02*
X166325523Y-94145623D01*
X166038261Y-94720147D02*
X166038261Y-93513647D01*
X166497880Y-93513647D01*
X166612785Y-93571100D01*
X166670238Y-93628552D01*
X166727690Y-93743457D01*
X166727690Y-93915814D01*
X166670238Y-94030719D01*
X166612785Y-94088171D01*
X166497880Y-94145623D01*
X166038261Y-94145623D01*
X167761833Y-93513647D02*
X167532023Y-93513647D01*
X167417119Y-93571100D01*
X167359666Y-93628552D01*
X167244761Y-93800909D01*
X167187309Y-94030719D01*
X167187309Y-94490338D01*
X167244761Y-94605242D01*
X167302214Y-94662695D01*
X167417119Y-94720147D01*
X167646928Y-94720147D01*
X167761833Y-94662695D01*
X167819285Y-94605242D01*
X167876738Y-94490338D01*
X167876738Y-94203076D01*
X167819285Y-94088171D01*
X167761833Y-94030719D01*
X167646928Y-93973266D01*
X167417119Y-93973266D01*
X167302214Y-94030719D01*
X167244761Y-94088171D01*
X167187309Y-94203076D01*
G04 #@! TO.C,C5*
X138956142Y-90421857D02*
X139013595Y-90479309D01*
X139071047Y-90651666D01*
X139071047Y-90766571D01*
X139013595Y-90938928D01*
X138898690Y-91053833D01*
X138783785Y-91111285D01*
X138553976Y-91168738D01*
X138381619Y-91168738D01*
X138151809Y-91111285D01*
X138036904Y-91053833D01*
X137922000Y-90938928D01*
X137864547Y-90766571D01*
X137864547Y-90651666D01*
X137922000Y-90479309D01*
X137979452Y-90421857D01*
X137864547Y-89330261D02*
X137864547Y-89904785D01*
X138439071Y-89962238D01*
X138381619Y-89904785D01*
X138324166Y-89789880D01*
X138324166Y-89502619D01*
X138381619Y-89387714D01*
X138439071Y-89330261D01*
X138553976Y-89272809D01*
X138841238Y-89272809D01*
X138956142Y-89330261D01*
X139013595Y-89387714D01*
X139071047Y-89502619D01*
X139071047Y-89789880D01*
X139013595Y-89904785D01*
X138956142Y-89962238D01*
G04 #@! TO.C,SV1*
X160838571Y-92023595D02*
X161010928Y-92081047D01*
X161298190Y-92081047D01*
X161413095Y-92023595D01*
X161470547Y-91966142D01*
X161528000Y-91851238D01*
X161528000Y-91736333D01*
X161470547Y-91621428D01*
X161413095Y-91563976D01*
X161298190Y-91506523D01*
X161068380Y-91449071D01*
X160953476Y-91391619D01*
X160896023Y-91334166D01*
X160838571Y-91219261D01*
X160838571Y-91104357D01*
X160896023Y-90989452D01*
X160953476Y-90932000D01*
X161068380Y-90874547D01*
X161355642Y-90874547D01*
X161528000Y-90932000D01*
X161872714Y-90874547D02*
X162274880Y-92081047D01*
X162677047Y-90874547D01*
X163711190Y-92081047D02*
X163021761Y-92081047D01*
X163366476Y-92081047D02*
X163366476Y-90874547D01*
X163251571Y-91046904D01*
X163136666Y-91161809D01*
X163021761Y-91219261D01*
G04 #@! TD*
M02*
