G04 #@! TF.GenerationSoftware,KiCad,Pcbnew,(5.0.2)-1*
G04 #@! TF.CreationDate,2019-04-22T11:09:00+04:00*
G04 #@! TF.ProjectId,SD_CARD_and_SPI_FLASH_v2.2,53445f43-4152-4445-9f61-6e645f535049,rev?*
G04 #@! TF.SameCoordinates,Original*
G04 #@! TF.FileFunction,Copper,L2,Bot*
G04 #@! TF.FilePolarity,Positive*
%FSLAX46Y46*%
G04 Gerber Fmt 4.6, Leading zero omitted, Abs format (unit mm)*
G04 Created by KiCad (PCBNEW (5.0.2)-1) date 22/04/2019 11:09:00*
%MOMM*%
%LPD*%
G01*
G04 APERTURE LIST*
G04 #@! TA.AperFunction,SMDPad,CuDef*
%ADD10R,1.422400X0.711200*%
G04 #@! TD*
G04 #@! TA.AperFunction,SMDPad,CuDef*
%ADD11R,0.711200X1.422400*%
G04 #@! TD*
G04 #@! TA.AperFunction,SMDPad,CuDef*
%ADD12R,0.600000X2.200000*%
G04 #@! TD*
G04 #@! TA.AperFunction,SMDPad,CuDef*
%ADD13R,1.778000X0.914400*%
G04 #@! TD*
G04 #@! TA.AperFunction,Conductor*
%ADD14C,0.100000*%
G04 #@! TD*
G04 #@! TA.AperFunction,ComponentPad*
%ADD15C,1.778000*%
G04 #@! TD*
G04 #@! TA.AperFunction,ViaPad*
%ADD16C,6.500000*%
G04 #@! TD*
G04 #@! TA.AperFunction,ViaPad*
%ADD17C,1.676400*%
G04 #@! TD*
G04 #@! TA.AperFunction,ViaPad*
%ADD18C,1.422400*%
G04 #@! TD*
G04 #@! TA.AperFunction,ViaPad*
%ADD19C,1.778000*%
G04 #@! TD*
G04 #@! TA.AperFunction,Conductor*
%ADD20C,0.406400*%
G04 #@! TD*
G04 #@! TA.AperFunction,Conductor*
%ADD21C,0.609600*%
G04 #@! TD*
G04 APERTURE END LIST*
D10*
G04 #@! TO.P,R2,P$2*
G04 #@! TO.N,+3V3*
X166641100Y-100111600D03*
G04 #@! TO.P,R2,P$1*
G04 #@! TO.N,Net-(IC3-Pad3)*
X166641100Y-97825600D03*
G04 #@! TD*
D11*
G04 #@! TO.P,R3,P$2*
G04 #@! TO.N,Net-(IC3-Pad7)*
X162704100Y-105318600D03*
G04 #@! TO.P,R3,P$1*
G04 #@! TO.N,+3V3*
X160418100Y-105318600D03*
G04 #@! TD*
D12*
G04 #@! TO.P,IC3,2*
G04 #@! TO.N,/DO_MISO*
X162196100Y-96273600D03*
G04 #@! TO.P,IC3,7*
G04 #@! TO.N,Net-(IC3-Pad7)*
X162196100Y-102933600D03*
G04 #@! TO.P,IC3,1*
G04 #@! TO.N,/~CS1*
X160926100Y-96273600D03*
G04 #@! TO.P,IC3,3*
G04 #@! TO.N,Net-(IC3-Pad3)*
X163466100Y-96273600D03*
G04 #@! TO.P,IC3,4*
G04 #@! TO.N,GND*
X164736100Y-96273600D03*
G04 #@! TO.P,IC3,8*
G04 #@! TO.N,+3V3*
X160926100Y-102933600D03*
G04 #@! TO.P,IC3,6*
G04 #@! TO.N,/SCLK*
X163466100Y-102933600D03*
G04 #@! TO.P,IC3,5*
G04 #@! TO.N,/DI_MOSI*
X164736100Y-102933600D03*
G04 #@! TD*
D13*
G04 #@! TO.P,R4,P$2*
G04 #@! TO.N,/~SS_FLASH*
X159021100Y-91602600D03*
G04 #@! TO.P,R4,P$1*
G04 #@! TO.N,/+5V*
X159021100Y-88300600D03*
G04 #@! TD*
D10*
G04 #@! TO.P,C4,P$2*
G04 #@! TO.N,+3V3*
X159021100Y-101381600D03*
G04 #@! TO.P,C4,P$1*
G04 #@! TO.N,GND*
X159021100Y-99095600D03*
G04 #@! TD*
G04 #@! TO.P,R9,P$2*
G04 #@! TO.N,Net-(R10-PadP$1)*
X146448100Y-108493600D03*
G04 #@! TO.P,R9,P$1*
G04 #@! TO.N,+3V3*
X146448100Y-106207600D03*
G04 #@! TD*
G04 #@! TO.P,R10,P$2*
G04 #@! TO.N,/~CDI*
X142003100Y-103032600D03*
G04 #@! TO.P,R10,P$1*
G04 #@! TO.N,Net-(R10-PadP$1)*
X142003100Y-105318600D03*
G04 #@! TD*
D14*
G04 #@! TO.N,/~CDI*
G04 #@! TO.C,SV1*
G36*
X141729169Y-91765140D02*
X141772318Y-91771541D01*
X141814632Y-91782140D01*
X141855703Y-91796836D01*
X141895136Y-91815486D01*
X141932551Y-91837912D01*
X141967588Y-91863897D01*
X141999909Y-91893191D01*
X142029203Y-91925512D01*
X142055188Y-91960549D01*
X142077614Y-91997964D01*
X142096264Y-92037397D01*
X142110960Y-92078468D01*
X142121559Y-92120782D01*
X142127960Y-92163931D01*
X142130100Y-92207500D01*
X142130100Y-94096500D01*
X142127960Y-94140069D01*
X142121559Y-94183218D01*
X142110960Y-94225532D01*
X142096264Y-94266603D01*
X142077614Y-94306036D01*
X142055188Y-94343451D01*
X142029203Y-94378488D01*
X141999909Y-94410809D01*
X141967588Y-94440103D01*
X141932551Y-94466088D01*
X141895136Y-94488514D01*
X141855703Y-94507164D01*
X141814632Y-94521860D01*
X141772318Y-94532459D01*
X141729169Y-94538860D01*
X141685600Y-94541000D01*
X140796600Y-94541000D01*
X140753031Y-94538860D01*
X140709882Y-94532459D01*
X140667568Y-94521860D01*
X140626497Y-94507164D01*
X140587064Y-94488514D01*
X140549649Y-94466088D01*
X140514612Y-94440103D01*
X140482291Y-94410809D01*
X140452997Y-94378488D01*
X140427012Y-94343451D01*
X140404586Y-94306036D01*
X140385936Y-94266603D01*
X140371240Y-94225532D01*
X140360641Y-94183218D01*
X140354240Y-94140069D01*
X140352100Y-94096500D01*
X140352100Y-92207500D01*
X140354240Y-92163931D01*
X140360641Y-92120782D01*
X140371240Y-92078468D01*
X140385936Y-92037397D01*
X140404586Y-91997964D01*
X140427012Y-91960549D01*
X140452997Y-91925512D01*
X140482291Y-91893191D01*
X140514612Y-91863897D01*
X140549649Y-91837912D01*
X140587064Y-91815486D01*
X140626497Y-91796836D01*
X140667568Y-91782140D01*
X140709882Y-91771541D01*
X140753031Y-91765140D01*
X140796600Y-91763000D01*
X141685600Y-91763000D01*
X141729169Y-91765140D01*
X141729169Y-91765140D01*
G37*
D15*
G04 #@! TD*
G04 #@! TO.P,SV1,8*
G04 #@! TO.N,/~CDI*
X141241100Y-93152000D03*
D14*
G04 #@! TO.N,/DO_MISO*
G04 #@! TO.C,SV1*
G36*
X144269169Y-91765140D02*
X144312318Y-91771541D01*
X144354632Y-91782140D01*
X144395703Y-91796836D01*
X144435136Y-91815486D01*
X144472551Y-91837912D01*
X144507588Y-91863897D01*
X144539909Y-91893191D01*
X144569203Y-91925512D01*
X144595188Y-91960549D01*
X144617614Y-91997964D01*
X144636264Y-92037397D01*
X144650960Y-92078468D01*
X144661559Y-92120782D01*
X144667960Y-92163931D01*
X144670100Y-92207500D01*
X144670100Y-94096500D01*
X144667960Y-94140069D01*
X144661559Y-94183218D01*
X144650960Y-94225532D01*
X144636264Y-94266603D01*
X144617614Y-94306036D01*
X144595188Y-94343451D01*
X144569203Y-94378488D01*
X144539909Y-94410809D01*
X144507588Y-94440103D01*
X144472551Y-94466088D01*
X144435136Y-94488514D01*
X144395703Y-94507164D01*
X144354632Y-94521860D01*
X144312318Y-94532459D01*
X144269169Y-94538860D01*
X144225600Y-94541000D01*
X143336600Y-94541000D01*
X143293031Y-94538860D01*
X143249882Y-94532459D01*
X143207568Y-94521860D01*
X143166497Y-94507164D01*
X143127064Y-94488514D01*
X143089649Y-94466088D01*
X143054612Y-94440103D01*
X143022291Y-94410809D01*
X142992997Y-94378488D01*
X142967012Y-94343451D01*
X142944586Y-94306036D01*
X142925936Y-94266603D01*
X142911240Y-94225532D01*
X142900641Y-94183218D01*
X142894240Y-94140069D01*
X142892100Y-94096500D01*
X142892100Y-92207500D01*
X142894240Y-92163931D01*
X142900641Y-92120782D01*
X142911240Y-92078468D01*
X142925936Y-92037397D01*
X142944586Y-91997964D01*
X142967012Y-91960549D01*
X142992997Y-91925512D01*
X143022291Y-91893191D01*
X143054612Y-91863897D01*
X143089649Y-91837912D01*
X143127064Y-91815486D01*
X143166497Y-91796836D01*
X143207568Y-91782140D01*
X143249882Y-91771541D01*
X143293031Y-91765140D01*
X143336600Y-91763000D01*
X144225600Y-91763000D01*
X144269169Y-91765140D01*
X144269169Y-91765140D01*
G37*
D15*
G04 #@! TD*
G04 #@! TO.P,SV1,7*
G04 #@! TO.N,/DO_MISO*
X143781100Y-93152000D03*
D14*
G04 #@! TO.N,/SCLK'*
G04 #@! TO.C,SV1*
G36*
X146809169Y-91765140D02*
X146852318Y-91771541D01*
X146894632Y-91782140D01*
X146935703Y-91796836D01*
X146975136Y-91815486D01*
X147012551Y-91837912D01*
X147047588Y-91863897D01*
X147079909Y-91893191D01*
X147109203Y-91925512D01*
X147135188Y-91960549D01*
X147157614Y-91997964D01*
X147176264Y-92037397D01*
X147190960Y-92078468D01*
X147201559Y-92120782D01*
X147207960Y-92163931D01*
X147210100Y-92207500D01*
X147210100Y-94096500D01*
X147207960Y-94140069D01*
X147201559Y-94183218D01*
X147190960Y-94225532D01*
X147176264Y-94266603D01*
X147157614Y-94306036D01*
X147135188Y-94343451D01*
X147109203Y-94378488D01*
X147079909Y-94410809D01*
X147047588Y-94440103D01*
X147012551Y-94466088D01*
X146975136Y-94488514D01*
X146935703Y-94507164D01*
X146894632Y-94521860D01*
X146852318Y-94532459D01*
X146809169Y-94538860D01*
X146765600Y-94541000D01*
X145876600Y-94541000D01*
X145833031Y-94538860D01*
X145789882Y-94532459D01*
X145747568Y-94521860D01*
X145706497Y-94507164D01*
X145667064Y-94488514D01*
X145629649Y-94466088D01*
X145594612Y-94440103D01*
X145562291Y-94410809D01*
X145532997Y-94378488D01*
X145507012Y-94343451D01*
X145484586Y-94306036D01*
X145465936Y-94266603D01*
X145451240Y-94225532D01*
X145440641Y-94183218D01*
X145434240Y-94140069D01*
X145432100Y-94096500D01*
X145432100Y-92207500D01*
X145434240Y-92163931D01*
X145440641Y-92120782D01*
X145451240Y-92078468D01*
X145465936Y-92037397D01*
X145484586Y-91997964D01*
X145507012Y-91960549D01*
X145532997Y-91925512D01*
X145562291Y-91893191D01*
X145594612Y-91863897D01*
X145629649Y-91837912D01*
X145667064Y-91815486D01*
X145706497Y-91796836D01*
X145747568Y-91782140D01*
X145789882Y-91771541D01*
X145833031Y-91765140D01*
X145876600Y-91763000D01*
X146765600Y-91763000D01*
X146809169Y-91765140D01*
X146809169Y-91765140D01*
G37*
D15*
G04 #@! TD*
G04 #@! TO.P,SV1,6*
G04 #@! TO.N,/SCLK'*
X146321100Y-93152000D03*
D14*
G04 #@! TO.N,/+5V*
G04 #@! TO.C,SV1*
G36*
X149349169Y-91765140D02*
X149392318Y-91771541D01*
X149434632Y-91782140D01*
X149475703Y-91796836D01*
X149515136Y-91815486D01*
X149552551Y-91837912D01*
X149587588Y-91863897D01*
X149619909Y-91893191D01*
X149649203Y-91925512D01*
X149675188Y-91960549D01*
X149697614Y-91997964D01*
X149716264Y-92037397D01*
X149730960Y-92078468D01*
X149741559Y-92120782D01*
X149747960Y-92163931D01*
X149750100Y-92207500D01*
X149750100Y-94096500D01*
X149747960Y-94140069D01*
X149741559Y-94183218D01*
X149730960Y-94225532D01*
X149716264Y-94266603D01*
X149697614Y-94306036D01*
X149675188Y-94343451D01*
X149649203Y-94378488D01*
X149619909Y-94410809D01*
X149587588Y-94440103D01*
X149552551Y-94466088D01*
X149515136Y-94488514D01*
X149475703Y-94507164D01*
X149434632Y-94521860D01*
X149392318Y-94532459D01*
X149349169Y-94538860D01*
X149305600Y-94541000D01*
X148416600Y-94541000D01*
X148373031Y-94538860D01*
X148329882Y-94532459D01*
X148287568Y-94521860D01*
X148246497Y-94507164D01*
X148207064Y-94488514D01*
X148169649Y-94466088D01*
X148134612Y-94440103D01*
X148102291Y-94410809D01*
X148072997Y-94378488D01*
X148047012Y-94343451D01*
X148024586Y-94306036D01*
X148005936Y-94266603D01*
X147991240Y-94225532D01*
X147980641Y-94183218D01*
X147974240Y-94140069D01*
X147972100Y-94096500D01*
X147972100Y-92207500D01*
X147974240Y-92163931D01*
X147980641Y-92120782D01*
X147991240Y-92078468D01*
X148005936Y-92037397D01*
X148024586Y-91997964D01*
X148047012Y-91960549D01*
X148072997Y-91925512D01*
X148102291Y-91893191D01*
X148134612Y-91863897D01*
X148169649Y-91837912D01*
X148207064Y-91815486D01*
X148246497Y-91796836D01*
X148287568Y-91782140D01*
X148329882Y-91771541D01*
X148373031Y-91765140D01*
X148416600Y-91763000D01*
X149305600Y-91763000D01*
X149349169Y-91765140D01*
X149349169Y-91765140D01*
G37*
D15*
G04 #@! TD*
G04 #@! TO.P,SV1,5*
G04 #@! TO.N,/+5V*
X148861100Y-93152000D03*
D14*
G04 #@! TO.N,GND*
G04 #@! TO.C,SV1*
G36*
X151889169Y-91765140D02*
X151932318Y-91771541D01*
X151974632Y-91782140D01*
X152015703Y-91796836D01*
X152055136Y-91815486D01*
X152092551Y-91837912D01*
X152127588Y-91863897D01*
X152159909Y-91893191D01*
X152189203Y-91925512D01*
X152215188Y-91960549D01*
X152237614Y-91997964D01*
X152256264Y-92037397D01*
X152270960Y-92078468D01*
X152281559Y-92120782D01*
X152287960Y-92163931D01*
X152290100Y-92207500D01*
X152290100Y-94096500D01*
X152287960Y-94140069D01*
X152281559Y-94183218D01*
X152270960Y-94225532D01*
X152256264Y-94266603D01*
X152237614Y-94306036D01*
X152215188Y-94343451D01*
X152189203Y-94378488D01*
X152159909Y-94410809D01*
X152127588Y-94440103D01*
X152092551Y-94466088D01*
X152055136Y-94488514D01*
X152015703Y-94507164D01*
X151974632Y-94521860D01*
X151932318Y-94532459D01*
X151889169Y-94538860D01*
X151845600Y-94541000D01*
X150956600Y-94541000D01*
X150913031Y-94538860D01*
X150869882Y-94532459D01*
X150827568Y-94521860D01*
X150786497Y-94507164D01*
X150747064Y-94488514D01*
X150709649Y-94466088D01*
X150674612Y-94440103D01*
X150642291Y-94410809D01*
X150612997Y-94378488D01*
X150587012Y-94343451D01*
X150564586Y-94306036D01*
X150545936Y-94266603D01*
X150531240Y-94225532D01*
X150520641Y-94183218D01*
X150514240Y-94140069D01*
X150512100Y-94096500D01*
X150512100Y-92207500D01*
X150514240Y-92163931D01*
X150520641Y-92120782D01*
X150531240Y-92078468D01*
X150545936Y-92037397D01*
X150564586Y-91997964D01*
X150587012Y-91960549D01*
X150612997Y-91925512D01*
X150642291Y-91893191D01*
X150674612Y-91863897D01*
X150709649Y-91837912D01*
X150747064Y-91815486D01*
X150786497Y-91796836D01*
X150827568Y-91782140D01*
X150869882Y-91771541D01*
X150913031Y-91765140D01*
X150956600Y-91763000D01*
X151845600Y-91763000D01*
X151889169Y-91765140D01*
X151889169Y-91765140D01*
G37*
D15*
G04 #@! TD*
G04 #@! TO.P,SV1,4*
G04 #@! TO.N,GND*
X151401100Y-93152000D03*
D14*
G04 #@! TO.N,/MOSI'*
G04 #@! TO.C,SV1*
G36*
X154429169Y-91765140D02*
X154472318Y-91771541D01*
X154514632Y-91782140D01*
X154555703Y-91796836D01*
X154595136Y-91815486D01*
X154632551Y-91837912D01*
X154667588Y-91863897D01*
X154699909Y-91893191D01*
X154729203Y-91925512D01*
X154755188Y-91960549D01*
X154777614Y-91997964D01*
X154796264Y-92037397D01*
X154810960Y-92078468D01*
X154821559Y-92120782D01*
X154827960Y-92163931D01*
X154830100Y-92207500D01*
X154830100Y-94096500D01*
X154827960Y-94140069D01*
X154821559Y-94183218D01*
X154810960Y-94225532D01*
X154796264Y-94266603D01*
X154777614Y-94306036D01*
X154755188Y-94343451D01*
X154729203Y-94378488D01*
X154699909Y-94410809D01*
X154667588Y-94440103D01*
X154632551Y-94466088D01*
X154595136Y-94488514D01*
X154555703Y-94507164D01*
X154514632Y-94521860D01*
X154472318Y-94532459D01*
X154429169Y-94538860D01*
X154385600Y-94541000D01*
X153496600Y-94541000D01*
X153453031Y-94538860D01*
X153409882Y-94532459D01*
X153367568Y-94521860D01*
X153326497Y-94507164D01*
X153287064Y-94488514D01*
X153249649Y-94466088D01*
X153214612Y-94440103D01*
X153182291Y-94410809D01*
X153152997Y-94378488D01*
X153127012Y-94343451D01*
X153104586Y-94306036D01*
X153085936Y-94266603D01*
X153071240Y-94225532D01*
X153060641Y-94183218D01*
X153054240Y-94140069D01*
X153052100Y-94096500D01*
X153052100Y-92207500D01*
X153054240Y-92163931D01*
X153060641Y-92120782D01*
X153071240Y-92078468D01*
X153085936Y-92037397D01*
X153104586Y-91997964D01*
X153127012Y-91960549D01*
X153152997Y-91925512D01*
X153182291Y-91893191D01*
X153214612Y-91863897D01*
X153249649Y-91837912D01*
X153287064Y-91815486D01*
X153326497Y-91796836D01*
X153367568Y-91782140D01*
X153409882Y-91771541D01*
X153453031Y-91765140D01*
X153496600Y-91763000D01*
X154385600Y-91763000D01*
X154429169Y-91765140D01*
X154429169Y-91765140D01*
G37*
D15*
G04 #@! TD*
G04 #@! TO.P,SV1,3*
G04 #@! TO.N,/MOSI'*
X153941100Y-93152000D03*
D14*
G04 #@! TO.N,/~SS_SD*
G04 #@! TO.C,SV1*
G36*
X156969169Y-91765140D02*
X157012318Y-91771541D01*
X157054632Y-91782140D01*
X157095703Y-91796836D01*
X157135136Y-91815486D01*
X157172551Y-91837912D01*
X157207588Y-91863897D01*
X157239909Y-91893191D01*
X157269203Y-91925512D01*
X157295188Y-91960549D01*
X157317614Y-91997964D01*
X157336264Y-92037397D01*
X157350960Y-92078468D01*
X157361559Y-92120782D01*
X157367960Y-92163931D01*
X157370100Y-92207500D01*
X157370100Y-94096500D01*
X157367960Y-94140069D01*
X157361559Y-94183218D01*
X157350960Y-94225532D01*
X157336264Y-94266603D01*
X157317614Y-94306036D01*
X157295188Y-94343451D01*
X157269203Y-94378488D01*
X157239909Y-94410809D01*
X157207588Y-94440103D01*
X157172551Y-94466088D01*
X157135136Y-94488514D01*
X157095703Y-94507164D01*
X157054632Y-94521860D01*
X157012318Y-94532459D01*
X156969169Y-94538860D01*
X156925600Y-94541000D01*
X156036600Y-94541000D01*
X155993031Y-94538860D01*
X155949882Y-94532459D01*
X155907568Y-94521860D01*
X155866497Y-94507164D01*
X155827064Y-94488514D01*
X155789649Y-94466088D01*
X155754612Y-94440103D01*
X155722291Y-94410809D01*
X155692997Y-94378488D01*
X155667012Y-94343451D01*
X155644586Y-94306036D01*
X155625936Y-94266603D01*
X155611240Y-94225532D01*
X155600641Y-94183218D01*
X155594240Y-94140069D01*
X155592100Y-94096500D01*
X155592100Y-92207500D01*
X155594240Y-92163931D01*
X155600641Y-92120782D01*
X155611240Y-92078468D01*
X155625936Y-92037397D01*
X155644586Y-91997964D01*
X155667012Y-91960549D01*
X155692997Y-91925512D01*
X155722291Y-91893191D01*
X155754612Y-91863897D01*
X155789649Y-91837912D01*
X155827064Y-91815486D01*
X155866497Y-91796836D01*
X155907568Y-91782140D01*
X155949882Y-91771541D01*
X155993031Y-91765140D01*
X156036600Y-91763000D01*
X156925600Y-91763000D01*
X156969169Y-91765140D01*
X156969169Y-91765140D01*
G37*
D15*
G04 #@! TD*
G04 #@! TO.P,SV1,2*
G04 #@! TO.N,/~SS_SD*
X156481100Y-93152000D03*
D14*
G04 #@! TO.N,/~SS_FLASH*
G04 #@! TO.C,SV1*
G36*
X159509169Y-91765140D02*
X159552318Y-91771541D01*
X159594632Y-91782140D01*
X159635703Y-91796836D01*
X159675136Y-91815486D01*
X159712551Y-91837912D01*
X159747588Y-91863897D01*
X159779909Y-91893191D01*
X159809203Y-91925512D01*
X159835188Y-91960549D01*
X159857614Y-91997964D01*
X159876264Y-92037397D01*
X159890960Y-92078468D01*
X159901559Y-92120782D01*
X159907960Y-92163931D01*
X159910100Y-92207500D01*
X159910100Y-94096500D01*
X159907960Y-94140069D01*
X159901559Y-94183218D01*
X159890960Y-94225532D01*
X159876264Y-94266603D01*
X159857614Y-94306036D01*
X159835188Y-94343451D01*
X159809203Y-94378488D01*
X159779909Y-94410809D01*
X159747588Y-94440103D01*
X159712551Y-94466088D01*
X159675136Y-94488514D01*
X159635703Y-94507164D01*
X159594632Y-94521860D01*
X159552318Y-94532459D01*
X159509169Y-94538860D01*
X159465600Y-94541000D01*
X158576600Y-94541000D01*
X158533031Y-94538860D01*
X158489882Y-94532459D01*
X158447568Y-94521860D01*
X158406497Y-94507164D01*
X158367064Y-94488514D01*
X158329649Y-94466088D01*
X158294612Y-94440103D01*
X158262291Y-94410809D01*
X158232997Y-94378488D01*
X158207012Y-94343451D01*
X158184586Y-94306036D01*
X158165936Y-94266603D01*
X158151240Y-94225532D01*
X158140641Y-94183218D01*
X158134240Y-94140069D01*
X158132100Y-94096500D01*
X158132100Y-92207500D01*
X158134240Y-92163931D01*
X158140641Y-92120782D01*
X158151240Y-92078468D01*
X158165936Y-92037397D01*
X158184586Y-91997964D01*
X158207012Y-91960549D01*
X158232997Y-91925512D01*
X158262291Y-91893191D01*
X158294612Y-91863897D01*
X158329649Y-91837912D01*
X158367064Y-91815486D01*
X158406497Y-91796836D01*
X158447568Y-91782140D01*
X158489882Y-91771541D01*
X158533031Y-91765140D01*
X158576600Y-91763000D01*
X159465600Y-91763000D01*
X159509169Y-91765140D01*
X159509169Y-91765140D01*
G37*
D15*
G04 #@! TD*
G04 #@! TO.P,SV1,1*
G04 #@! TO.N,/~SS_FLASH*
X159021100Y-93152000D03*
D16*
G04 #@! TO.N,*
X129811100Y-88808600D03*
X167149100Y-88808600D03*
X129811100Y-121193600D03*
D17*
G04 #@! TO.N,GND*
X164101100Y-93888600D03*
G04 #@! TO.N,+3V3*
X145686100Y-100873600D03*
D18*
X168546100Y-99603600D03*
D17*
G04 #@! TO.N,/DI_MOSI*
X158386100Y-108493600D03*
G04 #@! TO.N,/SCLK*
X153560100Y-108239600D03*
G04 #@! TO.N,/DO_MISO*
X143400100Y-96809600D03*
X143400100Y-100873600D03*
G04 #@! TO.N,Net-(R10-PadP$1)*
X143400100Y-109001600D03*
D19*
G04 #@! TO.N,/+5V*
X147591100Y-88173600D03*
D17*
X136224600Y-88173600D03*
X142511100Y-88173600D03*
G04 #@! TO.N,/~SS_FLASH*
X152036100Y-98968600D03*
G04 #@! TO.N,/~CS1*
X149496100Y-98968600D03*
D18*
X159783100Y-95793600D03*
G04 #@! TD*
D20*
G04 #@! TO.N,GND*
X164101100Y-93888600D02*
X164101100Y-94396600D01*
X164101100Y-94396600D02*
X164736100Y-95031600D01*
X164736100Y-95031600D02*
X164736100Y-96273600D01*
X163339100Y-99095600D02*
X159021100Y-99095600D01*
X164736100Y-97698600D02*
X163339100Y-99095600D01*
X164736100Y-96273600D02*
X164736100Y-97698600D01*
X151401100Y-93152000D02*
X151401100Y-91983600D01*
G04 #@! TO.N,+3V3*
X148099100Y-101381600D02*
X159021100Y-101381600D01*
X145686100Y-100873600D02*
X148099100Y-101381600D01*
X159021100Y-101381600D02*
X159021100Y-102143600D01*
X159021100Y-102143600D02*
X159656100Y-102778600D01*
X159656100Y-102778600D02*
X160771100Y-102778600D01*
X160771100Y-102778600D02*
X160926100Y-102933600D01*
X160418100Y-104810600D02*
X160418100Y-105318600D01*
X159656100Y-104048600D02*
X160418100Y-104810600D01*
X159656100Y-102778600D02*
X159656100Y-104048600D01*
X161688100Y-100111600D02*
X166641100Y-100111600D01*
X160926100Y-100873600D02*
X161688100Y-100111600D01*
X160926100Y-102933600D02*
X160926100Y-100873600D01*
X166641100Y-100111600D02*
X167784100Y-100111600D01*
X167784100Y-100111600D02*
X168546100Y-99603600D01*
X146448100Y-101635600D02*
X146448100Y-106207600D01*
D21*
X145686100Y-100873600D02*
X146448100Y-101635600D01*
D20*
G04 #@! TO.N,/DI_MOSI*
X158386100Y-108493600D02*
X161561100Y-108493600D01*
X161561100Y-108493600D02*
X164736100Y-105953600D01*
X164736100Y-105953600D02*
X165371100Y-105318600D01*
X165371100Y-105318600D02*
X165371100Y-104048600D01*
X165371100Y-104048600D02*
X165371100Y-103568600D01*
X165371100Y-103568600D02*
X164736100Y-102933600D01*
G04 #@! TO.N,/SCLK*
X163466100Y-101635600D02*
X163466100Y-102933600D01*
X163847100Y-101254600D02*
X163466100Y-101635600D01*
X165752100Y-101254600D02*
X163847100Y-101254600D01*
X166641100Y-102143600D02*
X165752100Y-101254600D01*
X166641100Y-109763600D02*
X166641100Y-102143600D01*
X165371100Y-111033600D02*
X166641100Y-109763600D01*
X154576100Y-111033600D02*
X165371100Y-111033600D01*
X153941100Y-110398600D02*
X154576100Y-111033600D01*
X153941100Y-108620600D02*
X153941100Y-110398600D01*
X153560100Y-108239600D02*
X153941100Y-108620600D01*
G04 #@! TO.N,/DO_MISO*
X162196100Y-91348600D02*
X162196100Y-96273600D01*
X161053100Y-89570600D02*
X162196100Y-91348600D01*
X145686100Y-89570600D02*
X161053100Y-89570600D01*
X143781100Y-91983600D02*
X145686100Y-89570600D01*
X143781100Y-91983600D02*
X143781100Y-93053600D01*
X143781100Y-93152000D02*
X143781100Y-91983600D01*
X143400100Y-100873600D02*
X143400100Y-96809600D01*
G04 #@! TO.N,Net-(R10-PadP$1)*
X143400100Y-109001600D02*
X146448100Y-108493600D01*
X142003100Y-107731600D02*
X142003100Y-105318600D01*
X143400100Y-109001600D02*
X142003100Y-107731600D01*
G04 #@! TO.N,/+5V*
X157116100Y-86903600D02*
X159021100Y-88300600D01*
X148861100Y-86903600D02*
X157116100Y-86903600D01*
X147591100Y-88173600D02*
X148861100Y-86903600D01*
D21*
X136224600Y-88173600D02*
X142511100Y-88173600D01*
D20*
G04 #@! TO.N,/~SS_FLASH*
X159021100Y-93152000D02*
X159021100Y-91602600D01*
X152036100Y-98968600D02*
X155211100Y-98968600D01*
X155211100Y-98968600D02*
X159021100Y-93888600D01*
X159021100Y-93888600D02*
X159021100Y-93152000D01*
G04 #@! TO.N,/~CS1*
X160926100Y-95793600D02*
X160926100Y-96273600D01*
X160926100Y-95793600D02*
X159783100Y-95793600D01*
X160926100Y-95793600D02*
X160926100Y-96273600D01*
X160926100Y-91221600D02*
X160926100Y-95793600D01*
X149496100Y-95158600D02*
X150131100Y-94523600D01*
X149496100Y-98968600D02*
X149496100Y-95158600D01*
X150131100Y-94523600D02*
X150114000Y-91694000D01*
X150114000Y-91694000D02*
X151401100Y-90459600D01*
X151401100Y-90459600D02*
X160291100Y-90459600D01*
X160291100Y-90459600D02*
X160926100Y-91221600D01*
G04 #@! TO.N,Net-(IC3-Pad3)*
X166641100Y-94523600D02*
X166641100Y-97825600D01*
X164736100Y-92618600D02*
X166641100Y-94523600D01*
X163466100Y-92618600D02*
X164736100Y-92618600D01*
X162831100Y-93253600D02*
X163466100Y-92618600D01*
X162831100Y-94523600D02*
X162831100Y-93253600D01*
X163466100Y-95158600D02*
X162831100Y-94523600D01*
X163466100Y-96273600D02*
X163466100Y-95158600D01*
G04 #@! TO.N,Net-(IC3-Pad7)*
X162704100Y-105318600D02*
X162704100Y-104556600D01*
X162704100Y-104556600D02*
X162196100Y-104048600D01*
X162196100Y-104048600D02*
X162196100Y-102933600D01*
G04 #@! TO.N,/~CDI*
X142003100Y-99984600D02*
X141215700Y-99197200D01*
X142003100Y-103032600D02*
X142003100Y-99984600D01*
X141215700Y-99197200D02*
X141241100Y-99197200D01*
X141241100Y-99197200D02*
X141241100Y-93152000D01*
G04 #@! TD*
M02*
