G04 #@! TF.GenerationSoftware,KiCad,Pcbnew,(5.0.2)-1*
G04 #@! TF.CreationDate,2019-04-22T11:09:00+04:00*
G04 #@! TF.ProjectId,SD_CARD_and_SPI_FLASH_v2.2,53445f43-4152-4445-9f61-6e645f535049,rev?*
G04 #@! TF.SameCoordinates,Original*
G04 #@! TF.FileFunction,Soldermask,Top*
G04 #@! TF.FilePolarity,Negative*
%FSLAX46Y46*%
G04 Gerber Fmt 4.6, Leading zero omitted, Abs format (unit mm)*
G04 Created by KiCad (PCBNEW (5.0.2)-1) date 22/04/2019 11:09:00*
%MOMM*%
%LPD*%
G01*
G04 APERTURE LIST*
%ADD10C,0.100000*%
G04 APERTURE END LIST*
D10*
G36*
X167326900Y-123784400D02*
X165955300Y-123784400D01*
X165955300Y-121142800D01*
X167326900Y-121142800D01*
X167326900Y-123784400D01*
X167326900Y-123784400D01*
G37*
G36*
X140148900Y-123784400D02*
X138777300Y-123784400D01*
X138777300Y-121142800D01*
X140148900Y-121142800D01*
X140148900Y-123784400D01*
X140148900Y-123784400D01*
G37*
G36*
X162825328Y-108691303D02*
X162980200Y-108755453D01*
X163119581Y-108848585D01*
X163238115Y-108967119D01*
X163331247Y-109106500D01*
X163395397Y-109261372D01*
X163428100Y-109425784D01*
X163428100Y-109593416D01*
X163395397Y-109757828D01*
X163331247Y-109912700D01*
X163238115Y-110052081D01*
X163119581Y-110170615D01*
X162980200Y-110263747D01*
X162825328Y-110327897D01*
X162660916Y-110360600D01*
X162493284Y-110360600D01*
X162328872Y-110327897D01*
X162174000Y-110263747D01*
X162034619Y-110170615D01*
X161916085Y-110052081D01*
X161822953Y-109912700D01*
X161758803Y-109757828D01*
X161726100Y-109593416D01*
X161726100Y-109425784D01*
X161758803Y-109261372D01*
X161822953Y-109106500D01*
X161916085Y-108967119D01*
X162034619Y-108848585D01*
X162174000Y-108755453D01*
X162328872Y-108691303D01*
X162493284Y-108658600D01*
X162660916Y-108658600D01*
X162825328Y-108691303D01*
X162825328Y-108691303D01*
G37*
G36*
X141670405Y-108931696D02*
X141779780Y-108977000D01*
X141878218Y-109042775D01*
X141961925Y-109126482D01*
X142027700Y-109224920D01*
X142073004Y-109334295D01*
X142096100Y-109450406D01*
X142096100Y-109568794D01*
X142073004Y-109684905D01*
X142027700Y-109794280D01*
X141961925Y-109892718D01*
X141878218Y-109976425D01*
X141779780Y-110042200D01*
X141670405Y-110087504D01*
X141554294Y-110110600D01*
X141435906Y-110110600D01*
X141319795Y-110087504D01*
X141210420Y-110042200D01*
X141111982Y-109976425D01*
X141028275Y-109892718D01*
X140962500Y-109794280D01*
X140917196Y-109684905D01*
X140894100Y-109568794D01*
X140894100Y-109450406D01*
X140917196Y-109334295D01*
X140962500Y-109224920D01*
X141028275Y-109126482D01*
X141111982Y-109042775D01*
X141210420Y-108977000D01*
X141319795Y-108931696D01*
X141435906Y-108908600D01*
X141554294Y-108908600D01*
X141670405Y-108931696D01*
X141670405Y-108931696D01*
G37*
G36*
X141139500Y-107223600D02*
X140273900Y-107223600D01*
X140249514Y-107226002D01*
X140226065Y-107233115D01*
X140204454Y-107244666D01*
X140185512Y-107260212D01*
X140169966Y-107279154D01*
X140158415Y-107300765D01*
X140151302Y-107324214D01*
X140148900Y-107348600D01*
X140148900Y-109814400D01*
X138777300Y-109814400D01*
X138777300Y-107172800D01*
X140201700Y-107172800D01*
X140226086Y-107170398D01*
X140249535Y-107163285D01*
X140271146Y-107151734D01*
X140290088Y-107136188D01*
X140305634Y-107117246D01*
X140317185Y-107095635D01*
X140324298Y-107072186D01*
X140326700Y-107047800D01*
X140326700Y-105699600D01*
X141139500Y-105699600D01*
X141139500Y-107223600D01*
X141139500Y-107223600D01*
G37*
G36*
X165548900Y-109814400D02*
X164177300Y-109814400D01*
X164177300Y-107172800D01*
X165548900Y-107172800D01*
X165548900Y-109814400D01*
X165548900Y-109814400D01*
G37*
G36*
X142409500Y-107223600D02*
X141596700Y-107223600D01*
X141596700Y-105699600D01*
X142409500Y-105699600D01*
X142409500Y-107223600D01*
X142409500Y-107223600D01*
G37*
G36*
X143679500Y-107223600D02*
X142866700Y-107223600D01*
X142866700Y-105699600D01*
X143679500Y-105699600D01*
X143679500Y-107223600D01*
X143679500Y-107223600D01*
G37*
G36*
X145203500Y-107223600D02*
X144390700Y-107223600D01*
X144390700Y-105699600D01*
X145203500Y-105699600D01*
X145203500Y-107223600D01*
X145203500Y-107223600D01*
G37*
G36*
X147743500Y-107223600D02*
X146930700Y-107223600D01*
X146930700Y-105699600D01*
X147743500Y-105699600D01*
X147743500Y-107223600D01*
X147743500Y-107223600D01*
G37*
G36*
X150283500Y-107223600D02*
X149470700Y-107223600D01*
X149470700Y-105699600D01*
X150283500Y-105699600D01*
X150283500Y-107223600D01*
X150283500Y-107223600D01*
G37*
G36*
X152950500Y-106461600D02*
X152948500Y-106461600D01*
X152924114Y-106464002D01*
X152900665Y-106471115D01*
X152879054Y-106482666D01*
X152860112Y-106498212D01*
X152844566Y-106517154D01*
X152833015Y-106538765D01*
X152825902Y-106562214D01*
X152823500Y-106586600D01*
X152823500Y-107223600D01*
X152010700Y-107223600D01*
X152010700Y-105699600D01*
X152012700Y-105699600D01*
X152037086Y-105697198D01*
X152060535Y-105690085D01*
X152082146Y-105678534D01*
X152101088Y-105662988D01*
X152116634Y-105644046D01*
X152128185Y-105622435D01*
X152135298Y-105598986D01*
X152137700Y-105574600D01*
X152137700Y-104937600D01*
X152950500Y-104937600D01*
X152950500Y-106461600D01*
X152950500Y-106461600D01*
G37*
G36*
X155236500Y-105574600D02*
X155238902Y-105598986D01*
X155246015Y-105622435D01*
X155257566Y-105644046D01*
X155273112Y-105662988D01*
X155292054Y-105678534D01*
X155313665Y-105690085D01*
X155337114Y-105697198D01*
X155361500Y-105699600D01*
X155363500Y-105699600D01*
X155363500Y-107223600D01*
X154550700Y-107223600D01*
X154550700Y-106586600D01*
X154548298Y-106562214D01*
X154541185Y-106538765D01*
X154529634Y-106517154D01*
X154514088Y-106498212D01*
X154495146Y-106482666D01*
X154473535Y-106471115D01*
X154450086Y-106464002D01*
X154425700Y-106461600D01*
X154423700Y-106461600D01*
X154423700Y-104937600D01*
X155236500Y-104937600D01*
X155236500Y-105574600D01*
X155236500Y-105574600D01*
G37*
G36*
X157903500Y-107223600D02*
X157090700Y-107223600D01*
X157090700Y-105699600D01*
X157903500Y-105699600D01*
X157903500Y-107223600D01*
X157903500Y-107223600D01*
G37*
G36*
X160443500Y-107223600D02*
X159630700Y-107223600D01*
X159630700Y-105699600D01*
X160443500Y-105699600D01*
X160443500Y-107223600D01*
X160443500Y-107223600D01*
G37*
G36*
X162983500Y-107223600D02*
X162170700Y-107223600D01*
X162170700Y-105699600D01*
X162983500Y-105699600D01*
X162983500Y-107223600D01*
X162983500Y-107223600D01*
G37*
G36*
X144060500Y-104175600D02*
X143247700Y-104175600D01*
X143247700Y-102651600D01*
X144060500Y-102651600D01*
X144060500Y-104175600D01*
X144060500Y-104175600D01*
G37*
G36*
X141774500Y-104175600D02*
X140961700Y-104175600D01*
X140961700Y-102651600D01*
X141774500Y-102651600D01*
X141774500Y-104175600D01*
X141774500Y-104175600D01*
G37*
G36*
X139463100Y-103947000D02*
X137939100Y-103947000D01*
X137939100Y-103134200D01*
X139463100Y-103134200D01*
X139463100Y-103947000D01*
X139463100Y-103947000D01*
G37*
G36*
X152417100Y-103743800D02*
X151655100Y-103743800D01*
X151655100Y-101610200D01*
X152417100Y-101610200D01*
X152417100Y-103743800D01*
X152417100Y-103743800D01*
G37*
G36*
X157497100Y-103743800D02*
X156735100Y-103743800D01*
X156735100Y-101610200D01*
X157497100Y-101610200D01*
X157497100Y-103743800D01*
X157497100Y-103743800D01*
G37*
G36*
X153687100Y-103743800D02*
X152925100Y-103743800D01*
X152925100Y-101610200D01*
X153687100Y-101610200D01*
X153687100Y-103743800D01*
X153687100Y-103743800D01*
G37*
G36*
X154957100Y-103743800D02*
X154195100Y-103743800D01*
X154195100Y-101610200D01*
X154957100Y-101610200D01*
X154957100Y-103743800D01*
X154957100Y-103743800D01*
G37*
G36*
X156227100Y-103743800D02*
X155465100Y-103743800D01*
X155465100Y-101610200D01*
X156227100Y-101610200D01*
X156227100Y-103743800D01*
X156227100Y-103743800D01*
G37*
G36*
X149877100Y-103743800D02*
X149115100Y-103743800D01*
X149115100Y-101610200D01*
X149877100Y-101610200D01*
X149877100Y-103743800D01*
X149877100Y-103743800D01*
G37*
G36*
X148607100Y-103743800D02*
X147845100Y-103743800D01*
X147845100Y-101610200D01*
X148607100Y-101610200D01*
X148607100Y-103743800D01*
X148607100Y-103743800D01*
G37*
G36*
X151147100Y-103743800D02*
X150385100Y-103743800D01*
X150385100Y-101610200D01*
X151147100Y-101610200D01*
X151147100Y-103743800D01*
X151147100Y-103743800D01*
G37*
G36*
X137935065Y-100838685D02*
X137958514Y-100845798D01*
X137982900Y-100848200D01*
X139463100Y-100848200D01*
X139463100Y-101661000D01*
X137939100Y-101661000D01*
X137939100Y-100881400D01*
X137936698Y-100857014D01*
X137930378Y-100836180D01*
X137935065Y-100838685D01*
X137935065Y-100838685D01*
G37*
G36*
X137857900Y-100723200D02*
X137860302Y-100747586D01*
X137866622Y-100768420D01*
X137861935Y-100765915D01*
X137838486Y-100758802D01*
X137814100Y-100756400D01*
X133956300Y-100756400D01*
X133956300Y-98654800D01*
X137857900Y-98654800D01*
X137857900Y-100723200D01*
X137857900Y-100723200D01*
G37*
G36*
X160611900Y-99134400D02*
X159010300Y-99134400D01*
X159010300Y-97532800D01*
X160611900Y-97532800D01*
X160611900Y-99134400D01*
X160611900Y-99134400D01*
G37*
G36*
X164111900Y-99134400D02*
X162510300Y-99134400D01*
X162510300Y-97532800D01*
X164111900Y-97532800D01*
X164111900Y-99134400D01*
X164111900Y-99134400D01*
G37*
G36*
X168190500Y-99095600D02*
X167377700Y-99095600D01*
X167377700Y-97571600D01*
X168190500Y-97571600D01*
X168190500Y-99095600D01*
X168190500Y-99095600D01*
G37*
G36*
X165904500Y-99095600D02*
X165091700Y-99095600D01*
X165091700Y-97571600D01*
X165904500Y-97571600D01*
X165904500Y-99095600D01*
X165904500Y-99095600D01*
G37*
G36*
X154957100Y-97597000D02*
X154195100Y-97597000D01*
X154195100Y-95463400D01*
X154957100Y-95463400D01*
X154957100Y-97597000D01*
X154957100Y-97597000D01*
G37*
G36*
X149877100Y-97597000D02*
X149115100Y-97597000D01*
X149115100Y-95463400D01*
X149877100Y-95463400D01*
X149877100Y-97597000D01*
X149877100Y-97597000D01*
G37*
G36*
X152417100Y-97597000D02*
X151655100Y-97597000D01*
X151655100Y-95463400D01*
X152417100Y-95463400D01*
X152417100Y-97597000D01*
X152417100Y-97597000D01*
G37*
G36*
X153687100Y-97597000D02*
X152925100Y-97597000D01*
X152925100Y-95463400D01*
X153687100Y-95463400D01*
X153687100Y-97597000D01*
X153687100Y-97597000D01*
G37*
G36*
X156227100Y-97597000D02*
X155465100Y-97597000D01*
X155465100Y-95463400D01*
X156227100Y-95463400D01*
X156227100Y-97597000D01*
X156227100Y-97597000D01*
G37*
G36*
X157497100Y-97597000D02*
X156735100Y-97597000D01*
X156735100Y-95463400D01*
X157497100Y-95463400D01*
X157497100Y-97597000D01*
X157497100Y-97597000D01*
G37*
G36*
X151147100Y-97597000D02*
X150385100Y-97597000D01*
X150385100Y-95463400D01*
X151147100Y-95463400D01*
X151147100Y-97597000D01*
X151147100Y-97597000D01*
G37*
G36*
X148607100Y-97597000D02*
X147845100Y-97597000D01*
X147845100Y-95463400D01*
X148607100Y-95463400D01*
X148607100Y-97597000D01*
X148607100Y-97597000D01*
G37*
G36*
X160611900Y-96594400D02*
X159010300Y-96594400D01*
X159010300Y-94992800D01*
X160611900Y-94992800D01*
X160611900Y-96594400D01*
X160611900Y-96594400D01*
G37*
G36*
X164111900Y-96594400D02*
X162510300Y-96594400D01*
X162510300Y-94992800D01*
X164111900Y-94992800D01*
X164111900Y-96594400D01*
X164111900Y-96594400D01*
G37*
G36*
X168190500Y-96555600D02*
X167377700Y-96555600D01*
X167377700Y-95031600D01*
X168190500Y-95031600D01*
X168190500Y-96555600D01*
X168190500Y-96555600D01*
G37*
G36*
X165904500Y-96555600D02*
X165091700Y-96555600D01*
X165091700Y-95031600D01*
X165904500Y-95031600D01*
X165904500Y-96555600D01*
X165904500Y-96555600D01*
G37*
G36*
X157092863Y-91720621D02*
X157169172Y-91743770D01*
X157239502Y-91781362D01*
X157301148Y-91831952D01*
X157351738Y-91893598D01*
X157389330Y-91963928D01*
X157412479Y-92040237D01*
X157420900Y-92125740D01*
X157420900Y-94178260D01*
X157412479Y-94263763D01*
X157389330Y-94340072D01*
X157351738Y-94410402D01*
X157301148Y-94472048D01*
X157239502Y-94522638D01*
X157169172Y-94560230D01*
X157092863Y-94583379D01*
X157007360Y-94591800D01*
X155954840Y-94591800D01*
X155869337Y-94583379D01*
X155793028Y-94560230D01*
X155722698Y-94522638D01*
X155661052Y-94472048D01*
X155610462Y-94410402D01*
X155572870Y-94340072D01*
X155549721Y-94263763D01*
X155541300Y-94178260D01*
X155541300Y-92125740D01*
X155549721Y-92040237D01*
X155572870Y-91963928D01*
X155610462Y-91893598D01*
X155661052Y-91831952D01*
X155722698Y-91781362D01*
X155793028Y-91743770D01*
X155869337Y-91720621D01*
X155954840Y-91712200D01*
X157007360Y-91712200D01*
X157092863Y-91720621D01*
X157092863Y-91720621D01*
G37*
G36*
X154552863Y-91720621D02*
X154629172Y-91743770D01*
X154699502Y-91781362D01*
X154761148Y-91831952D01*
X154811738Y-91893598D01*
X154849330Y-91963928D01*
X154872479Y-92040237D01*
X154880900Y-92125740D01*
X154880900Y-94178260D01*
X154872479Y-94263763D01*
X154849330Y-94340072D01*
X154811738Y-94410402D01*
X154761148Y-94472048D01*
X154699502Y-94522638D01*
X154629172Y-94560230D01*
X154552863Y-94583379D01*
X154467360Y-94591800D01*
X153414840Y-94591800D01*
X153329337Y-94583379D01*
X153253028Y-94560230D01*
X153182698Y-94522638D01*
X153121052Y-94472048D01*
X153070462Y-94410402D01*
X153032870Y-94340072D01*
X153009721Y-94263763D01*
X153001300Y-94178260D01*
X153001300Y-92125740D01*
X153009721Y-92040237D01*
X153032870Y-91963928D01*
X153070462Y-91893598D01*
X153121052Y-91831952D01*
X153182698Y-91781362D01*
X153253028Y-91743770D01*
X153329337Y-91720621D01*
X153414840Y-91712200D01*
X154467360Y-91712200D01*
X154552863Y-91720621D01*
X154552863Y-91720621D01*
G37*
G36*
X144392863Y-91720621D02*
X144469172Y-91743770D01*
X144539502Y-91781362D01*
X144601148Y-91831952D01*
X144651738Y-91893598D01*
X144689330Y-91963928D01*
X144712479Y-92040237D01*
X144720900Y-92125740D01*
X144720900Y-94178260D01*
X144712479Y-94263763D01*
X144689330Y-94340072D01*
X144651738Y-94410402D01*
X144601148Y-94472048D01*
X144539502Y-94522638D01*
X144469172Y-94560230D01*
X144392863Y-94583379D01*
X144307360Y-94591800D01*
X143254840Y-94591800D01*
X143169337Y-94583379D01*
X143093028Y-94560230D01*
X143022698Y-94522638D01*
X142961052Y-94472048D01*
X142910462Y-94410402D01*
X142872870Y-94340072D01*
X142849721Y-94263763D01*
X142841300Y-94178260D01*
X142841300Y-92125740D01*
X142849721Y-92040237D01*
X142872870Y-91963928D01*
X142910462Y-91893598D01*
X142961052Y-91831952D01*
X143022698Y-91781362D01*
X143093028Y-91743770D01*
X143169337Y-91720621D01*
X143254840Y-91712200D01*
X144307360Y-91712200D01*
X144392863Y-91720621D01*
X144392863Y-91720621D01*
G37*
G36*
X152012863Y-91720621D02*
X152089172Y-91743770D01*
X152159502Y-91781362D01*
X152221148Y-91831952D01*
X152271738Y-91893598D01*
X152309330Y-91963928D01*
X152332479Y-92040237D01*
X152340900Y-92125740D01*
X152340900Y-94178260D01*
X152332479Y-94263763D01*
X152309330Y-94340072D01*
X152271738Y-94410402D01*
X152221148Y-94472048D01*
X152159502Y-94522638D01*
X152089172Y-94560230D01*
X152012863Y-94583379D01*
X151927360Y-94591800D01*
X150874840Y-94591800D01*
X150789337Y-94583379D01*
X150713028Y-94560230D01*
X150642698Y-94522638D01*
X150581052Y-94472048D01*
X150530462Y-94410402D01*
X150492870Y-94340072D01*
X150469721Y-94263763D01*
X150461300Y-94178260D01*
X150461300Y-92125740D01*
X150469721Y-92040237D01*
X150492870Y-91963928D01*
X150530462Y-91893598D01*
X150581052Y-91831952D01*
X150642698Y-91781362D01*
X150713028Y-91743770D01*
X150789337Y-91720621D01*
X150874840Y-91712200D01*
X151927360Y-91712200D01*
X152012863Y-91720621D01*
X152012863Y-91720621D01*
G37*
G36*
X149472863Y-91720621D02*
X149549172Y-91743770D01*
X149619502Y-91781362D01*
X149681148Y-91831952D01*
X149731738Y-91893598D01*
X149769330Y-91963928D01*
X149792479Y-92040237D01*
X149800900Y-92125740D01*
X149800900Y-94178260D01*
X149792479Y-94263763D01*
X149769330Y-94340072D01*
X149731738Y-94410402D01*
X149681148Y-94472048D01*
X149619502Y-94522638D01*
X149549172Y-94560230D01*
X149472863Y-94583379D01*
X149387360Y-94591800D01*
X148334840Y-94591800D01*
X148249337Y-94583379D01*
X148173028Y-94560230D01*
X148102698Y-94522638D01*
X148041052Y-94472048D01*
X147990462Y-94410402D01*
X147952870Y-94340072D01*
X147929721Y-94263763D01*
X147921300Y-94178260D01*
X147921300Y-92125740D01*
X147929721Y-92040237D01*
X147952870Y-91963928D01*
X147990462Y-91893598D01*
X148041052Y-91831952D01*
X148102698Y-91781362D01*
X148173028Y-91743770D01*
X148249337Y-91720621D01*
X148334840Y-91712200D01*
X149387360Y-91712200D01*
X149472863Y-91720621D01*
X149472863Y-91720621D01*
G37*
G36*
X146932863Y-91720621D02*
X147009172Y-91743770D01*
X147079502Y-91781362D01*
X147141148Y-91831952D01*
X147191738Y-91893598D01*
X147229330Y-91963928D01*
X147252479Y-92040237D01*
X147260900Y-92125740D01*
X147260900Y-94178260D01*
X147252479Y-94263763D01*
X147229330Y-94340072D01*
X147191738Y-94410402D01*
X147141148Y-94472048D01*
X147079502Y-94522638D01*
X147009172Y-94560230D01*
X146932863Y-94583379D01*
X146847360Y-94591800D01*
X145794840Y-94591800D01*
X145709337Y-94583379D01*
X145633028Y-94560230D01*
X145562698Y-94522638D01*
X145501052Y-94472048D01*
X145450462Y-94410402D01*
X145412870Y-94340072D01*
X145389721Y-94263763D01*
X145381300Y-94178260D01*
X145381300Y-92125740D01*
X145389721Y-92040237D01*
X145412870Y-91963928D01*
X145450462Y-91893598D01*
X145501052Y-91831952D01*
X145562698Y-91781362D01*
X145633028Y-91743770D01*
X145709337Y-91720621D01*
X145794840Y-91712200D01*
X146847360Y-91712200D01*
X146932863Y-91720621D01*
X146932863Y-91720621D01*
G37*
G36*
X141852863Y-91720621D02*
X141929172Y-91743770D01*
X141999502Y-91781362D01*
X142061148Y-91831952D01*
X142111738Y-91893598D01*
X142149330Y-91963928D01*
X142172479Y-92040237D01*
X142180900Y-92125740D01*
X142180900Y-94178260D01*
X142172479Y-94263763D01*
X142149330Y-94340072D01*
X142111738Y-94410402D01*
X142061148Y-94472048D01*
X141999502Y-94522638D01*
X141929172Y-94560230D01*
X141852863Y-94583379D01*
X141767360Y-94591800D01*
X140714840Y-94591800D01*
X140629337Y-94583379D01*
X140553028Y-94560230D01*
X140482698Y-94522638D01*
X140421052Y-94472048D01*
X140370462Y-94410402D01*
X140332870Y-94340072D01*
X140309721Y-94263763D01*
X140301300Y-94178260D01*
X140301300Y-92125740D01*
X140309721Y-92040237D01*
X140332870Y-91963928D01*
X140370462Y-91893598D01*
X140421052Y-91831952D01*
X140482698Y-91781362D01*
X140553028Y-91743770D01*
X140629337Y-91720621D01*
X140714840Y-91712200D01*
X141767360Y-91712200D01*
X141852863Y-91720621D01*
X141852863Y-91720621D01*
G37*
G36*
X159632863Y-91720621D02*
X159709172Y-91743770D01*
X159779502Y-91781362D01*
X159841148Y-91831952D01*
X159891738Y-91893598D01*
X159929330Y-91963928D01*
X159952479Y-92040237D01*
X159960900Y-92125740D01*
X159960900Y-94178260D01*
X159952479Y-94263763D01*
X159929330Y-94340072D01*
X159891738Y-94410402D01*
X159841148Y-94472048D01*
X159779502Y-94522638D01*
X159709172Y-94560230D01*
X159632863Y-94583379D01*
X159547360Y-94591800D01*
X158494840Y-94591800D01*
X158409337Y-94583379D01*
X158333028Y-94560230D01*
X158262698Y-94522638D01*
X158201052Y-94472048D01*
X158150462Y-94410402D01*
X158112870Y-94340072D01*
X158089721Y-94263763D01*
X158081300Y-94178260D01*
X158081300Y-92125740D01*
X158089721Y-92040237D01*
X158112870Y-91963928D01*
X158150462Y-91893598D01*
X158201052Y-91831952D01*
X158262698Y-91781362D01*
X158333028Y-91743770D01*
X158409337Y-91720621D01*
X158494840Y-91712200D01*
X159547360Y-91712200D01*
X159632863Y-91720621D01*
X159632863Y-91720621D01*
G37*
G36*
X134407900Y-94456400D02*
X132806300Y-94456400D01*
X132806300Y-92354800D01*
X134407900Y-92354800D01*
X134407900Y-94456400D01*
X134407900Y-94456400D01*
G37*
G36*
X136707900Y-94456400D02*
X135106300Y-94456400D01*
X135106300Y-92354800D01*
X136707900Y-92354800D01*
X136707900Y-94456400D01*
X136707900Y-94456400D01*
G37*
G36*
X139007900Y-94456400D02*
X137406300Y-94456400D01*
X137406300Y-92354800D01*
X139007900Y-92354800D01*
X139007900Y-94456400D01*
X139007900Y-94456400D01*
G37*
G36*
X135170500Y-91094600D02*
X134357700Y-91094600D01*
X134357700Y-89570600D01*
X135170500Y-89570600D01*
X135170500Y-91094600D01*
X135170500Y-91094600D01*
G37*
G36*
X137456500Y-91094600D02*
X136643700Y-91094600D01*
X136643700Y-89570600D01*
X137456500Y-89570600D01*
X137456500Y-91094600D01*
X137456500Y-91094600D01*
G37*
G36*
X149394500Y-91094600D02*
X148581700Y-91094600D01*
X148581700Y-89570600D01*
X149394500Y-89570600D01*
X149394500Y-91094600D01*
X149394500Y-91094600D01*
G37*
G36*
X151680500Y-91094600D02*
X150867700Y-91094600D01*
X150867700Y-89570600D01*
X151680500Y-89570600D01*
X151680500Y-91094600D01*
X151680500Y-91094600D01*
G37*
G36*
X152950500Y-88935600D02*
X152137700Y-88935600D01*
X152137700Y-87411600D01*
X152950500Y-87411600D01*
X152950500Y-88935600D01*
X152950500Y-88935600D01*
G37*
G36*
X150664500Y-88935600D02*
X149851700Y-88935600D01*
X149851700Y-87411600D01*
X150664500Y-87411600D01*
X150664500Y-88935600D01*
X150664500Y-88935600D01*
G37*
M02*
