G04 #@! TF.GenerationSoftware,KiCad,Pcbnew,(5.0.2)-1*
G04 #@! TF.CreationDate,2019-04-22T11:09:00+04:00*
G04 #@! TF.ProjectId,SD_CARD_and_SPI_FLASH_v2.2,53445f43-4152-4445-9f61-6e645f535049,rev?*
G04 #@! TF.SameCoordinates,Original*
G04 #@! TF.FileFunction,Soldermask,Bot*
G04 #@! TF.FilePolarity,Negative*
%FSLAX46Y46*%
G04 Gerber Fmt 4.6, Leading zero omitted, Abs format (unit mm)*
G04 Created by KiCad (PCBNEW (5.0.2)-1) date 22/04/2019 11:09:00*
%MOMM*%
%LPD*%
G01*
G04 APERTURE LIST*
%ADD10C,0.100000*%
G04 APERTURE END LIST*
D10*
G36*
X162825328Y-108691303D02*
X162980200Y-108755453D01*
X163119581Y-108848585D01*
X163238115Y-108967119D01*
X163331247Y-109106500D01*
X163395397Y-109261372D01*
X163428100Y-109425784D01*
X163428100Y-109593416D01*
X163395397Y-109757828D01*
X163331247Y-109912700D01*
X163238115Y-110052081D01*
X163119581Y-110170615D01*
X162980200Y-110263747D01*
X162825328Y-110327897D01*
X162660916Y-110360600D01*
X162493284Y-110360600D01*
X162328872Y-110327897D01*
X162174000Y-110263747D01*
X162034619Y-110170615D01*
X161916085Y-110052081D01*
X161822953Y-109912700D01*
X161758803Y-109757828D01*
X161726100Y-109593416D01*
X161726100Y-109425784D01*
X161758803Y-109261372D01*
X161822953Y-109106500D01*
X161916085Y-108967119D01*
X162034619Y-108848585D01*
X162174000Y-108755453D01*
X162328872Y-108691303D01*
X162493284Y-108658600D01*
X162660916Y-108658600D01*
X162825328Y-108691303D01*
X162825328Y-108691303D01*
G37*
G36*
X141670405Y-108931696D02*
X141779780Y-108977000D01*
X141878218Y-109042775D01*
X141961925Y-109126482D01*
X142027700Y-109224920D01*
X142073004Y-109334295D01*
X142096100Y-109450406D01*
X142096100Y-109568794D01*
X142073004Y-109684905D01*
X142027700Y-109794280D01*
X141961925Y-109892718D01*
X141878218Y-109976425D01*
X141779780Y-110042200D01*
X141670405Y-110087504D01*
X141554294Y-110110600D01*
X141435906Y-110110600D01*
X141319795Y-110087504D01*
X141210420Y-110042200D01*
X141111982Y-109976425D01*
X141028275Y-109892718D01*
X140962500Y-109794280D01*
X140917196Y-109684905D01*
X140894100Y-109568794D01*
X140894100Y-109450406D01*
X140917196Y-109334295D01*
X140962500Y-109224920D01*
X141028275Y-109126482D01*
X141111982Y-109042775D01*
X141210420Y-108977000D01*
X141319795Y-108931696D01*
X141435906Y-108908600D01*
X141554294Y-108908600D01*
X141670405Y-108931696D01*
X141670405Y-108931696D01*
G37*
G36*
X147210100Y-108900000D02*
X145686100Y-108900000D01*
X145686100Y-108087200D01*
X147210100Y-108087200D01*
X147210100Y-108900000D01*
X147210100Y-108900000D01*
G37*
G36*
X147210100Y-106614000D02*
X145686100Y-106614000D01*
X145686100Y-105801200D01*
X147210100Y-105801200D01*
X147210100Y-106614000D01*
X147210100Y-106614000D01*
G37*
G36*
X160824500Y-106080600D02*
X160011700Y-106080600D01*
X160011700Y-104556600D01*
X160824500Y-104556600D01*
X160824500Y-106080600D01*
X160824500Y-106080600D01*
G37*
G36*
X163110500Y-106080600D02*
X162297700Y-106080600D01*
X162297700Y-104556600D01*
X163110500Y-104556600D01*
X163110500Y-106080600D01*
X163110500Y-106080600D01*
G37*
G36*
X142765100Y-105725000D02*
X141241100Y-105725000D01*
X141241100Y-104912200D01*
X142765100Y-104912200D01*
X142765100Y-105725000D01*
X142765100Y-105725000D01*
G37*
G36*
X162546900Y-104084400D02*
X161845300Y-104084400D01*
X161845300Y-101782800D01*
X162546900Y-101782800D01*
X162546900Y-104084400D01*
X162546900Y-104084400D01*
G37*
G36*
X161276900Y-104084400D02*
X160575300Y-104084400D01*
X160575300Y-101782800D01*
X161276900Y-101782800D01*
X161276900Y-104084400D01*
X161276900Y-104084400D01*
G37*
G36*
X163816900Y-104084400D02*
X163115300Y-104084400D01*
X163115300Y-101782800D01*
X163816900Y-101782800D01*
X163816900Y-104084400D01*
X163816900Y-104084400D01*
G37*
G36*
X165086900Y-104084400D02*
X164385300Y-104084400D01*
X164385300Y-101782800D01*
X165086900Y-101782800D01*
X165086900Y-104084400D01*
X165086900Y-104084400D01*
G37*
G36*
X142765100Y-103439000D02*
X141241100Y-103439000D01*
X141241100Y-102626200D01*
X142765100Y-102626200D01*
X142765100Y-103439000D01*
X142765100Y-103439000D01*
G37*
G36*
X159783100Y-101788000D02*
X158259100Y-101788000D01*
X158259100Y-100975200D01*
X159783100Y-100975200D01*
X159783100Y-101788000D01*
X159783100Y-101788000D01*
G37*
G36*
X167403100Y-100518000D02*
X165879100Y-100518000D01*
X165879100Y-99705200D01*
X167403100Y-99705200D01*
X167403100Y-100518000D01*
X167403100Y-100518000D01*
G37*
G36*
X159783100Y-99502000D02*
X158259100Y-99502000D01*
X158259100Y-98689200D01*
X159783100Y-98689200D01*
X159783100Y-99502000D01*
X159783100Y-99502000D01*
G37*
G36*
X167403100Y-98232000D02*
X165879100Y-98232000D01*
X165879100Y-97419200D01*
X167403100Y-97419200D01*
X167403100Y-98232000D01*
X167403100Y-98232000D01*
G37*
G36*
X163816900Y-97424400D02*
X163115300Y-97424400D01*
X163115300Y-95122800D01*
X163816900Y-95122800D01*
X163816900Y-97424400D01*
X163816900Y-97424400D01*
G37*
G36*
X165086900Y-97424400D02*
X164385300Y-97424400D01*
X164385300Y-95122800D01*
X165086900Y-95122800D01*
X165086900Y-97424400D01*
X165086900Y-97424400D01*
G37*
G36*
X162546900Y-97424400D02*
X161845300Y-97424400D01*
X161845300Y-95122800D01*
X162546900Y-95122800D01*
X162546900Y-97424400D01*
X162546900Y-97424400D01*
G37*
G36*
X161276900Y-97424400D02*
X160575300Y-97424400D01*
X160575300Y-95122800D01*
X161276900Y-95122800D01*
X161276900Y-97424400D01*
X161276900Y-97424400D01*
G37*
G36*
X141852863Y-91720621D02*
X141929172Y-91743770D01*
X141999502Y-91781362D01*
X142061148Y-91831952D01*
X142111738Y-91893598D01*
X142149330Y-91963928D01*
X142172479Y-92040237D01*
X142180900Y-92125740D01*
X142180900Y-94178260D01*
X142172479Y-94263763D01*
X142149330Y-94340072D01*
X142111738Y-94410402D01*
X142061148Y-94472048D01*
X141999502Y-94522638D01*
X141929172Y-94560230D01*
X141852863Y-94583379D01*
X141767360Y-94591800D01*
X140714840Y-94591800D01*
X140629337Y-94583379D01*
X140553028Y-94560230D01*
X140482698Y-94522638D01*
X140421052Y-94472048D01*
X140370462Y-94410402D01*
X140332870Y-94340072D01*
X140309721Y-94263763D01*
X140301300Y-94178260D01*
X140301300Y-92125740D01*
X140309721Y-92040237D01*
X140332870Y-91963928D01*
X140370462Y-91893598D01*
X140421052Y-91831952D01*
X140482698Y-91781362D01*
X140553028Y-91743770D01*
X140629337Y-91720621D01*
X140714840Y-91712200D01*
X141767360Y-91712200D01*
X141852863Y-91720621D01*
X141852863Y-91720621D01*
G37*
G36*
X144392863Y-91720621D02*
X144469172Y-91743770D01*
X144539502Y-91781362D01*
X144601148Y-91831952D01*
X144651738Y-91893598D01*
X144689330Y-91963928D01*
X144712479Y-92040237D01*
X144720900Y-92125740D01*
X144720900Y-94178260D01*
X144712479Y-94263763D01*
X144689330Y-94340072D01*
X144651738Y-94410402D01*
X144601148Y-94472048D01*
X144539502Y-94522638D01*
X144469172Y-94560230D01*
X144392863Y-94583379D01*
X144307360Y-94591800D01*
X143254840Y-94591800D01*
X143169337Y-94583379D01*
X143093028Y-94560230D01*
X143022698Y-94522638D01*
X142961052Y-94472048D01*
X142910462Y-94410402D01*
X142872870Y-94340072D01*
X142849721Y-94263763D01*
X142841300Y-94178260D01*
X142841300Y-92125740D01*
X142849721Y-92040237D01*
X142872870Y-91963928D01*
X142910462Y-91893598D01*
X142961052Y-91831952D01*
X143022698Y-91781362D01*
X143093028Y-91743770D01*
X143169337Y-91720621D01*
X143254840Y-91712200D01*
X144307360Y-91712200D01*
X144392863Y-91720621D01*
X144392863Y-91720621D01*
G37*
G36*
X146932863Y-91720621D02*
X147009172Y-91743770D01*
X147079502Y-91781362D01*
X147141148Y-91831952D01*
X147191738Y-91893598D01*
X147229330Y-91963928D01*
X147252479Y-92040237D01*
X147260900Y-92125740D01*
X147260900Y-94178260D01*
X147252479Y-94263763D01*
X147229330Y-94340072D01*
X147191738Y-94410402D01*
X147141148Y-94472048D01*
X147079502Y-94522638D01*
X147009172Y-94560230D01*
X146932863Y-94583379D01*
X146847360Y-94591800D01*
X145794840Y-94591800D01*
X145709337Y-94583379D01*
X145633028Y-94560230D01*
X145562698Y-94522638D01*
X145501052Y-94472048D01*
X145450462Y-94410402D01*
X145412870Y-94340072D01*
X145389721Y-94263763D01*
X145381300Y-94178260D01*
X145381300Y-92125740D01*
X145389721Y-92040237D01*
X145412870Y-91963928D01*
X145450462Y-91893598D01*
X145501052Y-91831952D01*
X145562698Y-91781362D01*
X145633028Y-91743770D01*
X145709337Y-91720621D01*
X145794840Y-91712200D01*
X146847360Y-91712200D01*
X146932863Y-91720621D01*
X146932863Y-91720621D01*
G37*
G36*
X149472863Y-91720621D02*
X149549172Y-91743770D01*
X149619502Y-91781362D01*
X149681148Y-91831952D01*
X149731738Y-91893598D01*
X149769330Y-91963928D01*
X149792479Y-92040237D01*
X149800900Y-92125740D01*
X149800900Y-94178260D01*
X149792479Y-94263763D01*
X149769330Y-94340072D01*
X149731738Y-94410402D01*
X149681148Y-94472048D01*
X149619502Y-94522638D01*
X149549172Y-94560230D01*
X149472863Y-94583379D01*
X149387360Y-94591800D01*
X148334840Y-94591800D01*
X148249337Y-94583379D01*
X148173028Y-94560230D01*
X148102698Y-94522638D01*
X148041052Y-94472048D01*
X147990462Y-94410402D01*
X147952870Y-94340072D01*
X147929721Y-94263763D01*
X147921300Y-94178260D01*
X147921300Y-92125740D01*
X147929721Y-92040237D01*
X147952870Y-91963928D01*
X147990462Y-91893598D01*
X148041052Y-91831952D01*
X148102698Y-91781362D01*
X148173028Y-91743770D01*
X148249337Y-91720621D01*
X148334840Y-91712200D01*
X149387360Y-91712200D01*
X149472863Y-91720621D01*
X149472863Y-91720621D01*
G37*
G36*
X152012863Y-91720621D02*
X152089172Y-91743770D01*
X152159502Y-91781362D01*
X152221148Y-91831952D01*
X152271738Y-91893598D01*
X152309330Y-91963928D01*
X152332479Y-92040237D01*
X152340900Y-92125740D01*
X152340900Y-94178260D01*
X152332479Y-94263763D01*
X152309330Y-94340072D01*
X152271738Y-94410402D01*
X152221148Y-94472048D01*
X152159502Y-94522638D01*
X152089172Y-94560230D01*
X152012863Y-94583379D01*
X151927360Y-94591800D01*
X150874840Y-94591800D01*
X150789337Y-94583379D01*
X150713028Y-94560230D01*
X150642698Y-94522638D01*
X150581052Y-94472048D01*
X150530462Y-94410402D01*
X150492870Y-94340072D01*
X150469721Y-94263763D01*
X150461300Y-94178260D01*
X150461300Y-92125740D01*
X150469721Y-92040237D01*
X150492870Y-91963928D01*
X150530462Y-91893598D01*
X150581052Y-91831952D01*
X150642698Y-91781362D01*
X150713028Y-91743770D01*
X150789337Y-91720621D01*
X150874840Y-91712200D01*
X151927360Y-91712200D01*
X152012863Y-91720621D01*
X152012863Y-91720621D01*
G37*
G36*
X154552863Y-91720621D02*
X154629172Y-91743770D01*
X154699502Y-91781362D01*
X154761148Y-91831952D01*
X154811738Y-91893598D01*
X154849330Y-91963928D01*
X154872479Y-92040237D01*
X154880900Y-92125740D01*
X154880900Y-94178260D01*
X154872479Y-94263763D01*
X154849330Y-94340072D01*
X154811738Y-94410402D01*
X154761148Y-94472048D01*
X154699502Y-94522638D01*
X154629172Y-94560230D01*
X154552863Y-94583379D01*
X154467360Y-94591800D01*
X153414840Y-94591800D01*
X153329337Y-94583379D01*
X153253028Y-94560230D01*
X153182698Y-94522638D01*
X153121052Y-94472048D01*
X153070462Y-94410402D01*
X153032870Y-94340072D01*
X153009721Y-94263763D01*
X153001300Y-94178260D01*
X153001300Y-92125740D01*
X153009721Y-92040237D01*
X153032870Y-91963928D01*
X153070462Y-91893598D01*
X153121052Y-91831952D01*
X153182698Y-91781362D01*
X153253028Y-91743770D01*
X153329337Y-91720621D01*
X153414840Y-91712200D01*
X154467360Y-91712200D01*
X154552863Y-91720621D01*
X154552863Y-91720621D01*
G37*
G36*
X157092863Y-91720621D02*
X157169172Y-91743770D01*
X157239502Y-91781362D01*
X157301148Y-91831952D01*
X157351738Y-91893598D01*
X157389330Y-91963928D01*
X157412479Y-92040237D01*
X157420900Y-92125740D01*
X157420900Y-94178260D01*
X157412479Y-94263763D01*
X157389330Y-94340072D01*
X157351738Y-94410402D01*
X157301148Y-94472048D01*
X157239502Y-94522638D01*
X157169172Y-94560230D01*
X157092863Y-94583379D01*
X157007360Y-94591800D01*
X155954840Y-94591800D01*
X155869337Y-94583379D01*
X155793028Y-94560230D01*
X155722698Y-94522638D01*
X155661052Y-94472048D01*
X155610462Y-94410402D01*
X155572870Y-94340072D01*
X155549721Y-94263763D01*
X155541300Y-94178260D01*
X155541300Y-92125740D01*
X155549721Y-92040237D01*
X155572870Y-91963928D01*
X155610462Y-91893598D01*
X155661052Y-91831952D01*
X155722698Y-91781362D01*
X155793028Y-91743770D01*
X155869337Y-91720621D01*
X155954840Y-91712200D01*
X157007360Y-91712200D01*
X157092863Y-91720621D01*
X157092863Y-91720621D01*
G37*
G36*
X159960900Y-94178260D02*
X159952479Y-94263763D01*
X159929330Y-94340072D01*
X159891738Y-94410402D01*
X159841148Y-94472048D01*
X159779502Y-94522638D01*
X159709172Y-94560230D01*
X159632863Y-94583379D01*
X159547360Y-94591800D01*
X158494840Y-94591800D01*
X158409337Y-94583379D01*
X158333028Y-94560230D01*
X158262698Y-94522638D01*
X158201052Y-94472048D01*
X158150462Y-94410402D01*
X158112870Y-94340072D01*
X158089721Y-94263763D01*
X158081300Y-94178260D01*
X158081300Y-91094600D01*
X159960900Y-91094600D01*
X159960900Y-94178260D01*
X159960900Y-94178260D01*
G37*
G36*
X159960900Y-88808600D02*
X158081300Y-88808600D01*
X158081300Y-87792600D01*
X159960900Y-87792600D01*
X159960900Y-88808600D01*
X159960900Y-88808600D01*
G37*
M02*
