M48
;DRILL file {KiCad (5.0.2)-1} date 22/04/2019 11:09:22
;FORMAT={-:-/ absolute / metric / decimal}
FMAT,2
METRIC,TZ
T1C0.600
T2C0.700
T3C1.016
T4C3.200
%
G90
G05
T1
X159.783Y-95.794
X168.546Y-99.604
T2
X136.225Y-88.174
X142.511Y-88.174
X143.4Y-96.81
X143.4Y-100.874
X143.4Y-109.002
X145.686Y-100.874
X147.591Y-88.174
X149.496Y-98.969
X152.036Y-98.969
X153.56Y-108.24
X158.386Y-108.494
X164.101Y-93.889
T3
X141.241Y-93.152
X143.781Y-93.152
X146.321Y-93.152
X148.861Y-93.152
X151.401Y-93.152
X153.941Y-93.152
X156.481Y-93.152
X159.021Y-93.152
T4
X129.811Y-88.809
X129.811Y-121.194
X167.149Y-88.809
T0
M30
