G04 #@! TF.FileFunction,Soldermask,Top*
%FSLAX46Y46*%
G04 Gerber Fmt 4.6, Leading zero omitted, Abs format (unit mm)*
G04 Created by KiCad (PCBNEW 4.0.7) date 11/13/18 10:50:41*
%MOMM*%
%LPD*%
G01*
G04 APERTURE LIST*
%ADD10C,0.100000*%
%ADD11R,2.700000X0.900000*%
%ADD12R,2.900000X2.400000*%
%ADD13C,1.300000*%
%ADD14O,1.250000X0.700000*%
%ADD15O,0.700000X1.250000*%
%ADD16R,2.075000X2.075000*%
%ADD17C,3.600000*%
%ADD18R,1.900000X1.650000*%
%ADD19R,1.300000X1.600000*%
%ADD20R,2.100000X2.100000*%
%ADD21O,2.100000X2.100000*%
%ADD22R,1.900000X1.700000*%
%ADD23R,1.600000X1.300000*%
%ADD24R,1.800000X1.600000*%
%ADD25R,1.800000X1.400000*%
G04 APERTURE END LIST*
D10*
D11*
X172620000Y-108910000D03*
X172620000Y-108110000D03*
X172620000Y-107310000D03*
X172620000Y-106510000D03*
X172620000Y-105710000D03*
D12*
X172720000Y-111760000D03*
X178220000Y-111760000D03*
X172720000Y-102860000D03*
X178220000Y-102860000D03*
D13*
X175220000Y-109510000D03*
X175220000Y-105110000D03*
D14*
X161632500Y-110287500D03*
X161632500Y-109787500D03*
X161632500Y-109287500D03*
X161632500Y-108787500D03*
X161632500Y-108287500D03*
X161632500Y-107787500D03*
X161632500Y-107287500D03*
D15*
X160682500Y-106337500D03*
X160182500Y-106337500D03*
X159682500Y-106337500D03*
X159182500Y-106337500D03*
X158682500Y-106337500D03*
X158182500Y-106337500D03*
X157682500Y-106337500D03*
D14*
X156732500Y-107287500D03*
X156732500Y-107787500D03*
X156732500Y-108287500D03*
X156732500Y-108787500D03*
X156732500Y-109287500D03*
X156732500Y-109787500D03*
X156732500Y-110287500D03*
D15*
X157682500Y-111237500D03*
X158182500Y-111237500D03*
X158682500Y-111237500D03*
X159182500Y-111237500D03*
X159682500Y-111237500D03*
X160182500Y-111237500D03*
X160682500Y-111237500D03*
D16*
X158345000Y-107950000D03*
X158345000Y-109625000D03*
X160020000Y-107950000D03*
X160020000Y-109625000D03*
D17*
X152400000Y-97790000D03*
X176530000Y-118110000D03*
D18*
X158710000Y-114300000D03*
X156210000Y-114300000D03*
X166390000Y-101600000D03*
X168890000Y-101600000D03*
X168890000Y-114300000D03*
X166390000Y-114300000D03*
D19*
X165990000Y-111760000D03*
X169290000Y-111760000D03*
D20*
X149860000Y-107950000D03*
D21*
X152400000Y-107950000D03*
D20*
X149860000Y-118110000D03*
D21*
X152400000Y-118110000D03*
D20*
X165100000Y-118110000D03*
D21*
X167640000Y-118110000D03*
X170180000Y-118110000D03*
D20*
X146050000Y-100330000D03*
D21*
X146050000Y-102870000D03*
X146050000Y-105410000D03*
X146050000Y-107950000D03*
X146050000Y-110490000D03*
X146050000Y-113030000D03*
X146050000Y-115570000D03*
D22*
X152480000Y-114300000D03*
X149780000Y-114300000D03*
X163830000Y-114300000D03*
X161130000Y-114300000D03*
X152480000Y-111760000D03*
X149780000Y-111760000D03*
X158910000Y-118110000D03*
X156210000Y-118110000D03*
X163990000Y-101600000D03*
X161290000Y-101600000D03*
D17*
X176530000Y-97790000D03*
D18*
X162740000Y-103770000D03*
X165240000Y-103770000D03*
D23*
X156380000Y-115951000D03*
X158580000Y-115951000D03*
D24*
X165651000Y-106672000D03*
D25*
X165651000Y-108392000D03*
X167851000Y-108392000D03*
X167851000Y-106492000D03*
M02*
