G04 #@! TF.FileFunction,Legend,Top*
%FSLAX46Y46*%
G04 Gerber Fmt 4.6, Leading zero omitted, Abs format (unit mm)*
G04 Created by KiCad (PCBNEW 4.0.7) date 11/13/18 10:50:41*
%MOMM*%
%LPD*%
G01*
G04 APERTURE LIST*
%ADD10C,0.100000*%
%ADD11C,0.150000*%
%ADD12C,0.300000*%
%ADD13C,0.120000*%
G04 APERTURE END LIST*
D10*
D11*
X160296286Y-119975381D02*
X160296286Y-120784905D01*
X160339143Y-120880143D01*
X160382000Y-120927762D01*
X160467714Y-120975381D01*
X160639143Y-120975381D01*
X160724857Y-120927762D01*
X160767714Y-120880143D01*
X160810571Y-120784905D01*
X160810571Y-119975381D01*
X161239143Y-120975381D02*
X161239143Y-119975381D01*
X161753428Y-120975381D01*
X161753428Y-119975381D01*
X162182000Y-120975381D02*
X162182000Y-119975381D01*
X162481999Y-119975381D02*
X162781999Y-120975381D01*
X163081999Y-119975381D01*
X163382000Y-120451571D02*
X163682000Y-120451571D01*
X163810571Y-120975381D02*
X163382000Y-120975381D01*
X163382000Y-119975381D01*
X163810571Y-119975381D01*
X164710571Y-120975381D02*
X164410571Y-120499190D01*
X164196286Y-120975381D02*
X164196286Y-119975381D01*
X164539143Y-119975381D01*
X164624857Y-120023000D01*
X164667714Y-120070619D01*
X164710571Y-120165857D01*
X164710571Y-120308714D01*
X164667714Y-120403952D01*
X164624857Y-120451571D01*
X164539143Y-120499190D01*
X164196286Y-120499190D01*
X165053429Y-120927762D02*
X165182000Y-120975381D01*
X165396286Y-120975381D01*
X165482000Y-120927762D01*
X165524857Y-120880143D01*
X165567714Y-120784905D01*
X165567714Y-120689667D01*
X165524857Y-120594429D01*
X165482000Y-120546810D01*
X165396286Y-120499190D01*
X165224857Y-120451571D01*
X165139143Y-120403952D01*
X165096286Y-120356333D01*
X165053429Y-120261095D01*
X165053429Y-120165857D01*
X165096286Y-120070619D01*
X165139143Y-120023000D01*
X165224857Y-119975381D01*
X165439143Y-119975381D01*
X165567714Y-120023000D01*
X165910572Y-120689667D02*
X166339143Y-120689667D01*
X165824857Y-120975381D02*
X166124857Y-119975381D01*
X166424857Y-120975381D01*
X167153429Y-120975381D02*
X166724858Y-120975381D01*
X166724858Y-119975381D01*
X167667714Y-121308714D02*
X167667714Y-119880143D01*
X168224857Y-119975381D02*
X168782000Y-119975381D01*
X168482000Y-120356333D01*
X168610572Y-120356333D01*
X168696286Y-120403952D01*
X168739143Y-120451571D01*
X168782000Y-120546810D01*
X168782000Y-120784905D01*
X168739143Y-120880143D01*
X168696286Y-120927762D01*
X168610572Y-120975381D01*
X168353429Y-120975381D01*
X168267715Y-120927762D01*
X168224857Y-120880143D01*
X169167715Y-120880143D02*
X169210572Y-120927762D01*
X169167715Y-120975381D01*
X169124858Y-120927762D01*
X169167715Y-120880143D01*
X169167715Y-120975381D01*
X169510571Y-119975381D02*
X170067714Y-119975381D01*
X169767714Y-120356333D01*
X169896286Y-120356333D01*
X169982000Y-120403952D01*
X170024857Y-120451571D01*
X170067714Y-120546810D01*
X170067714Y-120784905D01*
X170024857Y-120880143D01*
X169982000Y-120927762D01*
X169896286Y-120975381D01*
X169639143Y-120975381D01*
X169553429Y-120927762D01*
X169510571Y-120880143D01*
X170324857Y-119975381D02*
X170624857Y-120975381D01*
X170924857Y-119975381D01*
X171182001Y-120927762D02*
X171310572Y-120975381D01*
X171524858Y-120975381D01*
X171610572Y-120927762D01*
X171653429Y-120880143D01*
X171696286Y-120784905D01*
X171696286Y-120689667D01*
X171653429Y-120594429D01*
X171610572Y-120546810D01*
X171524858Y-120499190D01*
X171353429Y-120451571D01*
X171267715Y-120403952D01*
X171224858Y-120356333D01*
X171182001Y-120261095D01*
X171182001Y-120165857D01*
X171224858Y-120070619D01*
X171267715Y-120023000D01*
X171353429Y-119975381D01*
X171567715Y-119975381D01*
X171696286Y-120023000D01*
X172082001Y-120451571D02*
X172382001Y-120451571D01*
X172510572Y-120975381D02*
X172082001Y-120975381D01*
X172082001Y-119975381D01*
X172510572Y-119975381D01*
X173324858Y-120975381D02*
X172896287Y-120975381D01*
X172896287Y-119975381D01*
X173924858Y-120451571D02*
X173624858Y-120451571D01*
X173624858Y-120975381D02*
X173624858Y-119975381D01*
X174053429Y-119975381D01*
X148557000Y-120975381D02*
X148257000Y-120499190D01*
X148042715Y-120975381D02*
X148042715Y-119975381D01*
X148385572Y-119975381D01*
X148471286Y-120023000D01*
X148514143Y-120070619D01*
X148557000Y-120165857D01*
X148557000Y-120308714D01*
X148514143Y-120403952D01*
X148471286Y-120451571D01*
X148385572Y-120499190D01*
X148042715Y-120499190D01*
X148814143Y-119975381D02*
X149328429Y-119975381D01*
X149071286Y-120975381D02*
X149071286Y-119975381D01*
X149585572Y-120927762D02*
X149714143Y-120975381D01*
X149928429Y-120975381D01*
X150014143Y-120927762D01*
X150057000Y-120880143D01*
X150099857Y-120784905D01*
X150099857Y-120689667D01*
X150057000Y-120594429D01*
X150014143Y-120546810D01*
X149928429Y-120499190D01*
X149757000Y-120451571D01*
X149671286Y-120403952D01*
X149628429Y-120356333D01*
X149585572Y-120261095D01*
X149585572Y-120165857D01*
X149628429Y-120070619D01*
X149671286Y-120023000D01*
X149757000Y-119975381D01*
X149971286Y-119975381D01*
X150099857Y-120023000D01*
X151128429Y-119927762D02*
X150357000Y-121213476D01*
X151728429Y-120451571D02*
X151857000Y-120499190D01*
X151899857Y-120546810D01*
X151942714Y-120642048D01*
X151942714Y-120784905D01*
X151899857Y-120880143D01*
X151857000Y-120927762D01*
X151771286Y-120975381D01*
X151428429Y-120975381D01*
X151428429Y-119975381D01*
X151728429Y-119975381D01*
X151814143Y-120023000D01*
X151857000Y-120070619D01*
X151899857Y-120165857D01*
X151899857Y-120261095D01*
X151857000Y-120356333D01*
X151814143Y-120403952D01*
X151728429Y-120451571D01*
X151428429Y-120451571D01*
X152499857Y-119975381D02*
X152671286Y-119975381D01*
X152757000Y-120023000D01*
X152842714Y-120118238D01*
X152885572Y-120308714D01*
X152885572Y-120642048D01*
X152842714Y-120832524D01*
X152757000Y-120927762D01*
X152671286Y-120975381D01*
X152499857Y-120975381D01*
X152414143Y-120927762D01*
X152328429Y-120832524D01*
X152285572Y-120642048D01*
X152285572Y-120308714D01*
X152328429Y-120118238D01*
X152414143Y-120023000D01*
X152499857Y-119975381D01*
X153442714Y-119975381D02*
X153614143Y-119975381D01*
X153699857Y-120023000D01*
X153785571Y-120118238D01*
X153828429Y-120308714D01*
X153828429Y-120642048D01*
X153785571Y-120832524D01*
X153699857Y-120927762D01*
X153614143Y-120975381D01*
X153442714Y-120975381D01*
X153357000Y-120927762D01*
X153271286Y-120832524D01*
X153228429Y-120642048D01*
X153228429Y-120308714D01*
X153271286Y-120118238D01*
X153357000Y-120023000D01*
X153442714Y-119975381D01*
X154085571Y-119975381D02*
X154599857Y-119975381D01*
X154342714Y-120975381D02*
X154342714Y-119975381D01*
X155392381Y-109326714D02*
X154392381Y-109326714D01*
X154392381Y-109112429D01*
X154440000Y-108983857D01*
X154535238Y-108898143D01*
X154630476Y-108855286D01*
X154820952Y-108812429D01*
X154963810Y-108812429D01*
X155154286Y-108855286D01*
X155249524Y-108898143D01*
X155344762Y-108983857D01*
X155392381Y-109112429D01*
X155392381Y-109326714D01*
X154392381Y-108555286D02*
X154392381Y-108041000D01*
X155392381Y-108298143D02*
X154392381Y-108298143D01*
X155392381Y-107226715D02*
X154916190Y-107526715D01*
X155392381Y-107741000D02*
X154392381Y-107741000D01*
X154392381Y-107398143D01*
X154440000Y-107312429D01*
X154487619Y-107269572D01*
X154582857Y-107226715D01*
X154725714Y-107226715D01*
X154820952Y-107269572D01*
X154868571Y-107312429D01*
X154916190Y-107398143D01*
X154916190Y-107741000D01*
X154344762Y-106198143D02*
X155630476Y-106969572D01*
X155392381Y-105383858D02*
X154916190Y-105683858D01*
X155392381Y-105898143D02*
X154392381Y-105898143D01*
X154392381Y-105555286D01*
X154440000Y-105469572D01*
X154487619Y-105426715D01*
X154582857Y-105383858D01*
X154725714Y-105383858D01*
X154820952Y-105426715D01*
X154868571Y-105469572D01*
X154916190Y-105555286D01*
X154916190Y-105898143D01*
X154868571Y-104998143D02*
X154868571Y-104698143D01*
X155392381Y-104569572D02*
X155392381Y-104998143D01*
X154392381Y-104998143D01*
X154392381Y-104569572D01*
X155344762Y-104226714D02*
X155392381Y-104098143D01*
X155392381Y-103883857D01*
X155344762Y-103798143D01*
X155297143Y-103755286D01*
X155201905Y-103712429D01*
X155106667Y-103712429D01*
X155011429Y-103755286D01*
X154963810Y-103798143D01*
X154916190Y-103883857D01*
X154868571Y-104055286D01*
X154820952Y-104141000D01*
X154773333Y-104183857D01*
X154678095Y-104226714D01*
X154582857Y-104226714D01*
X154487619Y-104183857D01*
X154440000Y-104141000D01*
X154392381Y-104055286D01*
X154392381Y-103841000D01*
X154440000Y-103712429D01*
X154868571Y-103326714D02*
X154868571Y-103026714D01*
X155392381Y-102898143D02*
X155392381Y-103326714D01*
X154392381Y-103326714D01*
X154392381Y-102898143D01*
X154392381Y-102641000D02*
X154392381Y-102126714D01*
X155392381Y-102383857D02*
X154392381Y-102383857D01*
X144470381Y-116316857D02*
X143994190Y-116616857D01*
X144470381Y-116831142D02*
X143470381Y-116831142D01*
X143470381Y-116488285D01*
X143518000Y-116402571D01*
X143565619Y-116359714D01*
X143660857Y-116316857D01*
X143803714Y-116316857D01*
X143898952Y-116359714D01*
X143946571Y-116402571D01*
X143994190Y-116488285D01*
X143994190Y-116831142D01*
X143470381Y-116059714D02*
X143470381Y-115545428D01*
X144470381Y-115802571D02*
X143470381Y-115802571D01*
X144422762Y-115288285D02*
X144470381Y-115159714D01*
X144470381Y-114945428D01*
X144422762Y-114859714D01*
X144375143Y-114816857D01*
X144279905Y-114774000D01*
X144184667Y-114774000D01*
X144089429Y-114816857D01*
X144041810Y-114859714D01*
X143994190Y-114945428D01*
X143946571Y-115116857D01*
X143898952Y-115202571D01*
X143851333Y-115245428D01*
X143756095Y-115288285D01*
X143660857Y-115288285D01*
X143565619Y-115245428D01*
X143518000Y-115202571D01*
X143470381Y-115116857D01*
X143470381Y-114902571D01*
X143518000Y-114774000D01*
X144470381Y-113180000D02*
X143994190Y-113480000D01*
X144470381Y-113694285D02*
X143470381Y-113694285D01*
X143470381Y-113351428D01*
X143518000Y-113265714D01*
X143565619Y-113222857D01*
X143660857Y-113180000D01*
X143803714Y-113180000D01*
X143898952Y-113222857D01*
X143946571Y-113265714D01*
X143994190Y-113351428D01*
X143994190Y-113694285D01*
X143470381Y-112880000D02*
X144470381Y-112280000D01*
X143470381Y-112280000D02*
X144470381Y-112880000D01*
X143470381Y-111302714D02*
X143470381Y-110788428D01*
X144470381Y-111045571D02*
X143470381Y-111045571D01*
X143470381Y-110574143D02*
X144470381Y-109974143D01*
X143470381Y-109974143D02*
X144470381Y-110574143D01*
X144470381Y-109105571D02*
X143470381Y-109105571D01*
X143470381Y-108891286D01*
X143518000Y-108762714D01*
X143613238Y-108677000D01*
X143708476Y-108634143D01*
X143898952Y-108591286D01*
X144041810Y-108591286D01*
X144232286Y-108634143D01*
X144327524Y-108677000D01*
X144422762Y-108762714D01*
X144470381Y-108891286D01*
X144470381Y-109105571D01*
X143470381Y-108334143D02*
X143470381Y-107819857D01*
X144470381Y-108077000D02*
X143470381Y-108077000D01*
X144470381Y-107005572D02*
X143994190Y-107305572D01*
X144470381Y-107519857D02*
X143470381Y-107519857D01*
X143470381Y-107177000D01*
X143518000Y-107091286D01*
X143565619Y-107048429D01*
X143660857Y-107005572D01*
X143803714Y-107005572D01*
X143898952Y-107048429D01*
X143946571Y-107091286D01*
X143994190Y-107177000D01*
X143994190Y-107519857D01*
X143391000Y-105587714D02*
X143343381Y-105673428D01*
X143343381Y-105801999D01*
X143391000Y-105930571D01*
X143486238Y-106016285D01*
X143581476Y-106059142D01*
X143771952Y-106101999D01*
X143914810Y-106101999D01*
X144105286Y-106059142D01*
X144200524Y-106016285D01*
X144295762Y-105930571D01*
X144343381Y-105801999D01*
X144343381Y-105716285D01*
X144295762Y-105587714D01*
X144248143Y-105544857D01*
X143914810Y-105544857D01*
X143914810Y-105716285D01*
X144343381Y-105159142D02*
X143343381Y-105159142D01*
X144343381Y-104644857D01*
X143343381Y-104644857D01*
X144343381Y-104216285D02*
X143343381Y-104216285D01*
X143343381Y-104002000D01*
X143391000Y-103873428D01*
X143486238Y-103787714D01*
X143581476Y-103744857D01*
X143771952Y-103702000D01*
X143914810Y-103702000D01*
X144105286Y-103744857D01*
X144200524Y-103787714D01*
X144295762Y-103873428D01*
X144343381Y-104002000D01*
X144343381Y-104216285D01*
X148280429Y-104797000D02*
X148280429Y-104111286D01*
X148661381Y-104454143D02*
X147899476Y-104454143D01*
X147661381Y-103768429D02*
X147661381Y-103211286D01*
X148042333Y-103511286D01*
X148042333Y-103382714D01*
X148089952Y-103297000D01*
X148137571Y-103254143D01*
X148232810Y-103211286D01*
X148470905Y-103211286D01*
X148566143Y-103254143D01*
X148613762Y-103297000D01*
X148661381Y-103382714D01*
X148661381Y-103639857D01*
X148613762Y-103725571D01*
X148566143Y-103768429D01*
X148566143Y-102825571D02*
X148613762Y-102782714D01*
X148661381Y-102825571D01*
X148613762Y-102868428D01*
X148566143Y-102825571D01*
X148661381Y-102825571D01*
X147661381Y-102482715D02*
X147661381Y-101925572D01*
X148042333Y-102225572D01*
X148042333Y-102097000D01*
X148089952Y-102011286D01*
X148137571Y-101968429D01*
X148232810Y-101925572D01*
X148470905Y-101925572D01*
X148566143Y-101968429D01*
X148613762Y-102011286D01*
X148661381Y-102097000D01*
X148661381Y-102354143D01*
X148613762Y-102439857D01*
X148566143Y-102482715D01*
X147661381Y-101668429D02*
X148661381Y-101368429D01*
X147661381Y-101068429D01*
X143962429Y-101868143D02*
X143962429Y-101182429D01*
X144343381Y-101525286D02*
X143581476Y-101525286D01*
X143343381Y-100325286D02*
X143343381Y-100753857D01*
X143819571Y-100796714D01*
X143771952Y-100753857D01*
X143724333Y-100668143D01*
X143724333Y-100453857D01*
X143771952Y-100368143D01*
X143819571Y-100325286D01*
X143914810Y-100282429D01*
X144152905Y-100282429D01*
X144248143Y-100325286D01*
X144295762Y-100368143D01*
X144343381Y-100453857D01*
X144343381Y-100668143D01*
X144295762Y-100753857D01*
X144248143Y-100796714D01*
X143343381Y-100025286D02*
X144343381Y-99725286D01*
X143343381Y-99425286D01*
D12*
X157350715Y-96279571D02*
X157293572Y-96336714D01*
X157122143Y-96393857D01*
X157007857Y-96393857D01*
X156836429Y-96336714D01*
X156722143Y-96222429D01*
X156665000Y-96108143D01*
X156607857Y-95879571D01*
X156607857Y-95708143D01*
X156665000Y-95479571D01*
X156722143Y-95365286D01*
X156836429Y-95251000D01*
X157007857Y-95193857D01*
X157122143Y-95193857D01*
X157293572Y-95251000D01*
X157350715Y-95308143D01*
X157865000Y-96393857D02*
X157865000Y-95193857D01*
X158322143Y-95193857D01*
X158436429Y-95251000D01*
X158493572Y-95308143D01*
X158550715Y-95422429D01*
X158550715Y-95593857D01*
X158493572Y-95708143D01*
X158436429Y-95765286D01*
X158322143Y-95822429D01*
X157865000Y-95822429D01*
X159007857Y-95308143D02*
X159065000Y-95251000D01*
X159179286Y-95193857D01*
X159465000Y-95193857D01*
X159579286Y-95251000D01*
X159636429Y-95308143D01*
X159693572Y-95422429D01*
X159693572Y-95536714D01*
X159636429Y-95708143D01*
X158950715Y-96393857D01*
X159693572Y-96393857D01*
X160836429Y-96393857D02*
X160150714Y-96393857D01*
X160493572Y-96393857D02*
X160493572Y-95193857D01*
X160379286Y-95365286D01*
X160265000Y-95479571D01*
X160150714Y-95536714D01*
X161579286Y-95193857D02*
X161693571Y-95193857D01*
X161807857Y-95251000D01*
X161865000Y-95308143D01*
X161922143Y-95422429D01*
X161979286Y-95651000D01*
X161979286Y-95936714D01*
X161922143Y-96165286D01*
X161865000Y-96279571D01*
X161807857Y-96336714D01*
X161693571Y-96393857D01*
X161579286Y-96393857D01*
X161465000Y-96336714D01*
X161407857Y-96279571D01*
X161350714Y-96165286D01*
X161293571Y-95936714D01*
X161293571Y-95651000D01*
X161350714Y-95422429D01*
X161407857Y-95308143D01*
X161465000Y-95251000D01*
X161579286Y-95193857D01*
X162436428Y-95308143D02*
X162493571Y-95251000D01*
X162607857Y-95193857D01*
X162893571Y-95193857D01*
X163007857Y-95251000D01*
X163065000Y-95308143D01*
X163122143Y-95422429D01*
X163122143Y-95536714D01*
X163065000Y-95708143D01*
X162379286Y-96393857D01*
X163122143Y-96393857D01*
X164550714Y-95193857D02*
X164550714Y-96165286D01*
X164607857Y-96279571D01*
X164665000Y-96336714D01*
X164779286Y-96393857D01*
X165007857Y-96393857D01*
X165122143Y-96336714D01*
X165179286Y-96279571D01*
X165236429Y-96165286D01*
X165236429Y-95193857D01*
X165807857Y-95593857D02*
X165807857Y-96393857D01*
X165807857Y-95708143D02*
X165865000Y-95651000D01*
X165979286Y-95593857D01*
X166150714Y-95593857D01*
X166265000Y-95651000D01*
X166322143Y-95765286D01*
X166322143Y-96393857D01*
X166893571Y-96393857D02*
X166893571Y-95593857D01*
X166893571Y-95193857D02*
X166836428Y-95251000D01*
X166893571Y-95308143D01*
X166950714Y-95251000D01*
X166893571Y-95193857D01*
X166893571Y-95308143D01*
X167350715Y-95593857D02*
X167636429Y-96393857D01*
X167922143Y-95593857D01*
X168836429Y-96336714D02*
X168722143Y-96393857D01*
X168493572Y-96393857D01*
X168379286Y-96336714D01*
X168322143Y-96222429D01*
X168322143Y-95765286D01*
X168379286Y-95651000D01*
X168493572Y-95593857D01*
X168722143Y-95593857D01*
X168836429Y-95651000D01*
X168893572Y-95765286D01*
X168893572Y-95879571D01*
X168322143Y-95993857D01*
X169407857Y-96393857D02*
X169407857Y-95593857D01*
X169407857Y-95822429D02*
X169465000Y-95708143D01*
X169522143Y-95651000D01*
X169636429Y-95593857D01*
X169750714Y-95593857D01*
X170093571Y-96336714D02*
X170207857Y-96393857D01*
X170436429Y-96393857D01*
X170550714Y-96336714D01*
X170607857Y-96222429D01*
X170607857Y-96165286D01*
X170550714Y-96051000D01*
X170436429Y-95993857D01*
X170265000Y-95993857D01*
X170150714Y-95936714D01*
X170093571Y-95822429D01*
X170093571Y-95765286D01*
X170150714Y-95651000D01*
X170265000Y-95593857D01*
X170436429Y-95593857D01*
X170550714Y-95651000D01*
X171636429Y-96393857D02*
X171636429Y-95765286D01*
X171579286Y-95651000D01*
X171465000Y-95593857D01*
X171236429Y-95593857D01*
X171122143Y-95651000D01*
X171636429Y-96336714D02*
X171522143Y-96393857D01*
X171236429Y-96393857D01*
X171122143Y-96336714D01*
X171065000Y-96222429D01*
X171065000Y-96108143D01*
X171122143Y-95993857D01*
X171236429Y-95936714D01*
X171522143Y-95936714D01*
X171636429Y-95879571D01*
X172379286Y-96393857D02*
X172265000Y-96336714D01*
X172207857Y-96222429D01*
X172207857Y-95193857D01*
X157607858Y-97693857D02*
X157893572Y-98493857D01*
X158179286Y-97693857D01*
X159265001Y-98493857D02*
X158579286Y-98493857D01*
X158922144Y-98493857D02*
X158922144Y-97293857D01*
X158807858Y-97465286D01*
X158693572Y-97579571D01*
X158579286Y-97636714D01*
X159779286Y-98379571D02*
X159836429Y-98436714D01*
X159779286Y-98493857D01*
X159722143Y-98436714D01*
X159779286Y-98379571D01*
X159779286Y-98493857D01*
X160979287Y-98493857D02*
X160293572Y-98493857D01*
X160636430Y-98493857D02*
X160636430Y-97293857D01*
X160522144Y-97465286D01*
X160407858Y-97579571D01*
X160293572Y-97636714D01*
X163036430Y-98493857D02*
X162350715Y-98493857D01*
X162693573Y-98493857D02*
X162693573Y-97293857D01*
X162579287Y-97465286D01*
X162465001Y-97579571D01*
X162350715Y-97636714D01*
X163493572Y-97408143D02*
X163550715Y-97351000D01*
X163665001Y-97293857D01*
X163950715Y-97293857D01*
X164065001Y-97351000D01*
X164122144Y-97408143D01*
X164179287Y-97522429D01*
X164179287Y-97636714D01*
X164122144Y-97808143D01*
X163436430Y-98493857D01*
X164179287Y-98493857D01*
X165550715Y-97236714D02*
X164522144Y-98779571D01*
X166579287Y-98493857D02*
X165893572Y-98493857D01*
X166236430Y-98493857D02*
X166236430Y-97293857D01*
X166122144Y-97465286D01*
X166007858Y-97579571D01*
X165893572Y-97636714D01*
X167722144Y-98493857D02*
X167036429Y-98493857D01*
X167379287Y-98493857D02*
X167379287Y-97293857D01*
X167265001Y-97465286D01*
X167150715Y-97579571D01*
X167036429Y-97636714D01*
X169093572Y-97236714D02*
X168065001Y-98779571D01*
X170122144Y-98493857D02*
X169436429Y-98493857D01*
X169779287Y-98493857D02*
X169779287Y-97293857D01*
X169665001Y-97465286D01*
X169550715Y-97579571D01*
X169436429Y-97636714D01*
X170807858Y-97808143D02*
X170693572Y-97751000D01*
X170636429Y-97693857D01*
X170579286Y-97579571D01*
X170579286Y-97522429D01*
X170636429Y-97408143D01*
X170693572Y-97351000D01*
X170807858Y-97293857D01*
X171036429Y-97293857D01*
X171150715Y-97351000D01*
X171207858Y-97408143D01*
X171265001Y-97522429D01*
X171265001Y-97579571D01*
X171207858Y-97693857D01*
X171150715Y-97751000D01*
X171036429Y-97808143D01*
X170807858Y-97808143D01*
X170693572Y-97865286D01*
X170636429Y-97922429D01*
X170579286Y-98036714D01*
X170579286Y-98265286D01*
X170636429Y-98379571D01*
X170693572Y-98436714D01*
X170807858Y-98493857D01*
X171036429Y-98493857D01*
X171150715Y-98436714D01*
X171207858Y-98379571D01*
X171265001Y-98265286D01*
X171265001Y-98036714D01*
X171207858Y-97922429D01*
X171150715Y-97865286D01*
X171036429Y-97808143D01*
D13*
X179670000Y-111160000D02*
X179670000Y-103460000D01*
X180670000Y-111160000D02*
X180670000Y-103460000D01*
X180670000Y-103460000D02*
X171470000Y-103460000D01*
X171470000Y-103460000D02*
X171470000Y-111160000D01*
X171470000Y-111160000D02*
X180670000Y-111160000D01*
D11*
X156557500Y-111412500D02*
X156557500Y-110662500D01*
X161807500Y-106162500D02*
X161807500Y-106912500D01*
X156557500Y-106162500D02*
X156557500Y-106912500D01*
X161807500Y-111412500D02*
X161057500Y-111412500D01*
X161807500Y-106162500D02*
X161057500Y-106162500D01*
X156557500Y-106162500D02*
X157307500Y-106162500D01*
X156557500Y-111412500D02*
X157307500Y-111412500D01*
D13*
X156960000Y-115150000D02*
X157960000Y-115150000D01*
X157960000Y-113450000D02*
X156960000Y-113450000D01*
X168140000Y-100750000D02*
X167140000Y-100750000D01*
X167140000Y-102450000D02*
X168140000Y-102450000D01*
X167140000Y-115150000D02*
X168140000Y-115150000D01*
X168140000Y-113450000D02*
X167140000Y-113450000D01*
X165390000Y-110760000D02*
X165390000Y-112760000D01*
X165390000Y-112760000D02*
X169290000Y-112760000D01*
X165390000Y-110760000D02*
X169290000Y-110760000D01*
X153730000Y-109280000D02*
X153730000Y-106620000D01*
X151130000Y-109280000D02*
X153730000Y-109280000D01*
X151130000Y-106620000D02*
X153730000Y-106620000D01*
X151130000Y-109280000D02*
X151130000Y-106620000D01*
X149860000Y-109280000D02*
X148530000Y-109280000D01*
X148530000Y-109280000D02*
X148530000Y-107950000D01*
X153730000Y-119440000D02*
X153730000Y-116780000D01*
X151130000Y-119440000D02*
X153730000Y-119440000D01*
X151130000Y-116780000D02*
X153730000Y-116780000D01*
X151130000Y-119440000D02*
X151130000Y-116780000D01*
X149860000Y-119440000D02*
X148530000Y-119440000D01*
X148530000Y-119440000D02*
X148530000Y-118110000D01*
X171510000Y-119440000D02*
X171510000Y-116780000D01*
X166370000Y-119440000D02*
X171510000Y-119440000D01*
X166370000Y-116780000D02*
X171510000Y-116780000D01*
X166370000Y-119440000D02*
X166370000Y-116780000D01*
X165100000Y-119440000D02*
X163770000Y-119440000D01*
X163770000Y-119440000D02*
X163770000Y-118110000D01*
X144720000Y-116900000D02*
X147380000Y-116900000D01*
X144720000Y-101600000D02*
X144720000Y-116900000D01*
X147380000Y-101600000D02*
X147380000Y-116900000D01*
X144720000Y-101600000D02*
X147380000Y-101600000D01*
X144720000Y-100330000D02*
X144720000Y-99000000D01*
X144720000Y-99000000D02*
X146050000Y-99000000D01*
X150530000Y-113420000D02*
X151730000Y-113420000D01*
X151730000Y-115180000D02*
X150530000Y-115180000D01*
X161880000Y-113420000D02*
X163080000Y-113420000D01*
X163080000Y-115180000D02*
X161880000Y-115180000D01*
X150530000Y-110880000D02*
X151730000Y-110880000D01*
X151730000Y-112640000D02*
X150530000Y-112640000D01*
X156960000Y-117230000D02*
X158160000Y-117230000D01*
X158160000Y-118990000D02*
X156960000Y-118990000D01*
X162040000Y-100720000D02*
X163240000Y-100720000D01*
X163240000Y-102480000D02*
X162040000Y-102480000D01*
X164490000Y-102920000D02*
X163490000Y-102920000D01*
X163490000Y-104620000D02*
X164490000Y-104620000D01*
X157980000Y-116631000D02*
X156980000Y-116631000D01*
X156980000Y-115271000D02*
X157980000Y-115271000D01*
X165551000Y-108992000D02*
X167951000Y-108992000D01*
X167951000Y-105892000D02*
X165001000Y-105892000D01*
D11*
X175331905Y-100862381D02*
X175331905Y-99862381D01*
X175712858Y-99862381D01*
X175808096Y-99910000D01*
X175855715Y-99957619D01*
X175903334Y-100052857D01*
X175903334Y-100195714D01*
X175855715Y-100290952D01*
X175808096Y-100338571D01*
X175712858Y-100386190D01*
X175331905Y-100386190D01*
X176284286Y-99957619D02*
X176331905Y-99910000D01*
X176427143Y-99862381D01*
X176665239Y-99862381D01*
X176760477Y-99910000D01*
X176808096Y-99957619D01*
X176855715Y-100052857D01*
X176855715Y-100148095D01*
X176808096Y-100290952D01*
X176236667Y-100862381D01*
X176855715Y-100862381D01*
X157257905Y-105227381D02*
X157257905Y-104227381D01*
X157496000Y-104227381D01*
X157638858Y-104275000D01*
X157734096Y-104370238D01*
X157781715Y-104465476D01*
X157829334Y-104655952D01*
X157829334Y-104798810D01*
X157781715Y-104989286D01*
X157734096Y-105084524D01*
X157638858Y-105179762D01*
X157496000Y-105227381D01*
X157257905Y-105227381D01*
X158257905Y-105227381D02*
X158257905Y-104227381D01*
X158496000Y-104227381D01*
X158638858Y-104275000D01*
X158734096Y-104370238D01*
X158781715Y-104465476D01*
X158829334Y-104655952D01*
X158829334Y-104798810D01*
X158781715Y-104989286D01*
X158734096Y-105084524D01*
X158638858Y-105179762D01*
X158496000Y-105227381D01*
X158257905Y-105227381D01*
X159781715Y-105227381D02*
X159210286Y-105227381D01*
X159496000Y-105227381D02*
X159496000Y-104227381D01*
X159400762Y-104370238D01*
X159305524Y-104465476D01*
X159210286Y-104513095D01*
X155027334Y-113133143D02*
X154979715Y-113180762D01*
X154836858Y-113228381D01*
X154741620Y-113228381D01*
X154598762Y-113180762D01*
X154503524Y-113085524D01*
X154455905Y-112990286D01*
X154408286Y-112799810D01*
X154408286Y-112656952D01*
X154455905Y-112466476D01*
X154503524Y-112371238D01*
X154598762Y-112276000D01*
X154741620Y-112228381D01*
X154836858Y-112228381D01*
X154979715Y-112276000D01*
X155027334Y-112323619D01*
X155979715Y-113228381D02*
X155408286Y-113228381D01*
X155694000Y-113228381D02*
X155694000Y-112228381D01*
X155598762Y-112371238D01*
X155503524Y-112466476D01*
X155408286Y-112514095D01*
X167473334Y-100207143D02*
X167425715Y-100254762D01*
X167282858Y-100302381D01*
X167187620Y-100302381D01*
X167044762Y-100254762D01*
X166949524Y-100159524D01*
X166901905Y-100064286D01*
X166854286Y-99873810D01*
X166854286Y-99730952D01*
X166901905Y-99540476D01*
X166949524Y-99445238D01*
X167044762Y-99350000D01*
X167187620Y-99302381D01*
X167282858Y-99302381D01*
X167425715Y-99350000D01*
X167473334Y-99397619D01*
X167854286Y-99397619D02*
X167901905Y-99350000D01*
X167997143Y-99302381D01*
X168235239Y-99302381D01*
X168330477Y-99350000D01*
X168378096Y-99397619D01*
X168425715Y-99492857D01*
X168425715Y-99588095D01*
X168378096Y-99730952D01*
X167806667Y-100302381D01*
X168425715Y-100302381D01*
X167473334Y-116407143D02*
X167425715Y-116454762D01*
X167282858Y-116502381D01*
X167187620Y-116502381D01*
X167044762Y-116454762D01*
X166949524Y-116359524D01*
X166901905Y-116264286D01*
X166854286Y-116073810D01*
X166854286Y-115930952D01*
X166901905Y-115740476D01*
X166949524Y-115645238D01*
X167044762Y-115550000D01*
X167187620Y-115502381D01*
X167282858Y-115502381D01*
X167425715Y-115550000D01*
X167473334Y-115597619D01*
X167806667Y-115502381D02*
X168425715Y-115502381D01*
X168092381Y-115883333D01*
X168235239Y-115883333D01*
X168330477Y-115930952D01*
X168378096Y-115978571D01*
X168425715Y-116073810D01*
X168425715Y-116311905D01*
X168378096Y-116407143D01*
X168330477Y-116454762D01*
X168235239Y-116502381D01*
X167949524Y-116502381D01*
X167854286Y-116454762D01*
X167806667Y-116407143D01*
X166901905Y-110561381D02*
X166901905Y-109561381D01*
X167140000Y-109561381D01*
X167282858Y-109609000D01*
X167378096Y-109704238D01*
X167425715Y-109799476D01*
X167473334Y-109989952D01*
X167473334Y-110132810D01*
X167425715Y-110323286D01*
X167378096Y-110418524D01*
X167282858Y-110513762D01*
X167140000Y-110561381D01*
X166901905Y-110561381D01*
X168425715Y-110561381D02*
X167854286Y-110561381D01*
X168140000Y-110561381D02*
X168140000Y-109561381D01*
X168044762Y-109704238D01*
X167949524Y-109799476D01*
X167854286Y-109847095D01*
X145311905Y-98452381D02*
X145311905Y-97452381D01*
X145692858Y-97452381D01*
X145788096Y-97500000D01*
X145835715Y-97547619D01*
X145883334Y-97642857D01*
X145883334Y-97785714D01*
X145835715Y-97880952D01*
X145788096Y-97928571D01*
X145692858Y-97976190D01*
X145311905Y-97976190D01*
X146835715Y-98452381D02*
X146264286Y-98452381D01*
X146550000Y-98452381D02*
X146550000Y-97452381D01*
X146454762Y-97595238D01*
X146359524Y-97690476D01*
X146264286Y-97738095D01*
X150963334Y-116452381D02*
X150630000Y-115976190D01*
X150391905Y-116452381D02*
X150391905Y-115452381D01*
X150772858Y-115452381D01*
X150868096Y-115500000D01*
X150915715Y-115547619D01*
X150963334Y-115642857D01*
X150963334Y-115785714D01*
X150915715Y-115880952D01*
X150868096Y-115928571D01*
X150772858Y-115976190D01*
X150391905Y-115976190D01*
X151915715Y-116452381D02*
X151344286Y-116452381D01*
X151630000Y-116452381D02*
X151630000Y-115452381D01*
X151534762Y-115595238D01*
X151439524Y-115690476D01*
X151344286Y-115738095D01*
X162313334Y-113101381D02*
X161980000Y-112625190D01*
X161741905Y-113101381D02*
X161741905Y-112101381D01*
X162122858Y-112101381D01*
X162218096Y-112149000D01*
X162265715Y-112196619D01*
X162313334Y-112291857D01*
X162313334Y-112434714D01*
X162265715Y-112529952D01*
X162218096Y-112577571D01*
X162122858Y-112625190D01*
X161741905Y-112625190D01*
X162694286Y-112196619D02*
X162741905Y-112149000D01*
X162837143Y-112101381D01*
X163075239Y-112101381D01*
X163170477Y-112149000D01*
X163218096Y-112196619D01*
X163265715Y-112291857D01*
X163265715Y-112387095D01*
X163218096Y-112529952D01*
X162646667Y-113101381D01*
X163265715Y-113101381D01*
X150836334Y-110561381D02*
X150503000Y-110085190D01*
X150264905Y-110561381D02*
X150264905Y-109561381D01*
X150645858Y-109561381D01*
X150741096Y-109609000D01*
X150788715Y-109656619D01*
X150836334Y-109751857D01*
X150836334Y-109894714D01*
X150788715Y-109989952D01*
X150741096Y-110037571D01*
X150645858Y-110085190D01*
X150264905Y-110085190D01*
X151169667Y-109561381D02*
X151788715Y-109561381D01*
X151455381Y-109942333D01*
X151598239Y-109942333D01*
X151693477Y-109989952D01*
X151741096Y-110037571D01*
X151788715Y-110132810D01*
X151788715Y-110370905D01*
X151741096Y-110466143D01*
X151693477Y-110513762D01*
X151598239Y-110561381D01*
X151312524Y-110561381D01*
X151217286Y-110513762D01*
X151169667Y-110466143D01*
X157393334Y-120262381D02*
X157060000Y-119786190D01*
X156821905Y-120262381D02*
X156821905Y-119262381D01*
X157202858Y-119262381D01*
X157298096Y-119310000D01*
X157345715Y-119357619D01*
X157393334Y-119452857D01*
X157393334Y-119595714D01*
X157345715Y-119690952D01*
X157298096Y-119738571D01*
X157202858Y-119786190D01*
X156821905Y-119786190D01*
X158250477Y-119595714D02*
X158250477Y-120262381D01*
X158012381Y-119214762D02*
X157774286Y-119929048D01*
X158393334Y-119929048D01*
X162520334Y-100274381D02*
X162187000Y-99798190D01*
X161948905Y-100274381D02*
X161948905Y-99274381D01*
X162329858Y-99274381D01*
X162425096Y-99322000D01*
X162472715Y-99369619D01*
X162520334Y-99464857D01*
X162520334Y-99607714D01*
X162472715Y-99702952D01*
X162425096Y-99750571D01*
X162329858Y-99798190D01*
X161948905Y-99798190D01*
X163425096Y-99274381D02*
X162948905Y-99274381D01*
X162901286Y-99750571D01*
X162948905Y-99702952D01*
X163044143Y-99655333D01*
X163282239Y-99655333D01*
X163377477Y-99702952D01*
X163425096Y-99750571D01*
X163472715Y-99845810D01*
X163472715Y-100083905D01*
X163425096Y-100179143D01*
X163377477Y-100226762D01*
X163282239Y-100274381D01*
X163044143Y-100274381D01*
X162948905Y-100226762D01*
X162901286Y-100179143D01*
X160615334Y-104116143D02*
X160567715Y-104163762D01*
X160424858Y-104211381D01*
X160329620Y-104211381D01*
X160186762Y-104163762D01*
X160091524Y-104068524D01*
X160043905Y-103973286D01*
X159996286Y-103782810D01*
X159996286Y-103639952D01*
X160043905Y-103449476D01*
X160091524Y-103354238D01*
X160186762Y-103259000D01*
X160329620Y-103211381D01*
X160424858Y-103211381D01*
X160567715Y-103259000D01*
X160615334Y-103306619D01*
X161472477Y-103544714D02*
X161472477Y-104211381D01*
X161234381Y-103163762D02*
X160996286Y-103878048D01*
X161615334Y-103878048D01*
X160075667Y-115530381D02*
X160075667Y-116244667D01*
X160028047Y-116387524D01*
X159932809Y-116482762D01*
X159789952Y-116530381D01*
X159694714Y-116530381D01*
X160551857Y-116530381D02*
X160551857Y-115530381D01*
X160932810Y-115530381D01*
X161028048Y-115578000D01*
X161075667Y-115625619D01*
X161123286Y-115720857D01*
X161123286Y-115863714D01*
X161075667Y-115958952D01*
X161028048Y-116006571D01*
X160932810Y-116054190D01*
X160551857Y-116054190D01*
X161980429Y-115863714D02*
X161980429Y-116530381D01*
X161742333Y-115482762D02*
X161504238Y-116197048D01*
X162123286Y-116197048D01*
X166266905Y-105608381D02*
X166266905Y-104608381D01*
X166505000Y-104608381D01*
X166647858Y-104656000D01*
X166743096Y-104751238D01*
X166790715Y-104846476D01*
X166838334Y-105036952D01*
X166838334Y-105179810D01*
X166790715Y-105370286D01*
X166743096Y-105465524D01*
X166647858Y-105560762D01*
X166505000Y-105608381D01*
X166266905Y-105608381D01*
X167219286Y-104703619D02*
X167266905Y-104656000D01*
X167362143Y-104608381D01*
X167600239Y-104608381D01*
X167695477Y-104656000D01*
X167743096Y-104703619D01*
X167790715Y-104798857D01*
X167790715Y-104894095D01*
X167743096Y-105036952D01*
X167171667Y-105608381D01*
X167790715Y-105608381D01*
M02*
