G04 #@! TF.FileFunction,Copper,L2,Bot,Signal*
%FSLAX46Y46*%
G04 Gerber Fmt 4.6, Leading zero omitted, Abs format (unit mm)*
G04 Created by KiCad (PCBNEW 4.0.7) date 11/13/18 10:50:41*
%MOMM*%
%LPD*%
G01*
G04 APERTURE LIST*
%ADD10C,0.100000*%
%ADD11R,1.700000X1.700000*%
%ADD12O,1.700000X1.700000*%
%ADD13C,1.200000*%
%ADD14C,0.700000*%
%ADD15C,1.000000*%
%ADD16C,0.400000*%
%ADD17C,0.250000*%
%ADD18C,0.254000*%
G04 APERTURE END LIST*
D10*
D11*
X149860000Y-107950000D03*
D12*
X152400000Y-107950000D03*
D11*
X149860000Y-118110000D03*
D12*
X152400000Y-118110000D03*
D11*
X165100000Y-118110000D03*
D12*
X167640000Y-118110000D03*
X170180000Y-118110000D03*
D11*
X146050000Y-100330000D03*
D12*
X146050000Y-102870000D03*
X146050000Y-105410000D03*
X146050000Y-107950000D03*
X146050000Y-110490000D03*
X146050000Y-113030000D03*
X146050000Y-115570000D03*
D13*
X165227000Y-101727000D03*
X168890000Y-102870000D03*
X170561000Y-102870000D03*
X175260000Y-102870000D03*
X178181000Y-105791000D03*
X178181000Y-109220000D03*
X175260000Y-111760000D03*
X171450000Y-114300000D03*
X163957000Y-110490000D03*
X158345000Y-109625000D03*
X160020000Y-109625000D03*
X160020000Y-107950000D03*
X158345000Y-107950000D03*
X153670000Y-105410000D03*
X151130000Y-105410000D03*
X148590000Y-105410000D03*
D14*
X167851000Y-106492000D03*
D15*
X169180000Y-110670002D03*
D13*
X161163000Y-105283000D03*
X153797000Y-114300000D03*
X158887957Y-112786957D03*
X153949044Y-111861956D03*
X160287425Y-112825574D03*
X162814000Y-105410000D03*
D14*
X164084000Y-108967000D03*
X163068000Y-107950000D03*
D16*
X170180000Y-106680000D02*
X165227000Y-101727000D01*
X170180000Y-106807000D02*
X170180000Y-106680000D01*
X170180000Y-118110000D02*
X170180000Y-106807000D01*
X169180000Y-109871000D02*
X169180000Y-110670002D01*
X167851000Y-106492000D02*
X167851000Y-108542000D01*
X167851000Y-108542000D02*
X169180000Y-109871000D01*
D17*
X161163000Y-105283000D02*
X161961001Y-104484999D01*
X161961001Y-104484999D02*
X163793999Y-104484999D01*
X163793999Y-104484999D02*
X169180000Y-109871000D01*
X169291000Y-110617000D02*
X169233002Y-110617000D01*
X169233002Y-110617000D02*
X169180000Y-110670002D01*
X155448000Y-112776000D02*
X153924000Y-114300000D01*
X153924000Y-114300000D02*
X153797000Y-114300000D01*
X158028472Y-112776000D02*
X155448000Y-112776000D01*
X158887957Y-112786957D02*
X158039429Y-112786957D01*
X158039429Y-112786957D02*
X158028472Y-112776000D01*
X159687426Y-112189426D02*
X159359956Y-111861956D01*
X159359956Y-111861956D02*
X153949044Y-111861956D01*
X160287425Y-112825574D02*
X159687426Y-112225575D01*
X159687426Y-112225575D02*
X159687426Y-112189426D01*
D16*
X163662528Y-105410000D02*
X162814000Y-105410000D01*
X163662528Y-105410000D02*
X167640000Y-109387472D01*
X167640000Y-109387472D02*
X167640000Y-116907919D01*
X167640000Y-116907919D02*
X167640000Y-118110000D01*
D17*
X163068000Y-107950000D02*
X164084000Y-108967000D01*
X164084000Y-108966000D02*
X164084000Y-108967000D01*
D18*
G36*
X149242246Y-95676068D02*
X148673649Y-97045402D01*
X148672355Y-98528094D01*
X149238561Y-99898418D01*
X150286068Y-100947754D01*
X151655402Y-101516351D01*
X153138094Y-101517645D01*
X154508418Y-100951439D01*
X155557754Y-99903932D01*
X156126351Y-98534598D01*
X156127645Y-97051906D01*
X155561439Y-95681582D01*
X154623494Y-94742000D01*
X174307945Y-94742000D01*
X173372246Y-95676068D01*
X172803649Y-97045402D01*
X172802355Y-98528094D01*
X173368561Y-99898418D01*
X174416068Y-100947754D01*
X175785402Y-101516351D01*
X177268094Y-101517645D01*
X178638418Y-100951439D01*
X179578000Y-100013494D01*
X179578000Y-115887945D01*
X178643932Y-114952246D01*
X177274598Y-114383649D01*
X175791906Y-114382355D01*
X174421582Y-114948561D01*
X173372246Y-115996068D01*
X172803649Y-117365402D01*
X172802355Y-118848094D01*
X173368561Y-120218418D01*
X174306506Y-121158000D01*
X143129000Y-121158000D01*
X143129000Y-117260000D01*
X148362560Y-117260000D01*
X148362560Y-118960000D01*
X148406838Y-119195317D01*
X148545910Y-119411441D01*
X148758110Y-119556431D01*
X149010000Y-119607440D01*
X150710000Y-119607440D01*
X150945317Y-119563162D01*
X151161441Y-119424090D01*
X151306431Y-119211890D01*
X151320086Y-119144459D01*
X151349946Y-119189147D01*
X151831715Y-119511054D01*
X152400000Y-119624093D01*
X152968285Y-119511054D01*
X153450054Y-119189147D01*
X153771961Y-118707378D01*
X153885000Y-118139093D01*
X153885000Y-118080907D01*
X153771961Y-117512622D01*
X153450054Y-117030853D01*
X152968285Y-116708946D01*
X152400000Y-116595907D01*
X151831715Y-116708946D01*
X151349946Y-117030853D01*
X151322150Y-117072452D01*
X151313162Y-117024683D01*
X151174090Y-116808559D01*
X150961890Y-116663569D01*
X150710000Y-116612560D01*
X149010000Y-116612560D01*
X148774683Y-116656838D01*
X148558559Y-116795910D01*
X148413569Y-117008110D01*
X148362560Y-117260000D01*
X143129000Y-117260000D01*
X143129000Y-107950000D01*
X144535907Y-107950000D01*
X144648946Y-108518285D01*
X144970853Y-109000054D01*
X145300026Y-109220000D01*
X144970853Y-109439946D01*
X144648946Y-109921715D01*
X144535907Y-110490000D01*
X144648946Y-111058285D01*
X144970853Y-111540054D01*
X145300026Y-111760000D01*
X144970853Y-111979946D01*
X144648946Y-112461715D01*
X144535907Y-113030000D01*
X144648946Y-113598285D01*
X144970853Y-114080054D01*
X145300026Y-114300000D01*
X144970853Y-114519946D01*
X144648946Y-115001715D01*
X144535907Y-115570000D01*
X144648946Y-116138285D01*
X144970853Y-116620054D01*
X145452622Y-116941961D01*
X146020907Y-117055000D01*
X146079093Y-117055000D01*
X146647378Y-116941961D01*
X147129147Y-116620054D01*
X147451054Y-116138285D01*
X147564093Y-115570000D01*
X147451054Y-115001715D01*
X147145607Y-114544579D01*
X152561786Y-114544579D01*
X152749408Y-114998657D01*
X153096515Y-115346371D01*
X153550266Y-115534785D01*
X154041579Y-115535214D01*
X154495657Y-115347592D01*
X154843371Y-115000485D01*
X155031785Y-114546734D01*
X155032029Y-114266773D01*
X155762802Y-113536000D01*
X157890663Y-113536000D01*
X158187472Y-113833328D01*
X158641223Y-114021742D01*
X159132536Y-114022171D01*
X159560415Y-113845374D01*
X159586940Y-113871945D01*
X160040691Y-114060359D01*
X160532004Y-114060788D01*
X160986082Y-113873166D01*
X161333796Y-113526059D01*
X161522210Y-113072308D01*
X161522639Y-112580995D01*
X161335017Y-112126917D01*
X160987910Y-111779203D01*
X160534159Y-111590789D01*
X160163267Y-111590465D01*
X159897357Y-111324555D01*
X159650795Y-111159808D01*
X159359956Y-111101956D01*
X154935400Y-111101956D01*
X154649529Y-110815585D01*
X154195778Y-110627171D01*
X153704465Y-110626742D01*
X153250387Y-110814364D01*
X152902673Y-111161471D01*
X152714259Y-111615222D01*
X152713830Y-112106535D01*
X152901452Y-112560613D01*
X153248559Y-112908327D01*
X153625508Y-113064850D01*
X153552421Y-113064786D01*
X153098343Y-113252408D01*
X152750629Y-113599515D01*
X152562215Y-114053266D01*
X152561786Y-114544579D01*
X147145607Y-114544579D01*
X147129147Y-114519946D01*
X146799974Y-114300000D01*
X147129147Y-114080054D01*
X147451054Y-113598285D01*
X147564093Y-113030000D01*
X147451054Y-112461715D01*
X147129147Y-111979946D01*
X146799974Y-111760000D01*
X147129147Y-111540054D01*
X147451054Y-111058285D01*
X147564093Y-110490000D01*
X147451054Y-109921715D01*
X147129147Y-109439946D01*
X146799974Y-109220000D01*
X147129147Y-109000054D01*
X147451054Y-108518285D01*
X147564093Y-107950000D01*
X147451054Y-107381715D01*
X147262819Y-107100000D01*
X148362560Y-107100000D01*
X148362560Y-108800000D01*
X148406838Y-109035317D01*
X148545910Y-109251441D01*
X148758110Y-109396431D01*
X149010000Y-109447440D01*
X150710000Y-109447440D01*
X150945317Y-109403162D01*
X151161441Y-109264090D01*
X151306431Y-109051890D01*
X151320086Y-108984459D01*
X151349946Y-109029147D01*
X151831715Y-109351054D01*
X152400000Y-109464093D01*
X152968285Y-109351054D01*
X153450054Y-109029147D01*
X153771961Y-108547378D01*
X153851985Y-108145069D01*
X162082830Y-108145069D01*
X162232471Y-108507229D01*
X162509314Y-108784555D01*
X162871212Y-108934828D01*
X162977678Y-108934921D01*
X163098922Y-109056285D01*
X163098830Y-109162069D01*
X163248471Y-109524229D01*
X163525314Y-109801555D01*
X163887212Y-109951828D01*
X164279069Y-109952170D01*
X164641229Y-109802529D01*
X164918555Y-109525686D01*
X165068828Y-109163788D01*
X165069170Y-108771931D01*
X164919529Y-108409771D01*
X164642686Y-108132445D01*
X164280788Y-107982172D01*
X164174321Y-107982079D01*
X164053078Y-107860716D01*
X164053170Y-107754931D01*
X163903529Y-107392771D01*
X163626686Y-107115445D01*
X163264788Y-106965172D01*
X162872931Y-106964830D01*
X162510771Y-107114471D01*
X162233445Y-107391314D01*
X162083172Y-107753212D01*
X162082830Y-108145069D01*
X153851985Y-108145069D01*
X153885000Y-107979093D01*
X153885000Y-107920907D01*
X153771961Y-107352622D01*
X153450054Y-106870853D01*
X152968285Y-106548946D01*
X152400000Y-106435907D01*
X151831715Y-106548946D01*
X151349946Y-106870853D01*
X151322150Y-106912452D01*
X151313162Y-106864683D01*
X151174090Y-106648559D01*
X150961890Y-106503569D01*
X150710000Y-106452560D01*
X149010000Y-106452560D01*
X148774683Y-106496838D01*
X148558559Y-106635910D01*
X148413569Y-106848110D01*
X148362560Y-107100000D01*
X147262819Y-107100000D01*
X147129147Y-106899946D01*
X146783030Y-106668679D01*
X147045468Y-106511966D01*
X147391397Y-106047135D01*
X147449012Y-105907985D01*
X147347848Y-105683000D01*
X146323000Y-105683000D01*
X146323000Y-105703000D01*
X145777000Y-105703000D01*
X145777000Y-105683000D01*
X144752152Y-105683000D01*
X144650988Y-105907985D01*
X144708603Y-106047135D01*
X145054532Y-106511966D01*
X145316970Y-106668679D01*
X144970853Y-106899946D01*
X144648946Y-107381715D01*
X144535907Y-107950000D01*
X143129000Y-107950000D01*
X143129000Y-105527579D01*
X159927786Y-105527579D01*
X160115408Y-105981657D01*
X160462515Y-106329371D01*
X160916266Y-106517785D01*
X161407579Y-106518214D01*
X161861657Y-106330592D01*
X161924917Y-106267443D01*
X162113515Y-106456371D01*
X162567266Y-106644785D01*
X163058579Y-106645214D01*
X163512657Y-106457592D01*
X163520962Y-106449302D01*
X166805000Y-109733340D01*
X166805000Y-116887159D01*
X166589946Y-117030853D01*
X166562150Y-117072452D01*
X166553162Y-117024683D01*
X166414090Y-116808559D01*
X166201890Y-116663569D01*
X165950000Y-116612560D01*
X164250000Y-116612560D01*
X164014683Y-116656838D01*
X163798559Y-116795910D01*
X163653569Y-117008110D01*
X163602560Y-117260000D01*
X163602560Y-118960000D01*
X163646838Y-119195317D01*
X163785910Y-119411441D01*
X163998110Y-119556431D01*
X164250000Y-119607440D01*
X165950000Y-119607440D01*
X166185317Y-119563162D01*
X166401441Y-119424090D01*
X166546431Y-119211890D01*
X166560086Y-119144459D01*
X166589946Y-119189147D01*
X167071715Y-119511054D01*
X167640000Y-119624093D01*
X168208285Y-119511054D01*
X168690054Y-119189147D01*
X168910000Y-118859974D01*
X169129946Y-119189147D01*
X169611715Y-119511054D01*
X170180000Y-119624093D01*
X170748285Y-119511054D01*
X171230054Y-119189147D01*
X171551961Y-118707378D01*
X171665000Y-118139093D01*
X171665000Y-118080907D01*
X171551961Y-117512622D01*
X171230054Y-117030853D01*
X171015000Y-116887159D01*
X171015000Y-109724873D01*
X174134812Y-109724873D01*
X174299646Y-110123800D01*
X174604595Y-110429282D01*
X175003233Y-110594811D01*
X175434873Y-110595188D01*
X175833800Y-110430354D01*
X176139282Y-110125405D01*
X176304811Y-109726767D01*
X176305188Y-109295127D01*
X176140354Y-108896200D01*
X175835405Y-108590718D01*
X175436767Y-108425189D01*
X175005127Y-108424812D01*
X174606200Y-108589646D01*
X174300718Y-108894595D01*
X174135189Y-109293233D01*
X174134812Y-109724873D01*
X171015000Y-109724873D01*
X171015000Y-106680000D01*
X170982819Y-106518214D01*
X170951440Y-106360460D01*
X170770434Y-106089566D01*
X170005741Y-105324873D01*
X174134812Y-105324873D01*
X174299646Y-105723800D01*
X174604595Y-106029282D01*
X175003233Y-106194811D01*
X175434873Y-106195188D01*
X175833800Y-106030354D01*
X176139282Y-105725405D01*
X176304811Y-105326767D01*
X176305188Y-104895127D01*
X176140354Y-104496200D01*
X175835405Y-104190718D01*
X175436767Y-104025189D01*
X175005127Y-104024812D01*
X174606200Y-104189646D01*
X174300718Y-104494595D01*
X174135189Y-104893233D01*
X174134812Y-105324873D01*
X170005741Y-105324873D01*
X166461953Y-101781085D01*
X166462214Y-101482421D01*
X166274592Y-101028343D01*
X165927485Y-100680629D01*
X165473734Y-100492215D01*
X164982421Y-100491786D01*
X164528343Y-100679408D01*
X164180629Y-101026515D01*
X163992215Y-101480266D01*
X163991786Y-101971579D01*
X164179408Y-102425657D01*
X164526515Y-102773371D01*
X164980266Y-102961785D01*
X165281180Y-102962048D01*
X167826111Y-105506979D01*
X167655931Y-105506830D01*
X167293771Y-105656471D01*
X167016445Y-105933314D01*
X166866172Y-106295212D01*
X166866009Y-106482207D01*
X164331400Y-103947598D01*
X164084838Y-103782851D01*
X163793999Y-103724999D01*
X161961001Y-103724999D01*
X161670162Y-103782851D01*
X161423600Y-103947598D01*
X161323059Y-104048139D01*
X160918421Y-104047786D01*
X160464343Y-104235408D01*
X160116629Y-104582515D01*
X159928215Y-105036266D01*
X159927786Y-105527579D01*
X143129000Y-105527579D01*
X143129000Y-102870000D01*
X144535907Y-102870000D01*
X144648946Y-103438285D01*
X144970853Y-103920054D01*
X145316970Y-104151321D01*
X145054532Y-104308034D01*
X144708603Y-104772865D01*
X144650988Y-104912015D01*
X144752152Y-105137000D01*
X145777000Y-105137000D01*
X145777000Y-105117000D01*
X146323000Y-105117000D01*
X146323000Y-105137000D01*
X147347848Y-105137000D01*
X147449012Y-104912015D01*
X147391397Y-104772865D01*
X147045468Y-104308034D01*
X146783030Y-104151321D01*
X147129147Y-103920054D01*
X147451054Y-103438285D01*
X147564093Y-102870000D01*
X147451054Y-102301715D01*
X147129147Y-101819946D01*
X147087548Y-101792150D01*
X147135317Y-101783162D01*
X147351441Y-101644090D01*
X147496431Y-101431890D01*
X147547440Y-101180000D01*
X147547440Y-99480000D01*
X147503162Y-99244683D01*
X147364090Y-99028559D01*
X147151890Y-98883569D01*
X146900000Y-98832560D01*
X145200000Y-98832560D01*
X144964683Y-98876838D01*
X144748559Y-99015910D01*
X144603569Y-99228110D01*
X144552560Y-99480000D01*
X144552560Y-101180000D01*
X144596838Y-101415317D01*
X144735910Y-101631441D01*
X144948110Y-101776431D01*
X145015541Y-101790086D01*
X144970853Y-101819946D01*
X144648946Y-102301715D01*
X144535907Y-102870000D01*
X143129000Y-102870000D01*
X143129000Y-94742000D01*
X150177945Y-94742000D01*
X149242246Y-95676068D01*
X149242246Y-95676068D01*
G37*
X149242246Y-95676068D02*
X148673649Y-97045402D01*
X148672355Y-98528094D01*
X149238561Y-99898418D01*
X150286068Y-100947754D01*
X151655402Y-101516351D01*
X153138094Y-101517645D01*
X154508418Y-100951439D01*
X155557754Y-99903932D01*
X156126351Y-98534598D01*
X156127645Y-97051906D01*
X155561439Y-95681582D01*
X154623494Y-94742000D01*
X174307945Y-94742000D01*
X173372246Y-95676068D01*
X172803649Y-97045402D01*
X172802355Y-98528094D01*
X173368561Y-99898418D01*
X174416068Y-100947754D01*
X175785402Y-101516351D01*
X177268094Y-101517645D01*
X178638418Y-100951439D01*
X179578000Y-100013494D01*
X179578000Y-115887945D01*
X178643932Y-114952246D01*
X177274598Y-114383649D01*
X175791906Y-114382355D01*
X174421582Y-114948561D01*
X173372246Y-115996068D01*
X172803649Y-117365402D01*
X172802355Y-118848094D01*
X173368561Y-120218418D01*
X174306506Y-121158000D01*
X143129000Y-121158000D01*
X143129000Y-117260000D01*
X148362560Y-117260000D01*
X148362560Y-118960000D01*
X148406838Y-119195317D01*
X148545910Y-119411441D01*
X148758110Y-119556431D01*
X149010000Y-119607440D01*
X150710000Y-119607440D01*
X150945317Y-119563162D01*
X151161441Y-119424090D01*
X151306431Y-119211890D01*
X151320086Y-119144459D01*
X151349946Y-119189147D01*
X151831715Y-119511054D01*
X152400000Y-119624093D01*
X152968285Y-119511054D01*
X153450054Y-119189147D01*
X153771961Y-118707378D01*
X153885000Y-118139093D01*
X153885000Y-118080907D01*
X153771961Y-117512622D01*
X153450054Y-117030853D01*
X152968285Y-116708946D01*
X152400000Y-116595907D01*
X151831715Y-116708946D01*
X151349946Y-117030853D01*
X151322150Y-117072452D01*
X151313162Y-117024683D01*
X151174090Y-116808559D01*
X150961890Y-116663569D01*
X150710000Y-116612560D01*
X149010000Y-116612560D01*
X148774683Y-116656838D01*
X148558559Y-116795910D01*
X148413569Y-117008110D01*
X148362560Y-117260000D01*
X143129000Y-117260000D01*
X143129000Y-107950000D01*
X144535907Y-107950000D01*
X144648946Y-108518285D01*
X144970853Y-109000054D01*
X145300026Y-109220000D01*
X144970853Y-109439946D01*
X144648946Y-109921715D01*
X144535907Y-110490000D01*
X144648946Y-111058285D01*
X144970853Y-111540054D01*
X145300026Y-111760000D01*
X144970853Y-111979946D01*
X144648946Y-112461715D01*
X144535907Y-113030000D01*
X144648946Y-113598285D01*
X144970853Y-114080054D01*
X145300026Y-114300000D01*
X144970853Y-114519946D01*
X144648946Y-115001715D01*
X144535907Y-115570000D01*
X144648946Y-116138285D01*
X144970853Y-116620054D01*
X145452622Y-116941961D01*
X146020907Y-117055000D01*
X146079093Y-117055000D01*
X146647378Y-116941961D01*
X147129147Y-116620054D01*
X147451054Y-116138285D01*
X147564093Y-115570000D01*
X147451054Y-115001715D01*
X147145607Y-114544579D01*
X152561786Y-114544579D01*
X152749408Y-114998657D01*
X153096515Y-115346371D01*
X153550266Y-115534785D01*
X154041579Y-115535214D01*
X154495657Y-115347592D01*
X154843371Y-115000485D01*
X155031785Y-114546734D01*
X155032029Y-114266773D01*
X155762802Y-113536000D01*
X157890663Y-113536000D01*
X158187472Y-113833328D01*
X158641223Y-114021742D01*
X159132536Y-114022171D01*
X159560415Y-113845374D01*
X159586940Y-113871945D01*
X160040691Y-114060359D01*
X160532004Y-114060788D01*
X160986082Y-113873166D01*
X161333796Y-113526059D01*
X161522210Y-113072308D01*
X161522639Y-112580995D01*
X161335017Y-112126917D01*
X160987910Y-111779203D01*
X160534159Y-111590789D01*
X160163267Y-111590465D01*
X159897357Y-111324555D01*
X159650795Y-111159808D01*
X159359956Y-111101956D01*
X154935400Y-111101956D01*
X154649529Y-110815585D01*
X154195778Y-110627171D01*
X153704465Y-110626742D01*
X153250387Y-110814364D01*
X152902673Y-111161471D01*
X152714259Y-111615222D01*
X152713830Y-112106535D01*
X152901452Y-112560613D01*
X153248559Y-112908327D01*
X153625508Y-113064850D01*
X153552421Y-113064786D01*
X153098343Y-113252408D01*
X152750629Y-113599515D01*
X152562215Y-114053266D01*
X152561786Y-114544579D01*
X147145607Y-114544579D01*
X147129147Y-114519946D01*
X146799974Y-114300000D01*
X147129147Y-114080054D01*
X147451054Y-113598285D01*
X147564093Y-113030000D01*
X147451054Y-112461715D01*
X147129147Y-111979946D01*
X146799974Y-111760000D01*
X147129147Y-111540054D01*
X147451054Y-111058285D01*
X147564093Y-110490000D01*
X147451054Y-109921715D01*
X147129147Y-109439946D01*
X146799974Y-109220000D01*
X147129147Y-109000054D01*
X147451054Y-108518285D01*
X147564093Y-107950000D01*
X147451054Y-107381715D01*
X147262819Y-107100000D01*
X148362560Y-107100000D01*
X148362560Y-108800000D01*
X148406838Y-109035317D01*
X148545910Y-109251441D01*
X148758110Y-109396431D01*
X149010000Y-109447440D01*
X150710000Y-109447440D01*
X150945317Y-109403162D01*
X151161441Y-109264090D01*
X151306431Y-109051890D01*
X151320086Y-108984459D01*
X151349946Y-109029147D01*
X151831715Y-109351054D01*
X152400000Y-109464093D01*
X152968285Y-109351054D01*
X153450054Y-109029147D01*
X153771961Y-108547378D01*
X153851985Y-108145069D01*
X162082830Y-108145069D01*
X162232471Y-108507229D01*
X162509314Y-108784555D01*
X162871212Y-108934828D01*
X162977678Y-108934921D01*
X163098922Y-109056285D01*
X163098830Y-109162069D01*
X163248471Y-109524229D01*
X163525314Y-109801555D01*
X163887212Y-109951828D01*
X164279069Y-109952170D01*
X164641229Y-109802529D01*
X164918555Y-109525686D01*
X165068828Y-109163788D01*
X165069170Y-108771931D01*
X164919529Y-108409771D01*
X164642686Y-108132445D01*
X164280788Y-107982172D01*
X164174321Y-107982079D01*
X164053078Y-107860716D01*
X164053170Y-107754931D01*
X163903529Y-107392771D01*
X163626686Y-107115445D01*
X163264788Y-106965172D01*
X162872931Y-106964830D01*
X162510771Y-107114471D01*
X162233445Y-107391314D01*
X162083172Y-107753212D01*
X162082830Y-108145069D01*
X153851985Y-108145069D01*
X153885000Y-107979093D01*
X153885000Y-107920907D01*
X153771961Y-107352622D01*
X153450054Y-106870853D01*
X152968285Y-106548946D01*
X152400000Y-106435907D01*
X151831715Y-106548946D01*
X151349946Y-106870853D01*
X151322150Y-106912452D01*
X151313162Y-106864683D01*
X151174090Y-106648559D01*
X150961890Y-106503569D01*
X150710000Y-106452560D01*
X149010000Y-106452560D01*
X148774683Y-106496838D01*
X148558559Y-106635910D01*
X148413569Y-106848110D01*
X148362560Y-107100000D01*
X147262819Y-107100000D01*
X147129147Y-106899946D01*
X146783030Y-106668679D01*
X147045468Y-106511966D01*
X147391397Y-106047135D01*
X147449012Y-105907985D01*
X147347848Y-105683000D01*
X146323000Y-105683000D01*
X146323000Y-105703000D01*
X145777000Y-105703000D01*
X145777000Y-105683000D01*
X144752152Y-105683000D01*
X144650988Y-105907985D01*
X144708603Y-106047135D01*
X145054532Y-106511966D01*
X145316970Y-106668679D01*
X144970853Y-106899946D01*
X144648946Y-107381715D01*
X144535907Y-107950000D01*
X143129000Y-107950000D01*
X143129000Y-105527579D01*
X159927786Y-105527579D01*
X160115408Y-105981657D01*
X160462515Y-106329371D01*
X160916266Y-106517785D01*
X161407579Y-106518214D01*
X161861657Y-106330592D01*
X161924917Y-106267443D01*
X162113515Y-106456371D01*
X162567266Y-106644785D01*
X163058579Y-106645214D01*
X163512657Y-106457592D01*
X163520962Y-106449302D01*
X166805000Y-109733340D01*
X166805000Y-116887159D01*
X166589946Y-117030853D01*
X166562150Y-117072452D01*
X166553162Y-117024683D01*
X166414090Y-116808559D01*
X166201890Y-116663569D01*
X165950000Y-116612560D01*
X164250000Y-116612560D01*
X164014683Y-116656838D01*
X163798559Y-116795910D01*
X163653569Y-117008110D01*
X163602560Y-117260000D01*
X163602560Y-118960000D01*
X163646838Y-119195317D01*
X163785910Y-119411441D01*
X163998110Y-119556431D01*
X164250000Y-119607440D01*
X165950000Y-119607440D01*
X166185317Y-119563162D01*
X166401441Y-119424090D01*
X166546431Y-119211890D01*
X166560086Y-119144459D01*
X166589946Y-119189147D01*
X167071715Y-119511054D01*
X167640000Y-119624093D01*
X168208285Y-119511054D01*
X168690054Y-119189147D01*
X168910000Y-118859974D01*
X169129946Y-119189147D01*
X169611715Y-119511054D01*
X170180000Y-119624093D01*
X170748285Y-119511054D01*
X171230054Y-119189147D01*
X171551961Y-118707378D01*
X171665000Y-118139093D01*
X171665000Y-118080907D01*
X171551961Y-117512622D01*
X171230054Y-117030853D01*
X171015000Y-116887159D01*
X171015000Y-109724873D01*
X174134812Y-109724873D01*
X174299646Y-110123800D01*
X174604595Y-110429282D01*
X175003233Y-110594811D01*
X175434873Y-110595188D01*
X175833800Y-110430354D01*
X176139282Y-110125405D01*
X176304811Y-109726767D01*
X176305188Y-109295127D01*
X176140354Y-108896200D01*
X175835405Y-108590718D01*
X175436767Y-108425189D01*
X175005127Y-108424812D01*
X174606200Y-108589646D01*
X174300718Y-108894595D01*
X174135189Y-109293233D01*
X174134812Y-109724873D01*
X171015000Y-109724873D01*
X171015000Y-106680000D01*
X170982819Y-106518214D01*
X170951440Y-106360460D01*
X170770434Y-106089566D01*
X170005741Y-105324873D01*
X174134812Y-105324873D01*
X174299646Y-105723800D01*
X174604595Y-106029282D01*
X175003233Y-106194811D01*
X175434873Y-106195188D01*
X175833800Y-106030354D01*
X176139282Y-105725405D01*
X176304811Y-105326767D01*
X176305188Y-104895127D01*
X176140354Y-104496200D01*
X175835405Y-104190718D01*
X175436767Y-104025189D01*
X175005127Y-104024812D01*
X174606200Y-104189646D01*
X174300718Y-104494595D01*
X174135189Y-104893233D01*
X174134812Y-105324873D01*
X170005741Y-105324873D01*
X166461953Y-101781085D01*
X166462214Y-101482421D01*
X166274592Y-101028343D01*
X165927485Y-100680629D01*
X165473734Y-100492215D01*
X164982421Y-100491786D01*
X164528343Y-100679408D01*
X164180629Y-101026515D01*
X163992215Y-101480266D01*
X163991786Y-101971579D01*
X164179408Y-102425657D01*
X164526515Y-102773371D01*
X164980266Y-102961785D01*
X165281180Y-102962048D01*
X167826111Y-105506979D01*
X167655931Y-105506830D01*
X167293771Y-105656471D01*
X167016445Y-105933314D01*
X166866172Y-106295212D01*
X166866009Y-106482207D01*
X164331400Y-103947598D01*
X164084838Y-103782851D01*
X163793999Y-103724999D01*
X161961001Y-103724999D01*
X161670162Y-103782851D01*
X161423600Y-103947598D01*
X161323059Y-104048139D01*
X160918421Y-104047786D01*
X160464343Y-104235408D01*
X160116629Y-104582515D01*
X159928215Y-105036266D01*
X159927786Y-105527579D01*
X143129000Y-105527579D01*
X143129000Y-102870000D01*
X144535907Y-102870000D01*
X144648946Y-103438285D01*
X144970853Y-103920054D01*
X145316970Y-104151321D01*
X145054532Y-104308034D01*
X144708603Y-104772865D01*
X144650988Y-104912015D01*
X144752152Y-105137000D01*
X145777000Y-105137000D01*
X145777000Y-105117000D01*
X146323000Y-105117000D01*
X146323000Y-105137000D01*
X147347848Y-105137000D01*
X147449012Y-104912015D01*
X147391397Y-104772865D01*
X147045468Y-104308034D01*
X146783030Y-104151321D01*
X147129147Y-103920054D01*
X147451054Y-103438285D01*
X147564093Y-102870000D01*
X147451054Y-102301715D01*
X147129147Y-101819946D01*
X147087548Y-101792150D01*
X147135317Y-101783162D01*
X147351441Y-101644090D01*
X147496431Y-101431890D01*
X147547440Y-101180000D01*
X147547440Y-99480000D01*
X147503162Y-99244683D01*
X147364090Y-99028559D01*
X147151890Y-98883569D01*
X146900000Y-98832560D01*
X145200000Y-98832560D01*
X144964683Y-98876838D01*
X144748559Y-99015910D01*
X144603569Y-99228110D01*
X144552560Y-99480000D01*
X144552560Y-101180000D01*
X144596838Y-101415317D01*
X144735910Y-101631441D01*
X144948110Y-101776431D01*
X145015541Y-101790086D01*
X144970853Y-101819946D01*
X144648946Y-102301715D01*
X144535907Y-102870000D01*
X143129000Y-102870000D01*
X143129000Y-94742000D01*
X150177945Y-94742000D01*
X149242246Y-95676068D01*
M02*
