M48
;DRILL file {KiCad 4.0.7} date 11/13/18 11:06:59
;FORMAT={-:-/ absolute / metric / decimal}
FMAT,2
METRIC,TZ
T1C0.400
T2C0.600
T3C1.000
%
G90
G05
M71
T1
X163.068Y-107.95
X164.084Y-108.967
X167.851Y-106.492
X169.18Y-110.67
T2
X148.59Y-105.41
X151.13Y-105.41
X153.67Y-105.41
X153.797Y-114.3
X153.949Y-111.862
X158.345Y-107.95
X158.345Y-109.625
X158.888Y-112.787
X160.02Y-107.95
X160.02Y-109.625
X160.287Y-112.826
X161.163Y-105.283
X162.814Y-105.41
X163.957Y-110.49
X165.227Y-101.727
X168.89Y-102.87
X170.561Y-102.87
X171.45Y-114.3
X175.26Y-102.87
X175.26Y-111.76
X178.181Y-105.791
X178.181Y-109.22
T3
X146.05Y-100.33
X146.05Y-102.87
X146.05Y-105.41
X146.05Y-107.95
X146.05Y-110.49
X146.05Y-113.03
X146.05Y-115.57
X149.86Y-107.95
X149.86Y-118.11
X152.4Y-107.95
X152.4Y-118.11
X165.1Y-118.11
X167.64Y-118.11
X170.18Y-118.11
T0
M30
